<svg width="49" height="49" viewBox="0 0 49 49" fill="none" xmlns="http://www.w3.org/2000/svg">
<rect x="0.25" y="0.25" width="48" height="48" rx="24" fill="#0C3739"/>
<rect x="0.25" y="0.25" width="48" height="48" rx="24" stroke="#ECE9EB" stroke-width="0.5"/>
<path fill-rule="evenodd" clip-rule="evenodd" d="M27.8961 18.0614H25.3703C20.3063 18.0614 15.9814 30.4628 21.9574 30.451H25.8014C28.0195 30.451 29.658 31.2317 28.9308 33.3445L27.9334 36.25H23.8548L20.5403 36.2137C16.3015 36.178 13.5662 34.1491 12.5809 31.0757C11.5088 27.7502 13.0241 20.8221 17.386 16.3802C19.924 13.7991 23.4357 12.25 27.9334 12.25H36.25L34.9439 15.8883C34.1592 18.0916 32.5971 18.0741 31.6024 18.0629C31.5348 18.0621 31.4698 18.0614 31.4078 18.0614H27.8961Z" fill="#04E762"/>
</svg>
