<svg width="34" height="34" viewBox="0 0 34 34" fill="none" xmlns="http://www.w3.org/2000/svg">
<rect x="0.761194" y="0.761194" width="32.4776" height="32.4776" rx="6" stroke="#2D2D2D" stroke-width="1.5"/>
<path d="M27.4393 9.17063H6.5608C6.33008 9.17063 6.10881 9.26228 5.94567 9.42543C5.78252 9.58857 5.69087 9.80984 5.69087 10.0406V23.9595C5.69087 24.1903 5.78252 24.4115 5.94567 24.5747C6.10881 24.7378 6.33008 24.8295 6.5608 24.8295H27.4393C27.67 24.8295 27.8913 24.7378 28.0544 24.5747C28.2176 24.4115 28.3092 24.1903 28.3092 23.9595V10.0406C28.3092 9.80984 28.2176 9.58857 28.0544 9.42543C27.8913 9.26228 27.67 9.17063 27.4393 9.17063Z" stroke="#2D2D2D" stroke-width="1.5" stroke-linecap="round" stroke-linejoin="round"/>
<path d="M23.9594 13.5203H24.8294M23.9594 17.0001H24.8294M19.6097 12.6504H10.0404C9.80972 12.6504 9.58845 12.742 9.4253 12.9052C9.26216 13.0683 9.1705 13.2896 9.1705 13.5203V20.4798C9.1705 20.7105 9.26216 20.9318 9.4253 21.095C9.58845 21.2581 9.80972 21.3498 10.0404 21.3498H19.6097C19.8405 21.3498 20.0617 21.2581 20.2249 21.095C20.388 20.9318 20.4797 20.7105 20.4797 20.4798V13.5203C20.4797 13.2896 20.388 13.0683 20.2249 12.9052C20.0617 12.742 19.8405 12.6504 19.6097 12.6504Z" stroke="#2D2D2D" stroke-width="1.5" stroke-linecap="round" stroke-linejoin="round"/>
</svg>
