<svg width="34" height="34" viewBox="0 0 34 34" fill="none" xmlns="http://www.w3.org/2000/svg">
<rect x="0.761194" y="0.761194" width="32.4776" height="32.4776" rx="6" stroke="#2D2D2D" stroke-width="1.5"/>
<path d="M14.9701 20.0448H14.9803M13.9552 10.9104H21.5256C22.2463 10.9105 22.9437 11.1662 23.4936 11.6321C24.0435 12.098 24.4103 12.7439 24.5287 13.4549L25.1143 16.9706L25.9364 21.9082C25.9606 22.0534 25.9528 22.2022 25.9137 22.3441C25.8746 22.4861 25.8051 22.6178 25.71 22.7302C25.6149 22.8426 25.4964 22.933 25.3629 22.995C25.2294 23.0571 25.084 23.0893 24.9367 23.0896H7.86567C7.86567 21.2053 8.61418 19.3983 9.94652 18.0659C11.2789 16.7336 13.0859 15.9851 14.9701 15.9851H24.9164M19.0299 20.0448H19.04" stroke="#2D2D2D" stroke-width="1.5" stroke-linecap="round" stroke-linejoin="round"/>
</svg>
