<svg width="34" height="34" viewBox="0 0 34 34" fill="none" xmlns="http://www.w3.org/2000/svg">
<rect x="0.761194" y="0.761194" width="32.4776" height="32.4776" rx="6" stroke="#2D2D2D" stroke-width="1.5"/>
<path d="M24.2069 23.0896H12.9027C9.9249 23.0896 8.43702 23.0896 7.52866 21.9559C5.80633 19.8042 7.7692 14.0801 8.95768 11.9254C9.3606 14.3612 13.5106 14.2932 15.0219 13.9552C14.015 11.9264 15.3588 11.2494 16.0307 10.9104H16.0327C19.0298 14.4627 25.439 16.3951 27.0091 20.267C27.6881 21.9396 25.7537 23.0896 24.2069 23.0896Z" stroke="#2D2D2D" stroke-width="1.5" stroke-linecap="round" stroke-linejoin="round"/>
<path d="M6.85075 19.0299C11.0779 20.4812 13.6822 20.9014 17.0223 19.8459C18.0342 19.5261 18.5396 19.3658 18.8553 19.3871C19.1699 19.4094 19.8144 19.7088 21.1013 20.3097C22.7079 21.0587 24.9134 21.49 27.1493 20.4081" stroke="#2D2D2D" stroke-width="1.5" stroke-linejoin="round"/>
<path d="M18.5224 14.4627L20.0448 12.9403M20.5522 15.9851L22.0746 14.4627" stroke="#2D2D2D" stroke-width="1.5" stroke-linecap="round" stroke-linejoin="round"/>
</svg>
