<svg width="48" height="48" viewBox="0 0 48 48" fill="none" xmlns="http://www.w3.org/2000/svg">
<rect width="48" height="48" rx="24" fill="#F4F2F3"/>
<path d="M21.5502 27.15L30.0252 18.675C30.2252 18.475 30.4585 18.375 30.7252 18.375C30.9918 18.375 31.2252 18.475 31.4252 18.675C31.6252 18.875 31.7252 19.1127 31.7252 19.388C31.7252 19.6633 31.6252 19.9007 31.4252 20.1L22.2502 29.3C22.0502 29.5 21.8168 29.6 21.5502 29.6C21.2835 29.6 21.0502 29.5 20.8502 29.3L16.5502 25C16.3502 24.8 16.2542 24.5627 16.2622 24.288C16.2702 24.0133 16.3745 23.7757 16.5752 23.575C16.7758 23.3743 17.0135 23.2743 17.2882 23.275C17.5628 23.2757 17.8002 23.3757 18.0002 23.575L21.5502 27.15Z" fill="#57A773"/>
</svg>
