<svg width="24" height="24" viewBox="0 0 24 24" fill="none" xmlns="http://www.w3.org/2000/svg">
<path d="M4.23743 10.4574C9.06926 8.34064 12.2912 6.94509 13.9034 6.27077C18.5063 4.34565 19.4627 4.01122 20.0862 4.00011C20.2232 3.99779 20.5298 4.03195 20.7284 4.19395C20.8961 4.33079 20.9422 4.51563 20.9643 4.64531C20.9864 4.77506 21.0139 5.07056 20.992 5.30143C20.7425 7.9368 19.6633 14.3322 19.1142 17.2839C18.8818 18.5328 18.4244 18.9516 17.9815 18.9926C17.019 19.0816 16.288 18.353 15.3558 17.7384C13.897 16.7769 13.0729 16.1783 11.6569 15.24C10.0205 14.1557 11.0813 13.5597 12.0139 12.5856C12.258 12.3308 16.4988 8.45191 16.5809 8.10009C16.5912 8.05605 16.6007 7.892 16.5038 7.80541C16.4069 7.71882 16.2639 7.74841 16.1606 7.77193C16.0144 7.80534 13.6839 9.35423 9.16937 12.4186C8.50787 12.8754 7.90874 13.0978 7.37193 13.0862C6.78014 13.0734 5.64178 12.7498 4.7955 12.4731C3.75752 12.1338 2.93253 11.9545 3.00436 11.3783C3.04178 11.0781 3.45279 10.7712 4.23743 10.4574Z" fill="#0077FE"/>
</svg>
