<svg width="162" height="32" viewBox="0 0 162 32" fill="none" xmlns="http://www.w3.org/2000/svg">
<path d="M156 0H104C100.686 0 98 2.68629 98 6V26C98 29.3137 100.686 32 104 32H156C159.314 32 162 29.3137 162 26V6C162 2.68629 159.314 0 156 0Z" fill="#0077FE"/>
<path d="M105.525 25.5V6.38403H109.386V14.295H117.648V6.38403H121.536V25.5H117.648V17.859H109.386V25.5H105.525Z" fill="white"/>
<path d="M131.438 25.689C129.35 25.689 127.739 25.158 126.605 24.096C125.489 23.016 124.931 21.396 124.931 19.236V11.271H128.711V18.966C128.711 19.614 128.801 20.19 128.981 20.694C129.179 21.18 129.476 21.567 129.872 21.855C130.286 22.143 130.817 22.287 131.465 22.287C132.167 22.287 132.707 22.134 133.085 21.828C133.463 21.522 133.724 21.117 133.868 20.613C134.012 20.091 134.084 19.542 134.084 18.966V11.271H137.837V19.236C137.837 21.486 137.27 23.124 136.136 24.15C135.02 25.176 133.454 25.689 131.438 25.689Z" fill="white"/>
<path d="M149.085 25.689C148.617 25.689 148.122 25.644 147.6 25.554C147.096 25.464 146.592 25.293 146.088 25.041C145.602 24.771 145.143 24.393 144.711 23.907L144.684 25.5H140.985V6.38403H144.765V12.945C145.305 12.297 145.971 11.82 146.763 11.514C147.573 11.19 148.41 11.028 149.274 11.028C150.678 11.028 151.83 11.352 152.73 12C153.63 12.63 154.296 13.494 154.728 14.592C155.178 15.69 155.403 16.95 155.403 18.372C155.403 19.758 155.178 21.009 154.728 22.125C154.278 23.223 153.585 24.096 152.649 24.744C151.731 25.374 150.543 25.689 149.085 25.689ZM148.275 22.314C149.157 22.314 149.841 22.116 150.327 21.72C150.813 21.324 151.155 20.82 151.353 20.208C151.551 19.596 151.65 18.957 151.65 18.291C151.65 17.625 151.542 17.004 151.326 16.428C151.11 15.834 150.75 15.366 150.246 15.024C149.76 14.664 149.103 14.484 148.275 14.484C147.519 14.484 146.871 14.673 146.331 15.051C145.809 15.411 145.413 15.888 145.143 16.482C144.873 17.076 144.738 17.715 144.738 18.399C144.738 19.083 144.855 19.731 145.089 20.343C145.341 20.937 145.728 21.414 146.25 21.774C146.772 22.134 147.447 22.314 148.275 22.314Z" fill="white"/>
<path d="M3.02539 25.5V6.38403H10.4774C11.9354 6.38403 13.2044 6.60903 14.2844 7.05903C15.3824 7.49103 16.2284 8.19303 16.8224 9.16503C17.4164 10.119 17.7134 11.397 17.7134 12.999C17.7134 14.493 17.3804 15.744 16.7144 16.752C16.0664 17.76 15.1754 18.516 14.0414 19.02C12.9074 19.506 11.6204 19.749 10.1804 19.749H6.88639V25.5H3.02539ZM6.88639 16.293H10.1264C11.2784 16.293 12.1874 16.023 12.8534 15.483C13.5374 14.925 13.8794 14.088 13.8794 12.972C13.8794 11.982 13.5914 11.235 13.0154 10.731C12.4574 10.227 11.5574 9.97503 10.3154 9.97503H6.88639V16.293Z" fill="#2D2D2D"/>
<path d="M26.6273 25.6891C25.1873 25.6891 23.9273 25.4011 22.8473 24.8251C21.7673 24.2311 20.9303 23.3941 20.3363 22.3141C19.7423 21.2161 19.4453 19.9201 19.4453 18.4261C19.4453 16.8961 19.7423 15.5821 20.3363 14.4841C20.9483 13.3681 21.7943 12.5131 22.8743 11.9191C23.9543 11.3251 25.1963 11.0281 26.6003 11.0281C28.0403 11.0281 29.2913 11.3341 30.3533 11.9461C31.4153 12.5581 32.2433 13.4131 32.8373 14.5111C33.4313 15.6091 33.7283 16.9231 33.7283 18.4531C33.7283 19.9471 33.4313 21.2431 32.8373 22.3411C32.2613 23.4211 31.4423 24.2491 30.3803 24.8251C29.3363 25.4011 28.0853 25.6891 26.6273 25.6891ZM26.5733 22.2331C27.4013 22.2331 28.0673 22.0531 28.5713 21.6931C29.0753 21.3331 29.4353 20.8651 29.6513 20.2891C29.8853 19.6951 30.0023 19.0741 30.0023 18.4261C30.0023 17.7781 29.8853 17.1571 29.6513 16.5631C29.4353 15.9691 29.0753 15.4831 28.5713 15.1051C28.0853 14.7091 27.4193 14.5111 26.5733 14.5111C25.7633 14.5111 25.1063 14.7091 24.6023 15.1051C24.0983 15.4831 23.7293 15.9691 23.4953 16.5631C23.2793 17.1571 23.1713 17.7781 23.1713 18.4261C23.1713 19.0921 23.2793 19.7131 23.4953 20.2891C23.7293 20.8651 24.0983 21.3331 24.6023 21.6931C25.1063 22.0531 25.7633 22.2331 26.5733 22.2331Z" fill="#2D2D2D"/>
<path d="M42.3573 25.6891C40.8993 25.6891 39.6483 25.3921 38.6043 24.7981C37.5783 24.2041 36.7953 23.3671 36.2553 22.2871C35.7153 21.1891 35.4453 19.9021 35.4453 18.4261C35.4453 16.9321 35.7243 15.6361 36.2823 14.5381C36.8403 13.4221 37.6413 12.5581 38.6853 11.9461C39.7473 11.3341 41.0253 11.0281 42.5193 11.0281C43.6713 11.0281 44.6973 11.2351 45.5973 11.6491C46.4973 12.0631 47.2173 12.6571 47.7573 13.4311C48.3153 14.2051 48.6393 15.1591 48.7293 16.2931H45.0303C44.8683 15.6631 44.5533 15.2041 44.0853 14.9161C43.6353 14.6281 43.0953 14.4841 42.4653 14.4841C41.6553 14.4841 41.0073 14.6821 40.5213 15.0781C40.0533 15.4741 39.7113 15.9781 39.4953 16.5901C39.2973 17.2021 39.1983 17.8141 39.1983 18.4261C39.1983 19.0921 39.3063 19.7221 39.5223 20.3161C39.7383 20.8921 40.0803 21.3691 40.5483 21.7471C41.0343 22.1071 41.6643 22.2871 42.4383 22.2871C43.0863 22.2871 43.6533 22.1431 44.1393 21.8551C44.6253 21.5491 44.9403 21.0811 45.0843 20.4511H48.8643C48.7743 21.6211 48.4233 22.5931 47.8113 23.3671C47.1993 24.1411 46.4163 24.7261 45.4623 25.1221C44.5263 25.5001 43.4913 25.6891 42.3573 25.6891Z" fill="#2D2D2D"/>
<path d="M51.4854 25.5V6.38403H55.2654V12.918C55.6794 12.432 56.1384 12.054 56.6424 11.784C57.1644 11.514 57.6864 11.325 58.2084 11.217C58.7484 11.091 59.2434 11.028 59.6934 11.028C61.0254 11.028 62.0694 11.325 62.8254 11.919C63.5814 12.513 64.1214 13.314 64.4454 14.322C64.7694 15.33 64.9314 16.437 64.9314 17.643V25.5H61.1514V18.183C61.1514 17.751 61.1064 17.319 61.0164 16.887C60.9444 16.455 60.8094 16.059 60.6114 15.699C60.4134 15.321 60.1344 15.024 59.7744 14.808C59.4144 14.574 58.9374 14.457 58.3434 14.457C57.7854 14.457 57.3084 14.574 56.9124 14.808C56.5164 15.042 56.1924 15.357 55.9404 15.753C55.7064 16.131 55.5354 16.554 55.4274 17.022C55.3194 17.49 55.2654 17.958 55.2654 18.426V25.5H51.4854Z" fill="#2D2D2D"/>
<path d="M73.79 25.689C72.188 25.689 71 25.239 70.226 24.339C69.47 23.439 69.092 22.206 69.092 20.64V14.646H66.959V11.271H69.092V7.43701H72.872V11.271H77.192V14.646H72.872V19.857C72.872 20.325 72.926 20.73 73.034 21.072C73.16 21.414 73.358 21.684 73.628 21.882C73.916 22.062 74.303 22.152 74.789 22.152C75.221 22.152 75.581 22.089 75.869 21.963C76.175 21.819 76.427 21.666 76.625 21.504L77.813 24.42C77.435 24.726 77.012 24.978 76.544 25.176C76.094 25.356 75.635 25.482 75.167 25.554C74.699 25.644 74.24 25.689 73.79 25.689Z" fill="#2D2D2D"/>
<path d="M83.494 25.6889C82.846 25.6889 82.216 25.6079 81.604 25.4459C81.01 25.2659 80.479 24.9959 80.011 24.6359C79.543 24.2759 79.174 23.8259 78.904 23.2859C78.634 22.7459 78.499 22.1159 78.499 21.3959C78.499 20.4239 78.697 19.6499 79.093 19.0739C79.489 18.4799 80.02 18.0299 80.686 17.7239C81.352 17.4179 82.117 17.2109 82.981 17.1029C83.863 16.9949 84.772 16.9409 85.708 16.9409H87.76C87.76 16.4189 87.661 15.9599 87.463 15.5639C87.283 15.1499 87.004 14.8349 86.626 14.6189C86.248 14.3849 85.762 14.2679 85.168 14.2679C84.79 14.2679 84.421 14.3219 84.061 14.4299C83.719 14.5199 83.431 14.6549 83.197 14.8349C82.963 15.0149 82.81 15.2489 82.738 15.5369H78.904C79.012 14.7449 79.264 14.0699 79.66 13.5119C80.056 12.9359 80.551 12.4679 81.145 12.1079C81.739 11.7479 82.387 11.4869 83.089 11.3249C83.809 11.1449 84.547 11.0549 85.303 11.0549C87.373 11.0549 88.903 11.6489 89.893 12.8369C90.883 14.0069 91.378 15.6719 91.378 17.8319V25.4999H87.976L87.922 23.6639C87.472 24.2939 86.959 24.7529 86.383 25.0409C85.825 25.3289 85.285 25.5089 84.763 25.5809C84.241 25.6529 83.818 25.6889 83.494 25.6889ZM84.358 22.6919C84.988 22.6919 85.564 22.5659 86.086 22.3139C86.608 22.0619 87.022 21.7199 87.328 21.2879C87.634 20.8559 87.787 20.3699 87.787 19.8299V19.4789H85.195C84.817 19.4789 84.448 19.4969 84.088 19.5329C83.746 19.5689 83.431 19.6409 83.143 19.7489C82.873 19.8389 82.657 19.9919 82.495 20.2079C82.333 20.4239 82.252 20.7119 82.252 21.0719C82.252 21.4319 82.342 21.7379 82.522 21.9899C82.72 22.2239 82.981 22.4039 83.305 22.5299C83.629 22.6379 83.98 22.6919 84.358 22.6919Z" fill="#2D2D2D"/>
</svg>
