<svg width="1128" height="56" viewBox="0 0 1128 56" fill="none" xmlns="http://www.w3.org/2000/svg">
<path d="M0 16C0 7.16344 7.16344 0 16 0H1112C1120.84 0 1128 7.16344 1128 16V56H0V16Z" fill="#EEE5D3"/>
<path fill-rule="evenodd" clip-rule="evenodd" d="M34.079 23.946H32.4519C29.1897 23.946 26.4037 32.0619 30.2534 32.0542H32.7296C34.1585 32.0542 35.214 32.5651 34.7456 33.9478L34.103 35.8493H31.4756L29.3405 35.8255C26.61 35.8021 24.8479 34.4743 24.2131 32.463C23.5225 30.2867 24.4987 25.7527 27.3086 22.8458C28.9435 21.1566 31.2057 20.1428 34.103 20.1428H39.4605L38.6191 22.5239C38.1136 23.9658 37.1073 23.9543 36.4665 23.947C36.423 23.9465 36.3811 23.946 36.3412 23.946H34.079ZM63.6771 26.1067H55.0492C53.6208 26.1067 52.9776 26.4992 52.7157 27.3085L51.9061 29.9013H60.5341C61.9626 29.9013 62.6056 29.5085 62.8677 28.6991L63.6771 26.1067ZM52.946 32.0619H61.5738L60.7641 34.6553C60.5022 35.4643 59.8592 35.857 58.4306 35.857H49.8025L50.6124 33.2643C50.8744 32.4551 51.5171 32.0619 52.946 32.0619ZM57.0497 20.1585H65.6773L64.8678 22.7518C64.6057 23.5605 63.9628 23.9538 62.5343 23.9538H53.9063L54.7158 21.361C54.9777 20.5517 55.6209 20.1585 57.0497 20.1585ZM43.9846 23.9382H46.1357C47.9693 23.9382 47.5486 26.201 46.6199 28.4088C45.8021 30.3495 44.3577 32.0698 42.6353 32.0698H39.0557C37.6268 32.0698 36.9681 32.463 36.6902 33.2725L35.8093 35.8571H38.4366L41.0004 35.8333C43.2783 35.8177 45.1356 35.6526 47.3183 33.7119C49.6204 31.6614 52.3029 26.3423 51.8426 23.2702C51.4855 20.8579 50.1758 20.1507 47.0008 20.1507H41.2226L37.8571 29.8934H39.9922H40.0248C41.2733 29.8935 41.9108 29.8936 42.5798 28.1101L43.9846 23.9382ZM66.3044 35.857H62.2325L67.7092 20.1428H71.7812L69.4475 26.9081H69.4949C69.9813 26.3012 70.4737 25.7871 70.9614 25.2781C71.023 25.2138 71.0846 25.1495 71.1461 25.0851L75.8371 20.1428H80.8295L73.1065 27.0807L76.3211 35.857H73.2018C72.2018 35.857 71.7493 35.2523 71.3047 33.8695L69.868 29.3984L68.0505 30.915L66.3044 35.857Z" fill="#2D2D2D"/>
<g clip-path="url(#clip0_43_770)">
<path d="M279.541 28.5195C279.181 29.1879 278.512 29.6039 277.797 29.6039C276.732 29.6039 275.853 28.7112 275.787 27.5754L275.783 27.538C275.783 27.5053 275.778 27.4772 275.778 27.4445C275.778 27.0799 275.862 26.72 276.026 26.4022C276.381 25.7105 277.059 25.2804 277.793 25.2804C278.522 25.2804 279.195 25.7058 279.55 26.3882L279.583 26.4443L281.167 25.7993L281.134 25.7292C280.513 24.3456 279.171 23.4482 277.713 23.4482C276.063 23.4482 274.614 24.5513 274.114 26.1965C273.997 26.5845 273.937 26.9865 273.937 27.3978C273.937 27.4492 273.937 27.5006 273.941 27.5473C274.016 29.6787 275.675 31.3473 277.713 31.3473C279.153 31.3473 280.447 30.5106 281.092 29.1599L281.125 29.0898L279.564 28.4541L279.541 28.5195Z" fill="#2D2D2D"/>
<path d="M246.64 26.6312H243.041C243.069 26.5517 243.102 26.4816 243.139 26.4115C243.495 25.7197 244.172 25.2897 244.906 25.2897C245.172 25.2897 245.434 25.3458 245.677 25.4533C246.121 25.701 246.467 26.1264 246.64 26.6312ZM246.986 24.1726C246.921 24.1259 246.85 24.0745 246.776 24.0277C246.762 24.0184 246.743 24.0091 246.729 23.9997C246.687 23.9717 246.645 23.9483 246.603 23.9249L246.547 23.8922C246.467 23.8501 246.392 23.8127 246.322 23.7847C246.294 23.7707 246.271 23.7613 246.243 23.7473C246.201 23.7286 246.159 23.7146 246.117 23.6959C246.089 23.6865 246.065 23.6772 246.037 23.6678L246.018 23.6632C245.958 23.6398 245.897 23.6211 245.832 23.6024C245.794 23.5884 245.752 23.579 245.715 23.5697C245.677 23.5603 245.64 23.551 245.602 23.5417C245.551 23.5323 245.5 23.5183 245.448 23.5136C245.411 23.5089 245.373 23.4996 245.336 23.4949C245.275 23.4856 245.215 23.4809 245.154 23.4715C245.126 23.4669 245.098 23.4669 245.07 23.4669C244.995 23.4622 244.915 23.4575 244.841 23.4575H244.827C244.728 23.4575 244.63 23.4622 244.527 23.4715L244.476 23.4762C244.392 23.4856 244.312 23.4949 244.228 23.5089L244.168 23.5183C244.088 23.5323 244.013 23.551 243.934 23.5697L243.882 23.5837C243.803 23.6071 243.724 23.6305 243.644 23.6585L243.607 23.6725C243.523 23.7006 243.438 23.738 243.34 23.78C242.518 24.1493 241.845 24.813 241.447 25.6496L241.419 25.7151C241.344 25.874 241.284 26.0422 241.232 26.2105C241.115 26.5984 241.055 27.0004 241.055 27.4117C241.055 27.4631 241.055 27.5145 241.059 27.5613C241.073 27.8931 241.125 28.2203 241.214 28.5335L241.228 28.6083C241.274 28.7532 241.33 28.9074 241.405 29.0757C241.419 29.1037 241.429 29.1271 241.443 29.1551L241.475 29.2206C241.55 29.3748 241.639 29.5244 241.732 29.6646L241.756 29.702C241.849 29.8375 241.952 29.9684 242.064 30.0993L242.092 30.132C242.13 30.1694 242.162 30.2114 242.2 30.2442L242.214 30.2582C242.284 30.3283 242.359 30.3984 242.438 30.4638C242.452 30.4779 242.471 30.4919 242.485 30.5012C242.527 30.5339 242.564 30.5667 242.606 30.5994L242.639 30.6227C242.714 30.6788 242.789 30.7303 242.873 30.7817L242.929 30.8191C242.971 30.8424 243.013 30.8705 243.055 30.8938L243.111 30.9219C243.186 30.9593 243.261 30.9967 243.336 31.0341C243.359 31.0434 243.387 31.0574 243.415 31.0668C243.457 31.0855 243.499 31.0995 243.541 31.1182C243.574 31.1322 243.607 31.1416 243.639 31.1509C243.7 31.1743 243.766 31.193 243.826 31.2117C243.868 31.221 243.906 31.235 243.943 31.2444C243.981 31.2537 244.018 31.2631 244.055 31.2724C244.107 31.2818 244.158 31.2958 244.21 31.3052C244.247 31.3098 244.284 31.3192 244.322 31.3238C244.383 31.3332 244.443 31.3379 244.504 31.3472C244.532 31.3519 244.56 31.3519 244.588 31.3519C244.663 31.3566 244.742 31.3612 244.831 31.3612C244.929 31.3612 245.023 31.3566 245.13 31.3472L245.182 31.3425C245.266 31.3332 245.345 31.3238 245.43 31.3098L245.49 31.3005C245.57 31.2865 245.645 31.2678 245.724 31.2491L245.775 31.235C245.855 31.2117 245.934 31.1883 246.009 31.1649L246.051 31.1509C246.14 31.1182 246.224 31.0855 246.299 31.0528L246.318 31.0434C247.136 30.6742 247.809 30.0151 248.211 29.1832L248.243 29.113L246.528 28.4026L246.495 28.4587C246.135 29.1224 245.467 29.5337 244.752 29.5337C244.485 29.5337 244.224 29.4776 243.981 29.3701C243.373 29.0289 243.046 28.627 242.938 28.0754H248.36L248.365 28.01C248.421 27.3977 248.5 25.3037 246.986 24.1726Z" fill="#2D2D2D"/>
<path d="M238.591 27.4399L238.559 27.5007C237.951 28.6318 236.909 29.3048 235.782 29.3048C233.969 29.3048 232.492 27.5661 232.492 25.4301C232.492 23.2941 233.969 21.5554 235.782 21.5554C237.114 21.5554 238.306 22.4902 238.82 23.9391L238.844 24.0092L240.737 23.2053L240.713 23.1399C239.877 20.9244 237.937 19.4941 235.778 19.4941C232.828 19.4941 230.431 22.1583 230.431 25.4254C230.431 28.6972 232.828 31.3614 235.778 31.3614C237.666 31.3614 239.428 30.2396 240.386 28.4308H240.391L240.447 28.314H240.442L240.447 28.3046L238.591 27.4399Z" fill="#2D2D2D"/>
<path d="M251.885 25.818C252.249 25.5282 252.689 25.3693 253.151 25.3693C253.909 25.3693 254.61 25.7993 254.979 26.4957C255.147 26.8135 255.236 27.1734 255.236 27.5427C255.236 27.5707 255.231 27.5988 255.231 27.6268L255.227 27.6782C255.194 28.2672 254.932 28.8093 254.502 29.1926C254.133 29.4824 253.698 29.6413 253.236 29.6413C252.474 29.6413 251.777 29.2113 251.408 28.5149C251.389 28.4775 251.371 28.4401 251.352 28.4027C251.216 28.1082 251.151 27.7951 251.151 27.4726C251.151 27.4445 251.156 27.4165 251.156 27.3838L251.16 27.3417C251.174 27.0706 251.24 26.8042 251.357 26.5565C251.483 26.262 251.66 26.019 251.885 25.818ZM256.942 26.2994C256.419 24.6214 255.026 23.5417 253.399 23.5417H253.357C253.352 23.5417 253.329 23.5417 253.292 23.5464C253.287 23.5464 253.278 23.5464 253.273 23.5464C253.259 23.5464 252.095 23.5558 251.357 24.3223L251.361 23.7381H249.263V35.395H251.361L251.357 30.7257C251.45 30.8378 251.534 30.908 251.539 30.9126L251.548 30.9173C252.044 31.38 252.852 31.4642 253.292 31.4688C255.362 31.4314 257.04 29.7582 257.12 27.6549C257.124 27.6034 257.124 27.552 257.124 27.5006C257.124 27.094 257.064 26.6873 256.942 26.2994Z" fill="#2D2D2D"/>
<path d="M262.457 26.3462C262.294 26.4117 262.2 26.4257 262.163 26.4304L261.826 26.435C261.747 26.435 261.681 26.435 261.677 26.435L261.523 26.4397L260.13 26.435V25.2245L262.186 25.2198C262.2 25.2198 262.28 25.2291 262.387 25.2759C262.598 25.3834 262.752 25.5984 262.752 25.7853C262.757 26.0705 262.668 26.2387 262.457 26.3462ZM262.953 28.9122C262.929 29.2348 262.663 29.4778 262.411 29.5479C262.378 29.5573 262.336 29.5666 262.28 29.5713C262.097 29.604 261.887 29.618 261.747 29.618H261.228C261.027 29.618 260.831 29.618 260.658 29.618H260.139V27.8933H260.658C260.831 27.8933 261.027 27.8933 261.228 27.8933H261.686C261.752 27.8933 262.097 27.898 262.359 27.9541L262.378 27.9588C262.392 27.9634 262.401 27.9634 262.411 27.9681C262.439 27.9728 262.462 27.9868 262.495 28.0008L262.499 27.9961L262.504 28.0008L262.523 28.0102C262.546 28.0195 262.565 28.0289 262.579 28.0429C262.794 28.1691 262.939 28.3841 262.953 28.6038V28.6271C262.953 28.6599 262.957 28.758 262.957 28.758C262.957 28.758 262.957 28.8936 262.953 28.9122ZM264.995 28.6178V28.5991C264.977 28.127 264.799 27.7344 264.463 27.3979L264.448 27.3839C264.322 27.2623 264.168 27.1408 263.99 27.0146C264.028 26.9632 264.065 26.9071 264.107 26.8463C264.463 26.5332 264.654 26.1125 264.654 25.6685C264.654 24.8132 263.794 23.9344 262.808 23.7849C262.518 23.7615 262.303 23.7568 262.2 23.7568C262.144 23.7568 262.111 23.7568 262.111 23.7568L258.115 23.7662V31.0716H260.078L261.041 31.0576H262.542C263.612 30.9828 264.551 30.3191 264.879 29.4077C264.963 29.174 265.005 28.9309 265.005 28.6832C264.995 28.6692 264.995 28.6458 264.995 28.6178Z" fill="#2D2D2D"/>
<path d="M273.296 31.0155C273.282 30.9781 273.273 30.936 273.264 30.894C273.259 30.8753 273.254 30.8613 273.254 30.8426L273.24 30.7631C273.179 30.3611 273.151 29.5806 273.142 28.9963V23.7942H271.095V27.4773C271.095 27.4773 271.095 27.5474 271.09 27.6456V27.6736C271.071 27.9587 271.006 28.4775 270.796 28.8C270.497 29.2113 270.02 29.4591 269.52 29.4591C269.473 29.4591 269.431 29.4544 269.384 29.4544C269.118 29.431 268.861 29.3375 268.636 29.188C268.337 28.9823 268.113 28.6785 268.01 28.328L268.005 28.3139C267.973 28.2205 267.94 28.0101 267.912 27.7297V27.7157C267.907 27.6549 267.902 27.6082 267.902 27.5754L267.898 27.5427C267.795 26.1218 267.898 23.9064 267.902 23.8877L267.907 23.7989H265.916V23.8736C265.921 25.1123 265.925 27.2576 265.916 27.6643C265.93 28.127 265.995 28.8047 266.21 29.417C266.327 29.6974 266.463 29.9452 266.617 30.1648C266.655 30.2116 266.692 30.2583 266.734 30.3097C266.781 30.3611 266.823 30.4079 266.865 30.45C267.113 30.707 267.407 30.9033 267.744 31.0436L267.762 31.0482C267.926 31.123 268.389 31.2959 269.08 31.2959H269.113C269.207 31.2959 269.286 31.2913 269.356 31.2866C269.403 31.2866 270.515 31.2772 271.244 30.4172C271.282 30.7631 271.347 30.9875 271.455 31.0903L271.478 31.1137H273.362L273.296 31.0155Z" fill="#2D2D2D"/>
<path d="M181.443 23.6212H183.027L183.256 23.6165L181.368 23.6072L181.443 23.6212Z" fill="#2D2D2D"/>
<path d="M222.747 31.0107L224.131 26.4068L225.514 31.0107H227.421L225.084 23.995L225.037 23.8501H223.224L223.177 23.995L220.845 31.0107H222.747Z" fill="#2D2D2D"/>
<path d="M212.015 23.822H209.87L207.444 26.2058V23.822H205.645V31.0059H207.444V28.6736L207.93 28.1268L210.295 31.0059H212.515L209.155 26.7526L212.015 23.822Z" fill="#2D2D2D"/>
<path d="M193.684 28.2857C193.665 28.3231 193.646 28.3605 193.628 28.3979C193.272 29.071 192.585 29.5243 191.8 29.5243C191.323 29.5243 190.884 29.3561 190.533 29.0756C190.117 28.7017 189.842 28.1642 189.809 27.5613C189.804 27.5192 189.804 27.4725 189.804 27.4304C189.804 27.0518 189.898 26.6966 190.061 26.3881C190.417 25.715 191.104 25.2617 191.889 25.2617C192.366 25.2617 192.805 25.4299 193.156 25.7104C193.38 25.9113 193.562 26.1591 193.688 26.4395C193.796 26.6825 193.866 26.9443 193.885 27.2247C193.88 27.2715 193.885 27.3135 193.885 27.3556C193.885 27.6921 193.815 28.0053 193.684 28.2857ZM191.767 23.6351C191.763 23.6351 191.763 23.6351 191.763 23.6351C191.763 23.6304 191.763 23.6351 191.767 23.6351ZM193.684 23.8127L193.688 24.4951C193.679 24.4858 193.674 24.4764 193.67 24.4671C192.987 23.6304 191.749 23.6211 191.749 23.6258C191.711 23.6258 191.688 23.6211 191.688 23.6211C190.024 23.6024 188.762 24.7195 188.285 26.2432C188.173 26.6031 188.112 26.991 188.112 27.3883C188.112 27.4351 188.112 27.4865 188.117 27.5332C188.192 29.5243 189.786 31.1228 191.753 31.1556C192.263 31.1462 192.978 31.0387 193.403 30.6274C193.403 30.6274 193.572 30.4872 193.693 30.2862L193.688 30.9686H195.581V27.3883V23.8034H193.684V23.8127Z" fill="#2D2D2D"/>
<path d="M217.792 28.3278C217.773 28.3652 217.755 28.4026 217.736 28.44C217.381 29.1083 216.698 29.5617 215.913 29.5617C215.436 29.5617 215.002 29.3935 214.651 29.1177C214.235 28.7484 213.964 28.2109 213.927 27.608C213.922 27.5659 213.922 27.5192 213.922 27.4771C213.922 27.0985 214.016 26.7433 214.179 26.4395C214.534 25.7711 215.217 25.3177 216.002 25.3177C216.479 25.3177 216.913 25.486 217.264 25.7618C217.488 25.9627 217.666 26.2105 217.792 26.4909C217.9 26.7293 217.97 26.9957 217.988 27.2715C217.988 27.3135 217.993 27.3603 217.993 27.4023C217.993 27.7295 217.918 28.0473 217.792 28.3278ZM217.792 23.8688L217.797 24.5512C217.787 24.5419 217.783 24.5372 217.778 24.5278C217.1 23.6959 215.866 23.6865 215.866 23.6912C215.829 23.6865 215.806 23.6865 215.806 23.6865C214.146 23.6678 212.889 24.7802 212.417 26.2993C212.305 26.6592 212.244 27.0424 212.244 27.4397C212.244 27.4865 212.244 27.5379 212.249 27.5846C212.324 29.5711 213.908 31.1556 215.871 31.1929C216.376 31.1836 217.091 31.0761 217.516 30.6695C217.516 30.6695 217.685 30.5292 217.806 30.3283L217.802 31.006H219.685V27.4397V23.8688H217.792Z" fill="#2D2D2D"/>
<path d="M184.706 28.2017C184.411 28.6878 183.902 29.0431 183.289 29.1739H181.242V25.388L182.789 25.374H183.266C183.317 25.3833 183.373 25.3927 183.425 25.4067C183.71 25.4721 183.976 25.5937 184.205 25.7526C184.64 26.0891 184.93 26.5799 184.967 27.1314C184.972 27.1688 184.977 27.2109 184.977 27.2529C184.977 27.5941 184.878 27.9213 184.706 28.2017ZM187.005 27.1454C186.958 25.9863 186.351 24.9673 185.435 24.3223C184.514 23.5558 183.13 23.5885 183.13 23.5885L182.897 23.5932H181.312H181.242V23.5792V21.3357H185.659V19.5315H179.447V19.5969V21.3029V30.9734H179.798H183.191C183.257 30.9734 183.345 30.9688 183.444 30.9641C185.037 30.8426 186.36 29.8096 186.827 28.4121C186.944 28.0569 187.01 27.6829 187.01 27.2903C187.01 27.2389 187.01 27.1922 187.005 27.1454Z" fill="#2D2D2D"/>
<path d="M204.159 30.7583C204.154 30.7396 204.149 30.7209 204.145 30.7022C204.14 30.6835 204.14 30.6648 204.135 30.6508C204.135 30.6508 204.135 30.6461 204.135 30.6414C204.131 30.6274 204.131 30.6181 204.131 30.6181C204.075 30.2254 204.042 29.4823 204.028 28.8419V27.3042V23.7192H202.56H202.135V24.5606V25.1214V25.4673V26.3413V27.3276C202.135 27.3276 202.135 27.3977 202.125 27.5052C202.125 27.5098 202.125 27.5145 202.125 27.5192V27.5239C202.107 27.8137 202.037 28.3512 201.817 28.697C201.513 29.113 201.032 29.3841 200.48 29.3841C200.434 29.3841 200.387 29.3794 200.34 29.3794C200.05 29.3561 199.784 29.2579 199.559 29.099C199.246 28.8887 199.013 28.5662 198.9 28.1969C198.9 28.1922 198.896 28.1922 198.896 28.1876C198.849 28.0567 198.816 27.7716 198.798 27.58V27.5753C198.788 27.4725 198.784 27.4023 198.784 27.4023C198.681 25.9581 198.788 23.7379 198.788 23.7379L198.732 23.7286H196.956C196.961 24.4157 196.97 27.0658 196.956 27.5145C196.97 27.9352 197.026 28.6269 197.241 29.2439C197.344 29.4869 197.47 29.7393 197.638 29.973C197.671 30.0198 197.709 30.0665 197.746 30.1086C197.797 30.16 197.839 30.2067 197.877 30.2535C198.101 30.4872 198.382 30.6882 198.727 30.8284C198.737 30.8331 198.742 30.8331 198.751 30.8377C198.891 30.9032 199.354 31.0854 200.064 31.0808C200.158 31.0761 200.237 31.0761 200.303 31.0714C200.303 31.0714 201.537 31.0901 202.252 30.0805C202.266 30.3516 202.317 30.7629 202.453 30.9032H204.196C204.182 30.8518 204.168 30.805 204.159 30.7583Z" fill="#2D2D2D"/>
<path d="M201.639 21.7796C201.396 22.0928 201.004 22.3265 200.55 22.3405C200.055 22.3592 199.606 22.1115 199.349 21.7656L198.4 22.2798C198.746 23.1117 199.611 23.6866 200.602 23.6492C201.518 23.6119 202.284 23.065 202.616 22.3031L201.639 21.7796Z" fill="#2D2D2D"/>
<path d="M240.082 36.1146C240.008 36.1847 239.914 36.2174 239.797 36.2174C239.718 36.2174 239.648 36.1987 239.601 36.1613C239.55 36.1239 239.526 36.0725 239.526 36.0118C239.526 35.8856 239.615 35.8201 239.788 35.8201H240.195V35.8435C240.195 35.9557 240.157 36.0445 240.082 36.1146ZM240.494 34.8339C240.349 34.6937 240.153 34.6236 239.9 34.6236C239.568 34.6236 239.297 34.7545 239.078 35.0115L239.344 35.3294C239.428 35.2359 239.512 35.1705 239.587 35.1331C239.662 35.091 239.751 35.0723 239.844 35.0723C239.956 35.0723 240.045 35.1003 240.106 35.1564C240.167 35.2125 240.195 35.2966 240.195 35.4042V35.4883H239.723C239.503 35.4883 239.33 35.535 239.204 35.6379C239.078 35.736 239.012 35.8716 239.012 36.0398C239.012 36.2081 239.073 36.3436 239.19 36.4465C239.307 36.5493 239.465 36.6007 239.666 36.6007C239.905 36.6007 240.096 36.5259 240.241 36.3717V36.554H240.713V35.4322C240.713 35.1704 240.639 34.9741 240.494 34.8339ZM236.638 36.3109C236.839 36.5072 237.077 36.6054 237.353 36.6007C237.535 36.6007 237.694 36.5586 237.834 36.4745C237.974 36.3904 238.087 36.2782 238.171 36.1286L237.811 35.8529C237.685 36.0351 237.53 36.1239 237.358 36.1239C237.213 36.1239 237.091 36.0725 237.002 35.9791C236.909 35.8809 236.862 35.7594 236.862 35.6051C236.862 35.4556 236.909 35.334 237.002 35.2359C237.096 35.1377 237.213 35.0863 237.358 35.0863C237.535 35.0863 237.685 35.1798 237.811 35.3621L238.171 35.0816C237.993 34.7732 237.722 34.6142 237.348 34.6142C237.068 34.6142 236.825 34.7077 236.633 34.8994C236.437 35.091 236.339 35.3247 236.339 35.5958C236.339 35.8762 236.437 36.1099 236.638 36.3109ZM234.516 35.5537C234.436 35.5537 234.371 35.5303 234.319 35.4883C234.273 35.4462 234.245 35.3901 234.245 35.32C234.245 35.2499 234.268 35.1985 234.319 35.1564C234.366 35.1144 234.432 35.0957 234.516 35.0957H234.838V35.5537H234.516ZM233.936 34.8386C233.796 34.9554 233.726 35.1144 233.726 35.3153C233.726 35.4509 233.763 35.5677 233.829 35.6706C233.899 35.7734 233.997 35.8482 234.123 35.8996L233.59 36.554H234.17L234.637 35.9744H234.838V36.554H235.348V34.6657H234.492C234.263 34.661 234.076 34.7217 233.936 34.8386ZM231.828 36.1193C231.688 36.1193 231.566 36.0725 231.478 35.9744C231.384 35.8762 231.342 35.7547 231.342 35.6098C231.342 35.4602 231.389 35.334 231.478 35.2359C231.571 35.1377 231.688 35.0863 231.828 35.0863C231.968 35.0863 232.085 35.1377 232.179 35.2359C232.272 35.334 232.319 35.4602 232.319 35.6051C232.319 35.75 232.272 35.8762 232.179 35.9697C232.085 36.0725 231.968 36.1193 231.828 36.1193ZM231.108 36.3062C231.309 36.5025 231.548 36.6007 231.824 36.596C232.099 36.6007 232.342 36.5072 232.543 36.3062C232.744 36.1099 232.847 35.8762 232.842 35.6051C232.847 35.334 232.749 35.1003 232.548 34.9087C232.347 34.7124 232.104 34.6189 231.828 34.6236C231.552 34.6189 231.314 34.7124 231.113 34.9087C230.912 35.105 230.814 35.3387 230.819 35.6051C230.809 35.8762 230.907 36.1099 231.108 36.3062ZM228.641 36.5493V35.0957H229.314V36.5493H229.828V34.661H228.131V36.5493H228.641ZM224.308 35.1377C224.387 35.0676 224.485 35.0349 224.593 35.0349C224.705 35.0349 224.803 35.0723 224.883 35.1424C224.962 35.2125 224.999 35.306 225.004 35.4182H224.144C224.172 35.3013 224.228 35.2078 224.308 35.1377ZM225.504 35.4976C225.504 35.2499 225.42 35.0396 225.257 34.8713C225.088 34.7031 224.878 34.6189 224.616 34.6189C224.345 34.6142 224.111 34.7077 223.915 34.904C223.719 35.1003 223.625 35.334 223.63 35.6051C223.625 35.8809 223.723 36.1146 223.924 36.3109C224.125 36.5072 224.373 36.6007 224.663 36.596C224.939 36.596 225.191 36.5025 225.42 36.3156L225.2 35.965C225.037 36.0912 224.859 36.1567 224.672 36.1567C224.537 36.1567 224.42 36.1239 224.326 36.0585C224.233 35.9931 224.172 35.8996 224.139 35.7827H225.462C225.49 35.6846 225.504 35.5911 225.504 35.4976ZM220.784 35.6425H221.111C221.195 35.6425 221.265 35.6659 221.316 35.708C221.368 35.75 221.391 35.8108 221.391 35.8856C221.391 36.0398 221.298 36.1193 221.111 36.1193H220.784V35.6425ZM222.639 34.661H222.13V36.5493H222.639V34.661ZM221.125 36.5493C221.349 36.5493 221.541 36.4885 221.69 36.3717C221.84 36.2548 221.91 36.0912 221.91 35.8762C221.91 35.6659 221.835 35.507 221.69 35.3855C221.541 35.2639 221.354 35.2078 221.125 35.2078H220.784V34.661H220.274V36.5493H221.125ZM218.535 36.1707H218.077V35.7594H218.535C218.615 35.7594 218.68 35.7781 218.727 35.8155C218.774 35.8529 218.797 35.8996 218.797 35.965C218.797 36.0305 218.774 36.0772 218.727 36.1193C218.68 36.152 218.615 36.1707 218.535 36.1707ZM218.437 35.0489C218.591 35.0489 218.666 35.105 218.666 35.2265C218.666 35.3434 218.591 35.4042 218.437 35.4042H218.077V35.0536H218.437V35.0489ZM218.979 35.5397C219.082 35.4462 219.134 35.3294 219.134 35.1938C219.134 35.0349 219.073 34.904 218.947 34.8059C218.825 34.7077 218.662 34.661 218.47 34.661H217.591V36.5493H218.596C218.792 36.5493 218.956 36.4932 219.082 36.3857C219.213 36.2782 219.274 36.138 219.274 35.9697C219.269 35.7734 219.171 35.6285 218.979 35.5397ZM215.591 36.1193C215.451 36.1193 215.329 36.0725 215.24 35.9744C215.151 35.8762 215.105 35.7547 215.105 35.6098C215.105 35.4602 215.151 35.334 215.24 35.2359C215.334 35.1377 215.451 35.0863 215.591 35.0863C215.731 35.0863 215.848 35.1377 215.941 35.2359C216.035 35.334 216.082 35.4602 216.082 35.6051C216.082 35.75 216.035 35.8762 215.941 35.9697C215.843 36.0725 215.726 36.1193 215.591 36.1193ZM214.871 36.3062C215.072 36.5025 215.31 36.6007 215.586 36.596C215.862 36.6007 216.105 36.5072 216.306 36.3062C216.507 36.1099 216.61 35.8762 216.605 35.6051C216.61 35.334 216.512 35.1003 216.311 34.9087C216.11 34.7124 215.866 34.6189 215.591 34.6236C215.315 34.6189 215.072 34.7124 214.871 34.9087C214.67 35.105 214.572 35.3387 214.576 35.6051C214.572 35.8762 214.67 36.1099 214.871 36.3062ZM212.23 36.3109C212.431 36.5072 212.669 36.6054 212.95 36.6007C213.132 36.6007 213.291 36.5586 213.431 36.4745C213.572 36.3904 213.684 36.2782 213.768 36.1286L213.408 35.8529C213.282 36.0351 213.128 36.1239 212.955 36.1239C212.81 36.1239 212.688 36.0725 212.599 35.9791C212.506 35.8809 212.459 35.7594 212.459 35.6051C212.459 35.4556 212.506 35.334 212.599 35.2359C212.693 35.1377 212.81 35.0863 212.955 35.0863C213.132 35.0863 213.282 35.1798 213.408 35.3621L213.768 35.0816C213.59 34.7732 213.319 34.6142 212.945 34.6142C212.665 34.6142 212.422 34.7077 212.225 34.8994C212.029 35.091 211.931 35.3247 211.931 35.5958C211.931 35.8762 212.029 36.1099 212.23 36.3109ZM210.347 36.1146C210.272 36.1847 210.178 36.2174 210.061 36.2174C209.982 36.2174 209.917 36.1987 209.865 36.1613C209.814 36.1239 209.79 36.0725 209.79 36.0118C209.79 35.8856 209.879 35.8201 210.052 35.8201H210.454V35.8435C210.459 35.9557 210.421 36.0445 210.347 36.1146ZM210.758 34.8339C210.613 34.6937 210.417 34.6236 210.164 34.6236C209.832 34.6236 209.557 34.7545 209.342 35.0115L209.608 35.3294C209.692 35.2359 209.776 35.1705 209.851 35.1331C209.926 35.091 210.015 35.0723 210.108 35.0723C210.22 35.0723 210.309 35.1003 210.37 35.1564C210.431 35.2125 210.459 35.2966 210.459 35.4042V35.4883H209.987C209.767 35.4883 209.594 35.535 209.463 35.6379C209.337 35.736 209.271 35.8716 209.271 36.0398C209.271 36.2081 209.332 36.3436 209.449 36.4465C209.566 36.5493 209.725 36.6007 209.926 36.6007C210.164 36.6007 210.356 36.5259 210.501 36.3717V36.554H210.973V35.4322C210.973 35.1704 210.903 34.9741 210.758 34.8339ZM207.78 35.4415C207.696 35.4743 207.598 35.493 207.477 35.493C207.229 35.493 207.107 35.3574 207.107 35.091V34.6657H206.598V35.1331C206.598 35.3901 206.668 35.5958 206.804 35.736C206.939 35.8809 207.131 35.951 207.374 35.951C207.547 35.951 207.682 35.9323 207.78 35.8902V36.554H208.295V34.6657H207.78V35.4415ZM203.13 35.5537C203.05 35.5537 202.985 35.5303 202.934 35.4883C202.887 35.4462 202.859 35.3901 202.859 35.32C202.859 35.2499 202.882 35.1985 202.934 35.1564C202.98 35.1144 203.046 35.0957 203.13 35.0957H203.452V35.5537H203.13ZM202.55 34.8386C202.41 34.9554 202.34 35.1144 202.34 35.3153C202.34 35.4509 202.377 35.5677 202.443 35.6706C202.513 35.7734 202.611 35.8482 202.737 35.8996L202.204 36.554H202.784L203.251 35.9744H203.452V36.554H203.962V34.6657H203.107C202.877 34.661 202.691 34.7217 202.55 34.8386ZM200.442 35.5537C200.363 35.5537 200.297 35.5303 200.246 35.4883C200.199 35.4462 200.171 35.3901 200.171 35.32C200.171 35.2499 200.195 35.1985 200.246 35.1564C200.293 35.1144 200.358 35.0957 200.442 35.0957H200.765V35.5537H200.442ZM199.863 34.8386C199.723 34.9554 199.652 35.1144 199.652 35.3153C199.652 35.4509 199.685 35.5677 199.755 35.6706C199.825 35.7734 199.924 35.8482 200.05 35.8996L199.517 36.554H200.096L200.564 35.9744H200.765V36.554H201.274V34.6657H200.419C200.19 34.661 200.003 34.7217 199.863 34.8386ZM197.376 36.5493V35.7921H198.073V36.5493H198.582V34.661H198.073V35.3527H197.376V34.661H196.867V36.5493H197.376ZM194.534 35.6939V34.6657H194.025V36.6007H194.193L195.245 35.5303V36.554H195.759V34.6236H195.591L194.534 35.6939ZM191.688 35.2078L191.693 35.0957H192.235V36.1146H191.515C191.618 35.9089 191.679 35.6051 191.688 35.2078ZM192.749 34.661H191.239L191.225 35.1284C191.216 35.4042 191.192 35.6192 191.16 35.7734C191.127 35.9276 191.071 36.0398 190.992 36.1146H190.791V37.0868H191.281V36.5493H192.571V37.0868H193.062V36.1146H192.749V34.661ZM188.902 35.1377C188.982 35.0676 189.08 35.0349 189.187 35.0349C189.3 35.0349 189.398 35.0723 189.477 35.1424C189.557 35.2125 189.594 35.306 189.599 35.4182H188.739C188.762 35.3013 188.818 35.2078 188.902 35.1377ZM190.094 35.4976C190.094 35.2499 190.01 35.0396 189.842 34.8713C189.673 34.7031 189.463 34.6189 189.201 34.6189C188.93 34.6142 188.697 34.7077 188.5 34.904C188.304 35.1003 188.21 35.334 188.215 35.6051C188.21 35.8809 188.309 36.1146 188.51 36.3109C188.711 36.5072 188.958 36.6007 189.248 36.596C189.524 36.596 189.776 36.5025 190.005 36.3156L189.79 35.965C189.627 36.0912 189.449 36.1567 189.262 36.1567C189.127 36.1567 189.01 36.1239 188.916 36.0585C188.823 35.9931 188.762 35.8996 188.729 35.7827H190.052C190.085 35.6846 190.094 35.5911 190.094 35.4976ZM186.219 35.6425H186.547C186.631 35.6425 186.696 35.6659 186.748 35.708C186.799 35.75 186.822 35.8108 186.822 35.8856C186.822 35.9604 186.799 36.0211 186.748 36.0585C186.696 36.0959 186.631 36.1193 186.542 36.1193H186.215V35.6425H186.219ZM186.565 36.5493C186.79 36.5493 186.981 36.4885 187.131 36.3717C187.28 36.2501 187.35 36.0866 187.35 35.8762C187.35 35.6659 187.276 35.507 187.131 35.3855C186.981 35.2639 186.79 35.2078 186.565 35.2078H186.219V34.661H185.252V35.0957H185.71V36.5493H186.565ZM183.812 35.9837C183.719 36.0772 183.607 36.1239 183.471 36.1239C183.336 36.1239 183.223 36.0772 183.125 35.9837C183.032 35.8902 182.99 35.7734 182.99 35.6379C182.99 35.5023 183.036 35.3901 183.125 35.2966C183.219 35.2032 183.336 35.1564 183.471 35.1564C183.607 35.1564 183.723 35.2032 183.812 35.2966C183.906 35.3901 183.952 35.5023 183.952 35.6379C183.952 35.7734 183.906 35.8902 183.812 35.9837ZM184.224 34.9601C184.055 34.7778 183.845 34.689 183.593 34.689C183.303 34.689 183.083 34.7965 182.929 35.0115C182.934 34.8713 182.948 34.7591 182.971 34.675C182.994 34.5909 183.036 34.5161 183.097 34.446C183.158 34.3805 183.237 34.3245 183.34 34.2917C183.443 34.2543 183.579 34.2263 183.747 34.2076C184.032 34.1796 184.219 34.1468 184.312 34.1141V33.6467C184.21 33.6841 184.018 33.7168 183.742 33.7542C183.485 33.7869 183.27 33.8384 183.102 33.9085C182.934 33.9786 182.803 34.0767 182.709 34.1983C182.616 34.3198 182.55 34.4553 182.513 34.6096C182.475 34.7638 182.457 34.9508 182.457 35.1798V35.4649C182.457 35.8014 182.55 36.0772 182.737 36.2829C182.924 36.4885 183.167 36.5913 183.476 36.5913C183.766 36.5913 184.004 36.5025 184.196 36.3203C184.387 36.138 184.481 35.9136 184.481 35.6379C184.481 35.3714 184.397 35.1424 184.224 34.9601ZM180.54 36.1193C180.4 36.1193 180.283 36.0725 180.19 35.9744C180.096 35.8762 180.054 35.7547 180.054 35.6098C180.054 35.4602 180.101 35.334 180.19 35.2359C180.283 35.1377 180.4 35.0863 180.54 35.0863C180.681 35.0863 180.798 35.1377 180.891 35.2359C180.984 35.334 181.031 35.4602 181.031 35.6051C181.031 35.75 180.984 35.8762 180.891 35.9697C180.793 36.0725 180.676 36.1193 180.54 36.1193ZM179.821 36.3062C180.022 36.5025 180.26 36.6007 180.536 36.596C180.812 36.6007 181.055 36.5072 181.256 36.3062C181.461 36.1099 181.559 35.8762 181.555 35.6051C181.559 35.334 181.461 35.1003 181.26 34.9087C181.059 34.7124 180.816 34.6189 180.54 34.6236C180.265 34.6189 180.026 34.7124 179.825 34.9087C179.624 35.105 179.526 35.3387 179.531 35.6051C179.522 35.8762 179.62 36.1099 179.821 36.3062Z" fill="#2D2D2D"/>
<path d="M172.553 36.5492H161.807C161.457 36.5492 161.167 36.2641 161.167 35.9089C161.167 35.5537 161.452 35.2686 161.807 35.2686H172.553C172.908 35.2686 173.193 35.5537 173.193 35.9089C173.193 36.2641 172.908 36.5492 172.553 36.5492Z" fill="#2D2D2D"/>
<path d="M173.202 20.3913C173.202 20.5642 173.062 20.7091 172.885 20.7091H172.235C172.062 20.7091 171.917 20.5689 171.917 20.3913V19.7416C171.917 19.5687 172.057 19.4285 172.235 19.4285H172.885C173.057 19.4285 173.202 19.5687 173.202 19.7416V20.3913Z" fill="#2D2D2D"/>
<path d="M162.443 20.3959C162.443 20.5689 162.303 20.7091 162.13 20.7091H161.48C161.307 20.7091 161.167 20.5689 161.167 20.3959V19.7463C161.167 19.5733 161.307 19.4331 161.48 19.4331H162.125C162.298 19.4331 162.438 19.5733 162.438 19.7463V20.3959H162.443Z" fill="#2D2D2D"/>
<path d="M161.807 29.6693C161.452 29.6693 161.167 29.3841 161.167 29.0289V21.831C161.167 21.4804 161.452 21.1953 161.803 21.1953C162.153 21.1953 162.443 21.4804 162.443 21.831V29.0336C162.443 29.3841 162.158 29.6693 161.807 29.6693Z" fill="#2D2D2D"/>
<path d="M172.562 29.6693C172.212 29.6693 171.922 29.3841 171.922 29.0289V21.831C171.922 21.4804 172.207 21.1953 172.562 21.1953C172.913 21.1953 173.198 21.4804 173.198 21.831V29.0336C173.203 29.3841 172.917 29.6693 172.562 29.6693Z" fill="#2D2D2D"/>
<path d="M170.781 20.7091H163.579C163.228 20.7091 162.938 20.424 162.938 20.0734C162.938 19.7229 163.224 19.4331 163.579 19.4331H170.781C171.132 19.4331 171.422 19.7182 171.422 20.0734C171.417 20.424 171.132 20.7091 170.781 20.7091Z" fill="#2D2D2D"/>
<path d="M173.203 30.4731C173.203 30.3001 173.063 30.1599 172.89 30.1599H172.245C172.072 30.1599 171.932 30.3001 171.932 30.4731V31.1181C171.932 31.291 172.072 31.4312 172.245 31.4312H172.89C173.063 31.4312 173.203 31.291 173.203 31.1181V30.4731Z" fill="#2D2D2D"/>
<path d="M162.448 30.4638C162.448 30.2909 162.307 30.146 162.135 30.146H161.485C161.307 30.1507 161.167 30.2909 161.167 30.4638V31.1135C161.167 31.2865 161.307 31.4267 161.485 31.4267H162.135C162.307 31.4267 162.448 31.2865 162.448 31.1135V30.4638Z" fill="#2D2D2D"/>
<path d="M170.781 30.1553H163.579C163.228 30.1553 162.938 30.4404 162.938 30.7909C162.938 31.1415 163.224 31.4313 163.579 31.4313H170.781C171.132 31.4313 171.422 31.1462 171.422 30.7909C171.417 30.4404 171.132 30.1553 170.781 30.1553Z" fill="#2D2D2D"/>
<path d="M170.819 29.6365C170.669 29.6365 170.52 29.5804 170.403 29.4636L163.125 22.2048C162.887 21.9711 162.887 21.5832 163.116 21.3448C163.345 21.1065 163.724 21.1018 163.962 21.3355L171.239 28.5895C171.473 28.8232 171.478 29.2112 171.249 29.4495C171.132 29.5757 170.973 29.6365 170.819 29.6365Z" fill="#2D2D2D"/>
<path d="M163.546 29.6365C163.392 29.6365 163.233 29.5757 163.121 29.4542C162.887 29.2111 162.892 28.8279 163.13 28.5942L170.407 21.3401C170.646 21.1064 171.024 21.1111 171.253 21.3495C171.482 21.5878 171.482 21.9758 171.244 22.2095L163.962 29.4588C163.845 29.5757 163.696 29.6365 163.546 29.6365Z" fill="#2D2D2D"/>
</g>
<g clip-path="url(#clip1_43_770)">
<path d="M363.363 31.5484L371.372 33.1222L371.994 32.023L364.875 28.875L363.363 31.5484ZM367.073 24.9887L373.303 29.7126L373.925 28.6129L368.586 22.3148L367.074 24.9887H367.073ZM365.212 28.2807L372.332 31.4297L372.966 30.3064L366.736 25.583L365.212 28.2807ZM370.622 18.7144L368.941 21.6909L374.28 27.9899L375.072 26.5937L370.622 18.7144ZM361.333 35.1429H370.232L371.023 33.7466L363.014 32.1729L361.333 35.1429ZM375.455 31.4653L377.537 35.1429H379.904L375.455 27.2705L371.005 35.1429H373.373L375.455 31.4653Z" fill="#2D2D2D"/>
<path d="M394.975 34.7725H398.428L399.221 33.4232H394.975L394.975 34.7725ZM394.975 31.026V32.3753H399.849L400.66 31.026H394.975ZM468.157 32.6259V28.6406H466.629V34.7725H467.909L471.586 30.7588V34.7725H473.114V28.6406H471.764L468.157 32.6259ZM403.959 28.6406L400.299 34.7725H402.099L404.51 30.7242L406.937 34.7725H408.833L405.173 28.6406H403.959ZM392.962 33.4227L389.303 27.2856H388.053L384.393 33.4227H383.476V36.5714H384.932V34.772H392.423V36.5714H393.88V33.4227H392.962ZM386.217 33.4227L388.627 29.3692L391.055 33.4227H386.217ZM442.906 28.6406H435.794V29.9899H442.089L442.906 28.6406ZM402.081 28.6406H394.975V29.9899H401.27L402.081 28.6406ZM479.983 28.6406L476.376 32.6259V28.6406H474.848V34.7725H476.133L479.805 30.7588V34.7725H481.333V28.6406H479.983ZM463.366 31.026H460.02V28.6406H458.492V34.7725H460.02V32.3753H463.366V34.7725H464.894V28.6406H463.366V31.026ZM444.778 28.6406L441.118 34.7725H442.924L445.335 30.7242L447.762 34.7725H449.652L445.992 28.6406H444.778ZM429.677 30.8389H427.356V28.6354H425.828V34.7725H429.665C430.701 34.7725 431.779 34.2206 431.779 32.7742C431.773 30.873 430.387 30.8389 429.677 30.8389ZM429.588 33.4749H427.35V32.1085H429.588C429.848 32.1085 430.245 32.1768 430.245 32.7917C430.245 33.3607 429.92 33.4749 429.588 33.4749ZM434.065 28.6406H432.555V34.7782H434.065V28.6406ZM412.682 28.4923C410.129 28.4923 408.922 29.9956 408.922 31.675C408.922 33.4284 410.1 34.8573 412.682 34.8573C413.807 34.8573 416.412 34.3565 416.412 31.675C416.412 29.9217 415.246 28.4923 412.682 28.4923ZM412.664 33.508C411.19 33.508 410.568 32.6941 410.568 31.6921C410.568 30.593 411.278 29.8586 412.664 29.8586C414.227 29.8586 414.76 30.593 414.76 31.6921C414.76 33.0073 413.736 33.508 412.664 33.508ZM435.794 34.7725H439.247L440.046 33.4232H435.794V34.7725ZM435.794 31.026V32.3753H440.668L441.485 31.026H435.794ZM451.801 32.5918V28.6406H450.273V34.7725H451.559L455.236 30.7929V34.7725H456.764V28.6406H455.479L451.801 32.5918ZM423.08 31.1572C423.483 30.9919 423.826 30.7247 423.826 30.0581C423.826 28.7884 422.719 28.6406 421.937 28.6406H417.81V34.7782H422.008C423.933 34.7782 424.33 33.7591 424.33 32.8253C424.335 31.7722 423.714 31.3391 423.08 31.1572ZM419.32 29.9387H421.765C422.132 29.9387 422.286 30.1211 422.286 30.4741C422.286 30.8384 422.044 31.026 421.765 31.026H419.32V29.9387ZM422.008 33.4744H419.32V32.1592H422.008C422.44 32.1592 422.755 32.2616 422.755 32.8083C422.755 33.2408 422.565 33.4744 422.008 33.4744Z" fill="#2D2D2D"/>
</g>
<g clip-path="url(#clip2_43_770)">
<path d="M603.694 34.7299C602.467 35.0561 600.869 35.2174 599.479 35.2174C595.912 35.2174 593.55 33.3115 593.55 29.823C593.55 26.5214 595.75 24.3827 598.97 24.3827C599.687 24.3827 600.451 24.4744 600.915 24.7078V19.9153H603.694L603.694 34.7299ZM600.915 27.1723C600.475 26.9631 599.896 26.8468 599.2 26.8468C597.51 26.8468 596.375 27.8937 596.375 29.7304C596.375 31.7074 597.602 32.824 599.571 32.824C599.919 32.824 600.451 32.8 600.915 32.7076V27.1723ZM626.5 34.7299C625.272 35.0561 623.674 35.2174 622.284 35.2174C618.718 35.2174 616.355 33.3115 616.355 29.823C616.355 26.5214 618.556 24.3827 621.775 24.3827C622.493 24.3827 623.258 24.4744 623.721 24.7078V19.9153H626.5V34.7299H626.5ZM623.721 27.1723C623.28 26.9631 622.701 26.8468 622.007 26.8468C620.316 26.8468 619.181 27.8937 619.181 29.7304C619.181 31.7074 620.409 32.824 622.377 32.824C622.724 32.824 623.258 32.8 623.721 32.7076V27.1723ZM608.065 27.1494C608.528 26.963 609.175 26.8939 609.731 26.8939C611.445 26.8939 612.627 27.8935 612.627 29.6834C612.627 31.795 611.318 32.7499 609.569 32.7745V35.216C609.615 35.216 609.661 35.2176 609.709 35.2176C613.298 35.2176 615.453 33.1953 615.453 29.5909C615.453 26.312 613.16 24.3827 609.778 24.3827C608.065 24.3827 606.373 24.7781 605.262 25.2427V39.1727H608.065L608.065 27.1494Z" fill="#2D2D2D"/>
<path d="M578.465 26.4655C578.35 26.5328 578.17 26.5275 578.058 26.4578L577.397 26.0635C577.343 26.0301 577.294 25.9765 577.257 25.9121C577.254 25.9084 577.252 25.9046 577.25 25.9008C577.208 25.8317 577.184 25.7588 577.181 25.6919L577.165 24.9185C577.16 24.7882 577.245 24.6293 577.361 24.5617L585.304 19.9156L574.157 13.816C574.035 13.7477 573.873 13.7146 573.711 13.7144C573.549 13.7141 573.386 13.748 573.264 13.816L562.117 19.9157L574.604 27.2142C574.72 27.2778 574.808 27.4286 574.808 27.5647V38.2119C574.808 38.3456 574.712 38.4992 574.596 38.5617L573.924 38.9364C573.868 38.9661 573.797 38.9821 573.723 38.9821C573.719 38.9821 573.714 38.9821 573.71 38.9821C573.629 38.984 573.554 38.9681 573.496 38.9364L572.821 38.5615C572.707 38.5004 572.613 38.346 572.613 38.2119L572.613 28.7205C572.607 28.6509 572.557 28.5661 572.501 28.5341L561.5 22.1042V34.6985C561.5 34.9803 561.698 35.328 561.94 35.4705L573.27 42.1796C573.392 42.2509 573.551 42.2864 573.711 42.2858C573.87 42.2853 574.03 42.2519 574.15 42.1797L585.482 35.4705C585.724 35.3266 585.921 34.9808 585.921 34.6985V22.1044L578.465 26.4655Z" fill="#2D2D2D"/>
</g>
<g clip-path="url(#clip3_43_770)">
<path d="M706.667 22.0709C711.322 17.3465 718.385 19.3846 720.419 24.806H717.228C715.394 21.9796 711.247 21.1798 708.401 24.3909L706.667 22.0709ZM708.782 30.9288H717.072C717.519 30.1929 717.802 29.3193 717.849 28.3419H710.741L708.782 30.9288ZM720.84 30.9288H721.613L723.444 28.3419H721.287C721.261 29.221 721.111 30.0921 720.839 30.9288H720.84ZM708.782 25.1113H721.614L723.444 27.6988H710.741L708.782 25.1113ZM720.987 28.0036V28.0166C720.987 35.7161 711.994 39.4201 706.671 33.9444L708.377 31.6433C712.006 35.8428 718.161 33.2065 718.161 28.0491C718.161 28.0341 718.161 28.0191 718.16 28.0041L720.987 28.0036Z" fill="#2D2D2D"/>
<path d="M729.498 30.2154C730.078 30.2154 730.52 30.0658 730.824 29.7664C731.127 29.467 731.326 29.023 731.418 28.4338H728.697C728.595 28.4338 728.522 28.4228 728.476 28.3988C728.43 28.3759 728.406 28.305 728.406 28.1828V26.6681C728.406 26.5453 728.427 26.4695 728.469 26.4376C728.51 26.4051 728.586 26.3892 728.697 26.3892H731.39C731.343 26.1058 731.266 25.8688 731.155 25.6782C731.054 25.4961 730.915 25.3375 730.748 25.2127C730.585 25.0929 730.399 25.0069 730.202 24.9597C729.999 24.9089 729.79 24.8834 729.58 24.8839C729.415 24.8839 729.263 24.8879 729.125 24.8979C728.986 24.9068 728.851 24.9248 728.717 24.9527C728.584 24.9807 728.446 25.0146 728.303 25.0565C728.16 25.0979 727.996 25.1463 727.813 25.2012C727.647 25.2566 727.534 25.2681 727.474 25.2361C727.414 25.2037 727.352 25.1004 727.288 24.9248L726.859 23.7922C726.828 23.7184 726.803 23.6423 726.783 23.5647C726.769 23.5049 726.766 23.454 726.769 23.413C726.775 23.3711 726.797 23.3372 726.839 23.3093C726.88 23.2813 726.938 23.2444 727.011 23.1985C727.427 22.9831 727.871 22.8274 728.33 22.736C728.805 22.6392 729.309 22.5908 729.843 22.5908C730.543 22.5908 731.167 22.6991 731.714 22.9151C732.263 23.1317 732.723 23.445 733.096 23.8546C733.469 24.2637 733.752 24.7641 733.945 25.3534C734.139 25.9421 734.235 26.6107 734.235 27.3561C734.235 28.0746 734.155 28.7491 733.994 29.3792C733.832 30.0099 733.575 30.5602 733.221 31.0297C732.866 31.4997 732.403 31.8698 731.832 32.1418C731.261 32.4132 730.566 32.5494 729.746 32.5494C729.148 32.5494 728.566 32.4866 727.999 32.3629C727.433 32.2381 726.873 32.0106 726.321 31.6793C726.219 31.6234 726.164 31.5596 726.155 31.4857C726.145 31.4124 726.173 31.3061 726.238 31.1678L726.832 29.9255C726.896 29.7684 726.959 29.6811 727.018 29.6621C727.078 29.6441 727.177 29.6621 727.315 29.718C727.61 29.8282 727.93 29.939 728.275 30.0488C728.621 30.1596 729.028 30.2149 729.498 30.2149V30.2154ZM744.318 32.1074C744.318 32.2182 744.302 32.294 744.27 32.3359C744.238 32.3768 744.144 32.3977 743.987 32.3977H742.026C741.814 32.3977 741.708 32.301 741.708 32.1074V28.4617H738.642V32.1074C738.642 32.2182 738.626 32.294 738.593 32.3359C738.561 32.3768 738.466 32.3977 738.31 32.3977H736.349C736.137 32.3977 736.031 32.301 736.031 32.1074V23.0199C736.031 22.8263 736.137 22.7295 736.349 22.7295H738.31C738.466 22.7295 738.561 22.7505 738.593 22.7914C738.626 22.8333 738.642 22.9091 738.642 23.0199V26.2789H741.708V23.0199C741.708 22.8263 741.814 22.7295 742.026 22.7295H743.987C744.144 22.7295 744.238 22.7505 744.27 22.7914C744.302 22.8333 744.318 22.9091 744.318 23.0199V32.1074ZM753.601 32.0805C753.601 32.292 753.513 32.3977 753.338 32.3977H749.069C748.518 32.3977 748.069 32.3195 747.723 32.1632C747.378 32.0066 747.106 31.8015 746.909 31.548C746.712 31.2983 746.573 31.0084 746.501 30.6989C746.428 30.3957 746.391 30.0851 746.391 29.7734V25.3539C746.391 25.0221 746.436 24.6978 746.529 24.38C746.621 24.0622 746.77 23.7813 746.978 23.5378C747.185 23.2933 747.459 23.0977 747.8 22.951C748.14 22.8034 748.554 22.7295 749.043 22.7295H753.117C753.228 22.7295 753.299 22.7455 753.331 22.7774C753.364 22.8103 753.38 22.9041 753.38 23.0618V24.6215C753.38 24.7417 753.361 24.822 753.325 24.8634C753.288 24.9044 753.218 24.9253 753.117 24.9253H749.83C749.645 24.9253 749.498 24.9512 749.388 25.0021C749.277 25.052 749.194 25.1144 749.139 25.1882C749.084 25.2614 749.046 25.3464 749.029 25.4367C749.01 25.5275 749.001 25.6199 749.001 25.7126V26.2929H752.703C752.813 26.2929 752.884 26.3118 752.917 26.3487C752.949 26.3852 752.965 26.482 752.965 26.6381V28.075C752.965 28.2861 752.877 28.3929 752.703 28.3929H749.001V29.4282C749.001 29.6028 749.022 29.7414 749.062 29.8427C749.104 29.9435 749.162 30.0194 749.236 30.0702C749.31 30.1211 749.397 30.1531 749.498 30.1671C749.608 30.1816 749.719 30.1886 749.83 30.188H753.338C753.448 30.188 753.52 30.204 753.552 30.2364C753.585 30.2683 753.601 30.3631 753.601 30.5197V32.0805ZM757.73 32.1214C757.73 32.2321 757.714 32.306 757.683 32.3424C757.65 32.3793 757.556 32.3972 757.399 32.3972H755.438C755.226 32.3972 755.12 32.306 755.12 32.1214V23.6416C755.12 23.3921 755.175 23.1781 755.286 22.9989C755.396 22.8193 755.64 22.7295 756.018 22.7295H759.526C760.07 22.7295 760.55 22.8074 760.97 22.9645C761.389 23.1212 761.741 23.3397 762.026 23.6206C762.31 23.8999 762.532 24.2367 762.675 24.6085C762.823 24.9852 762.896 25.3948 762.896 25.8373C762.896 25.9845 762.883 26.1681 762.855 26.3897C762.827 26.6107 762.77 26.8412 762.682 27.0802C762.594 27.3197 762.468 27.5616 762.302 27.8056C762.137 28.0491 761.913 28.2681 761.632 28.4617C761.351 28.6548 761.002 28.8109 760.583 28.9307C760.164 29.0504 759.664 29.1103 759.084 29.1103H757.73V32.1214ZM760.203 26.017C760.203 25.9252 760.189 25.8164 760.161 25.6922C760.135 25.5712 760.086 25.4564 760.017 25.3539C759.939 25.2448 759.838 25.1551 759.72 25.0914C759.59 25.0181 759.425 24.9812 759.222 24.9812H757.73V27.0667H759.222C759.544 27.0667 759.789 26.9584 759.954 26.7424C760.119 26.5254 760.203 26.2834 760.203 26.017ZM766.957 32.1214C766.957 32.2321 766.941 32.306 766.908 32.3424C766.876 32.3793 766.782 32.3972 766.625 32.3972H764.664C764.452 32.3972 764.346 32.306 764.346 32.1214V25.3539C764.346 25.0221 764.392 24.6978 764.484 24.38C764.576 24.0622 764.726 23.7813 764.933 23.5378C765.14 23.2933 765.414 23.0977 765.755 22.951C766.096 22.8034 766.51 22.7295 766.999 22.7295H771.197C771.308 22.7295 771.379 22.7455 771.411 22.7774C771.443 22.8103 771.46 22.9041 771.46 23.0618V24.6215C771.46 24.7417 771.441 24.822 771.404 24.8634C771.368 24.9044 771.299 24.9253 771.197 24.9253H767.785C767.601 24.9253 767.454 24.9512 767.343 25.0021C767.233 25.052 767.15 25.1144 767.095 25.1882C767.039 25.2614 767.002 25.3465 766.985 25.4367C766.966 25.5275 766.957 25.6199 766.957 25.7126V32.1214ZM778.532 26.8871L777.288 28.9312L775.41 31.7766C775.334 31.8922 775.251 32.0027 775.161 32.1074C775.095 32.184 775.016 32.2473 774.927 32.294C774.844 32.3359 774.747 32.3638 774.637 32.3768C774.526 32.3907 774.392 32.3977 774.236 32.3977H773.587C773.173 32.3977 772.9 32.294 772.772 32.0864C772.643 31.8798 772.578 31.6199 772.578 31.3071V23.0199C772.578 22.8263 772.684 22.7295 772.896 22.7295H774.788C774.945 22.7295 775.039 22.7505 775.071 22.7914C775.104 22.8333 775.12 22.9091 775.12 23.0199V28.2686H775.216L776.432 26.3617L778.338 23.3517C778.43 23.204 778.513 23.0887 778.586 23.0059C778.66 22.9231 778.738 22.8612 778.822 22.8193C778.905 22.7774 779.002 22.7525 779.112 22.7435C779.222 22.7345 779.355 22.7295 779.512 22.7295H780.162C780.548 22.7295 780.812 22.8034 780.956 22.951C781.098 23.0977 781.17 23.3876 781.17 23.8212V32.1074C781.17 32.301 781.064 32.3977 780.852 32.3977H778.96C778.803 32.3977 778.708 32.3768 778.676 32.3359C778.644 32.294 778.628 32.2182 778.628 32.1074V26.8876L778.532 26.8871ZM783.38 29.4147C783.463 29.0555 783.586 28.7561 783.753 28.5166C783.918 28.2771 784.213 28.1024 784.637 27.9922V27.9642C784.351 27.8814 784.111 27.7592 783.918 27.5986C783.731 27.4445 783.574 27.2569 783.456 27.0452C783.339 26.836 783.255 26.6102 783.206 26.3757C783.156 26.1362 783.131 25.8922 783.131 25.6438C783.131 25.2017 783.2 24.8036 783.338 24.4488C783.473 24.0994 783.686 23.7855 783.96 23.5308C784.236 23.2729 784.579 23.0748 784.989 22.9371C785.398 22.7984 785.875 22.7295 786.418 22.7295H789.941C790.318 22.7295 790.562 22.8103 790.672 22.971C790.783 23.1322 790.838 23.3552 790.838 23.6416V32.1214C790.838 32.306 790.732 32.3977 790.521 32.3977H788.559C788.402 32.3977 788.308 32.3793 788.276 32.3429C788.244 32.306 788.228 32.2321 788.228 32.1214V28.6139H787.33C786.943 28.6139 786.665 28.7037 786.494 28.8833C786.324 29.0629 786.188 29.3503 786.087 29.7465L785.534 32.053C785.514 32.1314 785.474 32.2031 785.417 32.2605C785.366 32.3064 785.306 32.3403 785.237 32.3638C785.166 32.3872 785.091 32.3987 785.017 32.3982H782.868C782.758 32.3982 782.7 32.3708 782.696 32.3154C782.691 32.2605 782.703 32.1678 782.73 32.039L783.38 29.4147ZM785.824 25.7685C785.824 26.0354 785.908 26.235 786.073 26.3687C786.238 26.5024 786.432 26.5688 786.653 26.5688H788.228V24.9817H786.653C786.349 24.9817 786.135 25.0645 786.01 25.2297C785.89 25.3838 785.825 25.5732 785.824 25.7685Z" fill="#2D2D2D"/>
<path d="M727.712 34.5211H727.698C727.686 34.543 727.677 34.5656 727.669 34.589C727.653 34.6294 727.636 34.6728 727.617 34.7192L727.565 34.8509L727.539 34.9208C727.528 34.9498 727.516 34.9785 727.504 35.0071L727.444 35.1533L727.373 35.3299C727.347 35.3927 727.323 35.4511 727.299 35.5065L727.238 35.6527L727.203 35.736C727.193 35.7704 727.175 35.802 727.15 35.8278C727.131 35.8448 727.098 35.8527 727.053 35.8527H726.957C726.912 35.8527 726.879 35.8448 726.859 35.8278C726.833 35.8027 726.814 35.771 726.804 35.736C726.799 35.72 726.786 35.6911 726.768 35.6497C726.75 35.6083 726.73 35.5598 726.707 35.505L726.633 35.3299C726.609 35.2716 726.584 35.2132 726.56 35.1547C726.537 35.1003 726.517 35.0515 726.499 35.01C726.481 34.9682 726.468 34.9397 726.462 34.9238L726.312 34.55H726.295V36.0429C726.295 36.0643 726.291 36.0777 726.284 36.0837C726.276 36.0893 726.262 36.0922 726.241 36.0922H726.096C726.082 36.0933 726.067 36.0904 726.054 36.0837C726.046 36.0777 726.041 36.0643 726.041 36.0429V34.1908C726.041 34.146 726.05 34.111 726.07 34.0841C726.09 34.0576 726.128 34.0441 726.184 34.0441H726.263C726.306 34.0441 726.337 34.0521 726.361 34.0666C726.383 34.0816 726.404 34.1124 726.423 34.1614L726.826 35.1602C726.829 35.1687 726.84 35.1941 726.856 35.238L726.912 35.3813C726.932 35.4326 726.951 35.48 726.967 35.5239C726.984 35.5679 726.993 35.5938 726.998 35.6018H727.01C727.012 35.5933 727.021 35.5684 727.039 35.5255C727.077 35.4335 727.113 35.341 727.148 35.248C727.157 35.2224 727.167 35.197 727.179 35.1722L727.223 35.0625C727.244 35.009 727.268 34.9477 727.297 34.8774C727.325 34.807 727.355 34.7327 727.387 34.6538L727.477 34.4333L727.546 34.2567C727.565 34.2067 727.578 34.1754 727.584 34.1614C727.604 34.1124 727.625 34.0816 727.648 34.0666C727.678 34.0505 727.711 34.0429 727.745 34.0447H727.823C727.882 34.0447 727.92 34.0576 727.938 34.0846C727.958 34.1162 727.968 34.1534 727.966 34.1908V36.0429C727.966 36.0643 727.963 36.0777 727.955 36.0837C727.947 36.0893 727.933 36.0922 727.911 36.0922H727.767C727.747 36.0922 727.734 36.0893 727.726 36.0837C727.717 36.0777 727.712 36.0643 727.712 36.0429V34.5211ZM729.769 36.0308C729.769 36.0523 729.766 36.0678 729.759 36.0777C729.752 36.0877 729.737 36.0922 729.714 36.0922H728.901C728.806 36.0922 728.726 36.0788 728.663 36.0523C728.605 36.0285 728.553 35.9912 728.511 35.9435C728.473 35.8977 728.445 35.8436 728.431 35.7854C728.415 35.7224 728.407 35.6577 728.408 35.5928V34.5465C728.408 34.4807 728.416 34.4174 728.434 34.3555C728.45 34.2964 728.48 34.2415 728.52 34.1948C728.562 34.1476 728.615 34.1102 728.674 34.0856C728.735 34.0586 728.812 34.0447 728.901 34.0447H729.699C729.72 34.0447 729.734 34.0496 729.741 34.0596C729.748 34.069 729.751 34.0846 729.751 34.106V34.2287C729.751 34.2497 729.748 34.2652 729.741 34.2736C729.734 34.2826 729.72 34.2871 729.699 34.2871H728.905C728.822 34.2871 728.763 34.3056 728.727 34.341C728.692 34.3769 728.674 34.4333 728.674 34.5091V34.8888H729.602C729.624 34.8888 729.639 34.8938 729.644 34.9038C729.651 34.9133 729.655 34.9287 729.655 34.9502V35.0615C729.656 35.0767 729.653 35.0921 729.645 35.1054C729.639 35.1153 729.624 35.1199 729.602 35.1199H728.674V35.6287C728.674 35.6946 728.691 35.747 728.726 35.7869C728.761 35.8268 728.821 35.8468 728.905 35.8468H729.713C729.737 35.8468 729.752 35.8522 729.758 35.8618C729.766 35.8712 729.769 35.8867 729.769 35.9087V36.0308ZM730.458 34.9822C730.393 34.9503 730.339 34.9006 730.301 34.8389C730.259 34.771 730.229 34.6969 730.21 34.6194L730.084 34.0975C730.08 34.0861 730.08 34.0738 730.083 34.0621C730.086 34.0486 730.098 34.0421 730.12 34.0421H730.28C730.29 34.0421 730.3 34.0436 730.311 34.0471C730.321 34.0517 730.329 34.0621 730.333 34.0795L730.464 34.585C730.482 34.6489 730.504 34.7012 730.532 34.7397C730.553 34.7727 730.581 34.8011 730.614 34.8234C730.646 34.8456 730.683 34.8613 730.721 34.8694C730.756 34.8763 730.79 34.8798 730.824 34.8798H731.15V34.0916C731.149 34.0716 731.151 34.0596 731.158 34.0551C731.165 34.0501 731.177 34.0471 731.195 34.0471H731.367C731.383 34.0471 731.395 34.0501 731.402 34.0551C731.41 34.0601 731.414 34.0716 731.414 34.091V34.8798H731.744C731.775 34.8798 731.809 34.8763 731.843 34.8699C731.882 34.8618 731.919 34.8462 731.951 34.8239C731.984 34.8017 732.012 34.7732 732.033 34.7402C732.06 34.7012 732.083 34.6489 732.101 34.585L732.232 34.0795C732.236 34.0621 732.243 34.0517 732.254 34.0471C732.264 34.0438 732.274 34.0421 732.284 34.0421H732.448C732.469 34.0421 732.482 34.0486 732.485 34.0621C732.487 34.0736 732.487 34.0858 732.483 34.097L732.354 34.6199C732.338 34.6975 732.307 34.7716 732.266 34.8389C732.227 34.9 732.173 34.9495 732.109 34.9822V34.9971C732.154 35.01 732.196 35.0296 732.235 35.055C732.298 35.1018 732.346 35.1659 732.372 35.2396C732.386 35.2765 732.398 35.3174 732.41 35.3618L732.591 36.0403C732.595 36.0499 732.595 36.0608 732.592 36.0733C732.59 36.0858 732.576 36.0922 732.553 36.0922H732.375C732.364 36.0923 732.354 36.0905 732.344 36.0868C732.334 36.0823 732.326 36.0718 732.322 36.0548L732.144 35.4027C732.132 35.3544 732.113 35.308 732.089 35.2645C732.07 35.2306 732.043 35.2014 732.011 35.179C731.979 35.1565 731.943 35.1414 731.904 35.1348C731.86 35.1262 731.815 35.1221 731.77 35.1228H731.414V36.0483C731.414 36.0683 731.41 36.0803 731.402 36.0852C731.391 36.0907 731.379 36.0932 731.367 36.0922H731.198C731.18 36.0922 731.167 36.0903 731.159 36.0852C731.152 36.0803 731.148 36.0678 731.148 36.0483L731.15 35.1228H730.794C730.744 35.1228 730.699 35.1263 730.66 35.1343C730.623 35.1413 730.587 35.1563 730.557 35.1782C730.524 35.2012 730.497 35.2305 730.477 35.2645C730.452 35.3077 730.432 35.3543 730.42 35.4027L730.245 36.0548C730.239 36.0718 730.232 36.0823 730.222 36.0868C730.213 36.0904 730.203 36.0921 730.193 36.0917H730.015C729.991 36.0917 729.977 36.0858 729.973 36.0733C729.969 36.0626 729.969 36.0506 729.973 36.0399L730.157 35.3618C730.168 35.3204 730.181 35.2797 730.195 35.2396C730.209 35.2033 730.227 35.1689 730.25 35.1373C730.273 35.1055 730.301 35.0777 730.333 35.055C730.371 35.0294 730.414 35.0098 730.458 34.9966V34.9822ZM733.357 35.3299C733.347 35.4097 733.337 35.4765 733.326 35.5304C733.317 35.5771 733.305 35.6232 733.291 35.6686C733.28 35.7031 733.266 35.7365 733.25 35.7684C733.235 35.7953 733.22 35.8223 733.202 35.8503H734.229V34.2866H733.489L733.357 35.3299ZM732.997 36.0922L732.968 36.5278C732.966 36.5568 732.953 36.5712 732.93 36.5712H732.787C732.775 36.5712 732.767 36.5687 732.76 36.5632C732.755 36.5568 732.751 36.5447 732.749 36.5278L732.711 35.9605C732.708 35.9347 732.715 35.9088 732.731 35.8877C732.745 35.8682 732.771 35.8572 732.81 35.8527L732.904 35.8468C732.937 35.8098 732.964 35.7699 732.987 35.727C733.009 35.6846 733.028 35.6367 733.044 35.5838C733.06 35.5314 733.072 35.4725 733.084 35.4072C733.094 35.3423 733.105 35.2665 733.117 35.1812L733.237 34.2492C733.243 34.1952 733.262 34.1435 733.293 34.099C733.322 34.0626 733.37 34.0441 733.438 34.0441H734.317C734.382 34.0441 734.428 34.0596 734.457 34.0895C734.485 34.1205 734.499 34.1663 734.499 34.2293V35.8527L734.599 35.8587C734.626 35.8599 734.651 35.87 734.671 35.8877C734.691 35.9057 734.7 35.9336 734.7 35.9725L734.666 36.5278C734.663 36.5447 734.66 36.5568 734.654 36.5627C734.648 36.5687 734.639 36.5712 734.628 36.5712H734.484C734.476 36.5716 734.468 36.5687 734.461 36.5632C734.455 36.5568 734.452 36.5447 734.452 36.5278L734.435 36.0922H732.997ZM735.746 35.7944C735.719 35.8647 735.69 35.9231 735.66 35.97C735.634 36.0119 735.6 36.0482 735.559 36.0765C735.519 36.1048 735.473 36.1246 735.425 36.1346C735.371 36.146 735.316 36.1514 735.261 36.1506C735.236 36.1506 735.203 36.1491 735.161 36.1451C735.118 36.1406 735.075 36.1317 735.033 36.1187C735.013 36.1132 735.002 36.1067 734.997 36.1012C734.992 36.0957 734.992 36.0863 734.996 36.0718L735.025 35.9261C735.028 35.9111 735.034 35.9017 735.041 35.8996C735.052 35.8975 735.063 35.8975 735.074 35.8996C735.118 35.9057 735.154 35.9096 735.183 35.9126C735.211 35.9155 735.239 35.916 735.267 35.9141C735.316 35.9137 735.364 35.8999 735.406 35.8742C735.444 35.8503 735.476 35.8044 735.504 35.736L735.583 35.5314H735.536C735.509 35.5325 735.482 35.528 735.456 35.5185C735.436 35.5094 735.415 35.48 735.396 35.4291L734.832 34.0795C734.822 34.0566 734.832 34.0447 734.862 34.0447H735.066C735.085 34.0447 735.099 34.0486 735.105 34.0566C735.112 34.065 735.118 34.0748 735.121 34.0856L735.428 34.8479L735.63 35.3563H735.65L735.846 34.8275L736.129 34.079C736.135 34.0641 736.142 34.0541 736.151 34.0501C736.163 34.046 736.175 34.0442 736.188 34.0447H736.371C736.387 34.0447 736.397 34.0486 736.401 34.0566C736.405 34.0641 736.405 34.0731 736.401 34.083L735.746 35.7944ZM737.955 34.0975C737.955 34.076 737.96 34.0621 737.969 34.0566C737.977 34.0501 737.991 34.0471 738.01 34.0471H738.168C738.19 34.0471 738.204 34.0501 738.212 34.0566C738.22 34.0616 738.224 34.076 738.224 34.0975V36.0429C738.224 36.0643 738.22 36.0777 738.212 36.0837C738.204 36.0893 738.19 36.0922 738.168 36.0922H738.01C737.991 36.0922 737.977 36.0893 737.969 36.0837C737.96 36.0777 737.955 36.0643 737.955 36.0429V35.1308H736.926V36.0429C736.926 36.0643 736.923 36.0777 736.915 36.0837C736.907 36.0893 736.892 36.0922 736.871 36.0922H736.708C736.694 36.0928 736.679 36.0899 736.666 36.0837C736.656 36.0777 736.651 36.0643 736.651 36.0429V34.097C736.651 34.076 736.656 34.0621 736.666 34.0566C736.679 34.0497 736.694 34.0464 736.708 34.0471H736.871C736.892 34.0471 736.907 34.0501 736.915 34.0566C736.923 34.0616 736.926 34.076 736.926 34.0975V34.8973H737.955V34.0975ZM739.974 36.0922C739.96 36.0929 739.945 36.091 739.932 36.0868C739.921 36.0823 739.912 36.0698 739.904 36.0483L739.757 35.6193H738.934L738.788 36.0483C738.778 36.0777 738.758 36.0922 738.726 36.0922H738.528C738.508 36.0922 738.496 36.0872 738.491 36.0763C738.486 36.0638 738.486 36.0501 738.49 36.0373L739.15 34.1584C739.166 34.112 739.183 34.0816 739.203 34.0666C739.222 34.0521 739.254 34.0436 739.299 34.0417H739.387C739.439 34.0417 739.474 34.0501 739.493 34.0681C739.517 34.0939 739.534 34.1248 739.544 34.1584L740.202 36.0373C740.205 36.0431 740.206 36.0494 740.207 36.0559C740.207 36.0623 740.206 36.0688 740.203 36.0748C740.199 36.0868 740.186 36.0922 740.167 36.0922H739.974ZM739.485 34.7721L739.349 34.342H739.334L739.203 34.7576L739.003 35.3827H739.682L739.485 34.7721ZM740.468 34.1908C740.468 34.1399 740.478 34.1025 740.5 34.0781C740.521 34.0536 740.559 34.0417 740.613 34.0417H741.293C741.384 34.0417 741.468 34.0566 741.545 34.0856C741.622 34.115 741.688 34.1554 741.743 34.2093C741.798 34.2632 741.842 34.3275 741.873 34.4029C741.904 34.4772 741.919 34.56 741.919 34.6489C741.919 34.7017 741.911 34.7646 741.893 34.8359C741.873 34.9149 741.837 34.9887 741.786 35.0522C741.735 35.1156 741.67 35.1673 741.598 35.2037C741.513 35.249 741.404 35.2715 741.272 35.2715H740.731V36.0429C740.731 36.0643 740.726 36.0777 740.719 36.0837C740.711 36.0893 740.696 36.0922 740.675 36.0922H740.523C740.509 36.0933 740.494 36.0904 740.481 36.0837C740.472 36.0777 740.468 36.0643 740.468 36.0429V34.1908ZM741.644 34.6638C741.644 34.6209 741.638 34.5783 741.626 34.5371C741.613 34.4929 741.591 34.452 741.561 34.4174C741.525 34.3779 741.481 34.3467 741.432 34.326C741.367 34.3 741.297 34.2878 741.227 34.2901H740.733V35.035H741.233C741.371 35.035 741.474 35.0021 741.542 34.9367C741.611 34.8718 741.644 34.7806 741.644 34.6638ZM743.915 35.0615C743.915 35.4037 743.841 35.6667 743.695 35.8497C743.547 36.0329 743.328 36.1246 743.039 36.1246C742.75 36.1246 742.535 36.0338 742.392 35.8527C742.248 35.6716 742.177 35.4122 742.177 35.0725C742.177 34.9033 742.198 34.7531 742.242 34.6219C742.286 34.4902 742.347 34.3799 742.424 34.2901C742.5 34.2003 742.592 34.132 742.698 34.0856C742.807 34.0383 742.925 34.0145 743.044 34.0157C743.187 34.0157 743.312 34.0391 743.421 34.087C743.531 34.135 743.621 34.2038 743.695 34.2941C743.768 34.3849 743.822 34.4947 743.859 34.6234C743.896 34.7511 743.915 34.8973 743.915 35.0615H743.915ZM743.64 35.0725C743.64 34.9656 743.632 34.8629 743.615 34.7646C743.601 34.6726 743.57 34.5841 743.525 34.5031C743.482 34.428 743.42 34.3656 743.345 34.322C743.255 34.274 743.155 34.2507 743.053 34.2547C742.948 34.2547 742.857 34.2762 742.781 34.3196C742.705 34.3619 742.641 34.4218 742.593 34.4942C742.543 34.5685 742.507 34.6538 742.482 34.7511C742.457 34.8526 742.445 34.9569 742.445 35.0615C742.445 35.1817 742.455 35.2924 742.474 35.3927C742.494 35.4935 742.527 35.5799 742.573 35.6522C742.617 35.7244 742.68 35.7836 742.755 35.8238C742.832 35.8647 742.927 35.8847 743.042 35.8847C743.154 35.8847 743.249 35.8627 743.326 35.8173C743.403 35.7729 743.465 35.7125 743.512 35.6367C743.56 35.5567 743.594 35.4684 743.611 35.3763C743.63 35.279 743.64 35.1782 743.64 35.0725ZM744.689 35.3299C744.679 35.4097 744.669 35.4765 744.659 35.5304C744.647 35.5838 744.636 35.6298 744.623 35.6686C744.613 35.7031 744.599 35.7364 744.583 35.7684C744.568 35.7953 744.552 35.8223 744.534 35.8503H745.563V34.2866H744.821L744.689 35.3299ZM744.33 36.0922L744.3 36.5278C744.299 36.5568 744.286 36.5712 744.263 36.5712H744.119C744.108 36.5712 744.099 36.5687 744.093 36.5632C744.088 36.5568 744.083 36.5447 744.081 36.5278L744.043 35.9605C744.041 35.9347 744.047 35.9087 744.062 35.8877C744.077 35.8682 744.104 35.8572 744.143 35.8527L744.237 35.8468C744.269 35.8098 744.296 35.7699 744.32 35.727C744.342 35.6846 744.361 35.6367 744.377 35.5838C744.392 35.5314 744.405 35.4725 744.416 35.4072C744.427 35.3423 744.438 35.2665 744.45 35.1812L744.57 34.2492C744.576 34.1951 744.595 34.1433 744.627 34.099C744.654 34.0626 744.703 34.0441 744.771 34.0441H745.651C745.714 34.0441 745.761 34.0596 745.789 34.0895C745.817 34.1205 745.831 34.1663 745.831 34.2293V35.8527L745.931 35.8587C745.958 35.8599 745.984 35.87 746.004 35.8877C746.023 35.9057 746.033 35.9336 746.033 35.9725L745.998 36.5278C745.996 36.5447 745.992 36.5568 745.986 36.5627C745.98 36.5687 745.971 36.5712 745.96 36.5712H745.817C745.813 36.5715 745.808 36.5709 745.804 36.5696C745.801 36.5682 745.797 36.5661 745.794 36.5632C745.787 36.5568 745.785 36.5447 745.785 36.5278L745.767 36.0922H744.33ZM747.634 34.0975C747.634 34.076 747.638 34.0621 747.647 34.0566C747.656 34.0501 747.67 34.0471 747.689 34.0471H747.847C747.869 34.0471 747.883 34.0501 747.891 34.0566C747.898 34.0616 747.903 34.076 747.903 34.0975V36.0429C747.903 36.0643 747.898 36.0777 747.891 36.0837C747.883 36.0893 747.869 36.0922 747.847 36.0922H747.689C747.669 36.0922 747.656 36.0893 747.647 36.0837C747.638 36.0777 747.634 36.0643 747.634 36.0429V35.1308H746.606V36.0429C746.606 36.0643 746.602 36.0777 746.594 36.0837C746.586 36.0893 746.571 36.0922 746.55 36.0922H746.387C746.373 36.0928 746.358 36.0899 746.345 36.0837C746.335 36.0777 746.331 36.0643 746.331 36.0429V34.097C746.331 34.076 746.336 34.0621 746.346 34.0566C746.358 34.0498 746.373 34.0465 746.387 34.0471H746.55C746.571 34.0471 746.586 34.0501 746.594 34.0566C746.602 34.0616 746.606 34.076 746.606 34.0975V34.8973H747.634V34.0975ZM749.653 36.0922C749.638 36.0929 749.624 36.091 749.61 36.0868C749.6 36.0823 749.59 36.0698 749.582 36.0483L749.436 35.6193H748.613L748.467 36.0483C748.457 36.0777 748.436 36.0922 748.406 36.0922H748.206C748.187 36.0922 748.175 36.0872 748.17 36.0763C748.165 36.0638 748.165 36.0501 748.168 36.0373L748.829 34.1584C748.844 34.112 748.862 34.0816 748.881 34.0666C748.901 34.0521 748.933 34.0436 748.978 34.0417H749.065C749.118 34.0417 749.153 34.0501 749.172 34.0681C749.196 34.0939 749.213 34.1248 749.224 34.1584L749.881 36.0373C749.884 36.0431 749.885 36.0494 749.885 36.0559C749.886 36.0623 749.885 36.0688 749.882 36.0748C749.877 36.0868 749.865 36.0922 749.845 36.0922H749.653ZM749.165 34.7721L749.028 34.342H749.013L748.881 34.7576L748.683 35.3827H749.361L749.165 34.7721ZM751.283 35.2131H750.865C750.768 35.2131 750.684 35.2316 750.613 35.27C750.542 35.3084 750.49 35.3843 750.459 35.4995L750.307 36.0573C750.303 36.0748 750.296 36.0852 750.285 36.0882C750.275 36.0909 750.265 36.0922 750.254 36.0922H750.065C750.049 36.0922 750.039 36.0887 750.034 36.0823C750.029 36.0748 750.027 36.0661 750.027 36.0573V36.0424L750.188 35.4521C750.209 35.3808 750.239 35.3189 750.278 35.2675C750.326 35.2098 750.388 35.1666 750.459 35.1428C750.356 35.1044 750.268 35.0337 750.208 34.9412C750.15 34.8464 750.12 34.7369 750.123 34.6259C750.123 34.5421 750.138 34.4648 750.167 34.3939C750.196 34.3225 750.238 34.2617 750.293 34.2093C750.347 34.1579 750.413 34.1175 750.488 34.0886C750.569 34.0583 750.656 34.0435 750.742 34.0447H751.409C751.465 34.0447 751.503 34.0566 751.525 34.0795C751.547 34.103 751.557 34.1394 751.557 34.1908V36.0518C751.557 36.0693 751.554 36.0803 751.546 36.0852C751.535 36.0906 751.523 36.0931 751.511 36.0922H751.333C751.32 36.0932 751.306 36.0908 751.294 36.0852C751.287 36.0803 751.283 36.0693 751.283 36.0518V35.2131ZM750.772 34.2901C750.709 34.2879 750.646 34.2993 750.587 34.3236C750.543 34.3427 750.503 34.3711 750.471 34.4069C750.442 34.4392 750.421 34.4778 750.41 34.5196C750.398 34.558 750.393 34.5978 750.392 34.6379C750.391 34.6829 750.399 34.7276 750.415 34.7696C750.431 34.8116 750.456 34.8499 750.487 34.8823C750.55 34.9492 750.652 34.9822 750.792 34.9822H751.283V34.2901H750.772ZM753.223 34.2837H752.654C752.636 34.2837 752.624 34.2811 752.62 34.2736C752.615 34.2671 752.613 34.2547 752.613 34.2372V34.094C752.613 34.079 752.615 34.0666 752.62 34.0591C752.625 34.0517 752.636 34.0471 752.654 34.0471H754.085C754.102 34.0471 754.113 34.0517 754.118 34.0591C754.123 34.0666 754.125 34.079 754.125 34.094V34.2372C754.125 34.2547 754.123 34.2671 754.118 34.2741C754.113 34.2811 754.102 34.2841 754.085 34.2841H753.497V36.0429C753.497 36.0643 753.494 36.0777 753.486 36.0837C753.478 36.0893 753.464 36.0922 753.445 36.0922H753.278C753.264 36.0932 753.249 36.0903 753.236 36.0837C753.227 36.0777 753.223 36.0643 753.223 36.0429V34.2837ZM754.386 34.1908C754.386 34.1399 754.396 34.1025 754.417 34.0781C754.439 34.0536 754.477 34.0417 754.532 34.0417H755.211C755.302 34.0417 755.386 34.0566 755.463 34.0856C755.54 34.115 755.605 34.1554 755.661 34.2093C755.716 34.2632 755.76 34.3275 755.791 34.4029C755.822 34.4772 755.838 34.56 755.838 34.6489C755.838 34.7017 755.829 34.7646 755.811 34.8359C755.794 34.9083 755.761 34.9766 755.714 35.0405C755.666 35.1054 755.6 35.1593 755.516 35.2041C755.431 35.249 755.323 35.2715 755.19 35.2715H754.648V36.0429C754.648 36.0643 754.645 36.0777 754.636 36.0837C754.629 36.0893 754.614 36.0922 754.593 36.0922H754.441C754.427 36.0932 754.412 36.0903 754.399 36.0837C754.39 36.0777 754.385 36.0643 754.385 36.0429L754.386 34.1908ZM755.563 34.6638C755.563 34.6209 755.557 34.5783 755.544 34.5371C755.531 34.4928 755.509 34.452 755.478 34.4174C755.442 34.3777 755.399 34.3465 755.349 34.326C755.284 34.2999 755.215 34.2877 755.145 34.2901H754.651V35.035H755.151C755.289 35.035 755.393 35.0021 755.461 34.9367C755.529 34.8718 755.563 34.7806 755.563 34.6638H755.563ZM757.319 36.0922C757.304 36.0929 757.29 36.091 757.276 36.0868C757.266 36.0823 757.256 36.0698 757.248 36.0483L757.102 35.6193H756.279L756.133 36.0483C756.123 36.0777 756.103 36.0922 756.071 36.0922H755.873C755.853 36.0922 755.841 36.0872 755.836 36.0763C755.831 36.0638 755.831 36.0501 755.835 36.0373L756.495 34.1584C756.51 34.112 756.528 34.0816 756.547 34.0666C756.577 34.0493 756.61 34.0407 756.644 34.0417H756.732C756.784 34.0417 756.82 34.0501 756.838 34.0681C756.862 34.0939 756.879 34.1248 756.89 34.1584L757.547 36.0373C757.55 36.0431 757.551 36.0494 757.551 36.0559C757.552 36.0623 757.551 36.0688 757.548 36.0748C757.543 36.0868 757.531 36.0922 757.511 36.0922H757.319ZM756.831 34.7721L756.694 34.342H756.679L756.547 34.7576L756.349 35.3827H757.026L756.831 34.7721ZM759.116 34.0975C759.116 34.076 759.12 34.0621 759.129 34.0566C759.137 34.0501 759.151 34.0471 759.171 34.0471H759.329C759.351 34.0471 759.365 34.0501 759.373 34.0566C759.38 34.0616 759.384 34.076 759.384 34.0975V36.0429C759.384 36.0643 759.38 36.0777 759.373 36.0837C759.365 36.0893 759.351 36.0922 759.329 36.0922H759.171C759.156 36.0932 759.142 36.0903 759.129 36.0837C759.12 36.0777 759.116 36.0643 759.116 36.0429V35.1308H758.088V36.0429C758.088 36.0643 758.083 36.0777 758.076 36.0837C758.068 36.0893 758.053 36.0922 758.031 36.0922H757.868C757.854 36.0928 757.84 36.0899 757.827 36.0837C757.817 36.0777 757.812 36.0643 757.812 36.0429V34.097C757.812 34.076 757.817 34.0621 757.827 34.0566C757.84 34.0498 757.854 34.0464 757.868 34.0471H758.031C758.053 34.0471 758.068 34.0501 758.076 34.0566C758.083 34.0616 758.087 34.076 758.087 34.0975V34.8973H759.115L759.116 34.0975ZM760.682 35.8732C760.767 35.8732 760.849 35.8632 760.927 35.8438C761.005 35.8243 761.077 35.7993 761.146 35.768C761.167 35.7579 761.183 35.7579 761.193 35.7654C761.203 35.7729 761.209 35.7819 761.213 35.7918L761.269 35.9141C761.28 35.9376 761.284 35.954 761.28 35.962C761.274 35.9733 761.265 35.9829 761.254 35.9899C761.208 36.0179 761.157 36.0399 761.103 36.0573C761.051 36.0745 760.997 36.0882 760.943 36.0982C760.841 36.1154 760.738 36.1243 760.634 36.1246C760.51 36.1264 760.385 36.1055 760.268 36.0628C760.163 36.0241 760.069 35.9598 759.995 35.8757C759.916 35.7831 759.858 35.6747 759.824 35.5579C759.781 35.4087 759.761 35.254 759.764 35.0989C759.764 34.9357 759.785 34.7875 759.828 34.6538C759.871 34.5201 759.932 34.4064 760.01 34.3115C760.088 34.2177 760.182 34.1449 760.292 34.094C760.401 34.0441 760.523 34.0182 760.656 34.0182C760.739 34.0182 760.825 34.0256 760.915 34.0401C761.005 34.0551 761.099 34.0875 761.199 34.1379C761.209 34.1428 761.217 34.1511 761.222 34.1614C761.226 34.1714 761.223 34.1859 761.213 34.2053L761.146 34.3395C761.142 34.3493 761.135 34.3579 761.127 34.3644C761.12 34.3694 761.109 34.3679 761.093 34.3605C760.959 34.3003 760.814 34.2692 760.667 34.2692C760.556 34.2692 760.461 34.2931 760.382 34.339C760.304 34.3855 760.237 34.4491 760.187 34.5251C760.134 34.6025 760.097 34.6907 760.074 34.791C760.05 34.8908 760.039 34.9941 760.039 35.0989C760.039 35.2062 760.049 35.3064 760.07 35.4002C760.09 35.4935 760.124 35.5754 760.174 35.6457C760.224 35.7155 760.29 35.7704 760.373 35.8118C760.456 35.8527 760.559 35.8732 760.682 35.8732ZM763.136 36.0483C763.136 36.0683 763.132 36.0803 763.126 36.0852C763.119 36.0903 763.107 36.0922 763.089 36.0922H762.917C762.904 36.093 762.891 36.0906 762.88 36.0852C762.872 36.0803 762.867 36.0678 762.867 36.0483V34.2837H761.839V36.0483C761.839 36.0683 761.835 36.0803 761.828 36.0852C761.821 36.0903 761.809 36.0922 761.792 36.0922H761.617C761.605 36.0932 761.592 36.0907 761.581 36.0852C761.573 36.0803 761.569 36.0678 761.569 36.0483V34.2287C761.569 34.1663 761.585 34.1205 761.618 34.0895C761.652 34.0589 761.697 34.0428 761.742 34.0447H762.963C762.987 34.0433 763.01 34.0466 763.032 34.0543C763.053 34.062 763.074 34.074 763.091 34.0895C763.121 34.1205 763.136 34.1663 763.136 34.2293V36.0483ZM765.254 35.0615C765.254 35.4037 765.18 35.6667 765.033 35.8497C764.886 36.0329 764.667 36.1246 764.378 36.1246C764.089 36.1246 763.874 36.0338 763.73 35.8527C763.587 35.6716 763.515 35.4122 763.515 35.0725C763.515 34.9033 763.537 34.7531 763.581 34.6219C763.625 34.4902 763.685 34.3799 763.762 34.2901C763.837 34.2019 763.931 34.132 764.037 34.0856C764.143 34.0391 764.258 34.0157 764.383 34.0157C764.526 34.0157 764.651 34.0391 764.76 34.087C764.869 34.135 764.96 34.2038 765.033 34.2941C765.107 34.3849 765.161 34.4947 765.198 34.6234C765.235 34.7511 765.254 34.8973 765.254 35.0615ZM764.979 35.0725C764.979 34.9656 764.971 34.8629 764.954 34.7646C764.94 34.6727 764.909 34.5842 764.864 34.5031C764.821 34.428 764.759 34.3656 764.684 34.322C764.594 34.274 764.494 34.2507 764.392 34.2547C764.287 34.2547 764.196 34.2762 764.12 34.3196C764.044 34.3619 763.98 34.4218 763.931 34.4942C763.882 34.5685 763.845 34.6538 763.821 34.7511C763.796 34.8526 763.784 34.9569 763.784 35.0615C763.784 35.1817 763.794 35.2924 763.813 35.3927C763.833 35.4935 763.866 35.5799 763.912 35.6522C763.956 35.7244 764.019 35.7836 764.094 35.8238C764.17 35.8647 764.265 35.8847 764.38 35.8847C764.493 35.8847 764.588 35.8627 764.664 35.8173C764.742 35.7729 764.804 35.7125 764.851 35.6367C764.899 35.5565 764.933 35.4683 764.95 35.3763C764.969 35.279 764.979 35.1782 764.979 35.0725ZM765.633 34.1908C765.633 34.1399 765.644 34.1025 765.666 34.0781C765.687 34.0536 765.725 34.0417 765.779 34.0417H766.459C766.549 34.0417 766.634 34.0566 766.711 34.0856C766.787 34.115 766.854 34.1554 766.909 34.2093C766.964 34.2632 767.008 34.3275 767.039 34.4029C767.07 34.4772 767.085 34.56 767.085 34.6489C767.085 34.7017 767.077 34.7646 767.059 34.8359C767.042 34.9083 767.009 34.9766 766.962 35.0405C766.914 35.1054 766.848 35.1593 766.764 35.2041C766.679 35.249 766.57 35.2715 766.438 35.2715H765.896V36.0429C765.896 36.0643 765.892 36.0777 765.885 36.0837C765.877 36.0893 765.862 36.0922 765.841 36.0922H765.689C765.675 36.0933 765.66 36.0904 765.647 36.0837C765.638 36.0777 765.633 36.0643 765.633 36.0429V34.1908ZM766.811 34.6638C766.811 34.6209 766.804 34.5783 766.792 34.5371C766.779 34.4928 766.757 34.452 766.726 34.4174C766.691 34.378 766.647 34.3468 766.598 34.326C766.533 34.3 766.463 34.2878 766.393 34.2901H765.899V35.035H766.398C766.537 35.035 766.64 35.0021 766.708 34.9367C766.777 34.8718 766.81 34.7806 766.81 34.6638H766.811ZM767.836 34.2837H767.267C767.249 34.2837 767.238 34.2811 767.233 34.2736C767.228 34.2671 767.226 34.2547 767.226 34.2372V34.094C767.226 34.079 767.228 34.0666 767.233 34.0591C767.238 34.0517 767.249 34.0471 767.267 34.0471H768.699C768.715 34.0471 768.727 34.0517 768.732 34.0591C768.737 34.0666 768.739 34.079 768.739 34.094V34.2372C768.739 34.2547 768.736 34.2671 768.732 34.2741C768.727 34.2811 768.715 34.2841 768.699 34.2841H768.111V36.0429C768.111 36.0643 768.107 36.0777 768.099 36.0837C768.092 36.0893 768.078 36.0922 768.058 36.0922H767.892C767.878 36.0933 767.863 36.0904 767.85 36.0837C767.841 36.0777 767.836 36.0643 767.836 36.0429V34.2837ZM770.302 34.097C770.302 34.076 770.307 34.0621 770.316 34.0566C770.324 34.0501 770.338 34.0471 770.357 34.0471H770.515C770.537 34.0471 770.551 34.0501 770.559 34.0566C770.567 34.0616 770.571 34.076 770.571 34.0975V36.0429C770.571 36.0643 770.567 36.0777 770.559 36.0837C770.551 36.0893 770.537 36.0922 770.515 36.0922H770.357C770.338 36.0922 770.324 36.0893 770.316 36.0837C770.307 36.0777 770.302 36.0643 770.302 36.0429V35.1308H769.273V36.0429C769.273 36.0643 769.27 36.0777 769.262 36.0837C769.254 36.0893 769.239 36.0922 769.218 36.0922H769.055C769.041 36.0928 769.026 36.0899 769.013 36.0837C769.003 36.0777 768.998 36.0643 768.998 36.0429V34.097C768.998 34.076 769.003 34.0621 769.013 34.0566C769.026 34.0497 769.041 34.0464 769.055 34.0471H769.218C769.239 34.0471 769.254 34.0501 769.262 34.0566C769.27 34.0616 769.273 34.076 769.273 34.0975V34.8973H770.302V34.097ZM772.321 36.0922C772.307 36.0929 772.292 36.091 772.279 36.0868C772.268 36.0823 772.259 36.0698 772.251 36.0483L772.104 35.6193H771.281L771.135 36.0483C771.125 36.0777 771.105 36.0922 771.073 36.0922H770.875C770.855 36.0922 770.843 36.0872 770.838 36.0763C770.833 36.0638 770.833 36.0501 770.837 36.0373L771.497 34.1584C771.512 34.112 771.53 34.0816 771.55 34.0666C771.569 34.0521 771.601 34.0436 771.646 34.0417H771.734C771.786 34.0417 771.821 34.0501 771.84 34.0681C771.864 34.0939 771.882 34.1248 771.892 34.1584L772.549 36.0373C772.552 36.0431 772.553 36.0494 772.554 36.0559C772.554 36.0623 772.553 36.0688 772.55 36.0748C772.546 36.0868 772.533 36.0922 772.514 36.0922H772.321ZM771.834 34.7721L771.696 34.342H771.681L771.55 34.7576L771.351 35.3827H772.029L771.834 34.7721ZM773.951 35.2131H773.533C773.436 35.2131 773.352 35.2316 773.281 35.27C773.209 35.3084 773.158 35.3843 773.127 35.4995L772.976 36.0573C772.971 36.0748 772.964 36.0852 772.953 36.0882C772.943 36.0909 772.933 36.0922 772.923 36.0922H772.733C772.717 36.0922 772.707 36.0887 772.702 36.0823C772.697 36.0748 772.695 36.0661 772.695 36.0573V36.0424L772.856 35.4521C772.877 35.3808 772.907 35.3189 772.946 35.2675C772.994 35.2098 773.056 35.1666 773.127 35.1428C773.024 35.1044 772.936 35.0337 772.876 34.9412C772.818 34.8464 772.788 34.7369 772.791 34.6259C772.791 34.5421 772.806 34.4648 772.835 34.3939C772.864 34.3225 772.906 34.2617 772.961 34.2093C773.016 34.1579 773.08 34.1175 773.156 34.0886C773.238 34.0583 773.324 34.0435 773.411 34.0447H774.076C774.133 34.0447 774.172 34.0566 774.194 34.0795C774.215 34.103 774.226 34.1394 774.226 34.1908V36.0518C774.226 36.0693 774.222 36.0803 774.214 36.0852C774.203 36.0905 774.191 36.0929 774.179 36.0922H774.001C773.987 36.0931 773.974 36.0907 773.963 36.0852C773.955 36.0803 773.951 36.0693 773.951 36.0518V35.2131ZM773.44 34.2901C773.377 34.2879 773.314 34.2993 773.255 34.3236C773.211 34.3427 773.171 34.3711 773.139 34.4069C773.11 34.4392 773.089 34.4778 773.078 34.5196C773.067 34.558 773.061 34.5978 773.06 34.6379C773.059 34.6829 773.067 34.7276 773.083 34.7696C773.1 34.8116 773.124 34.8499 773.155 34.8823C773.218 34.9492 773.32 34.9822 773.46 34.9822H773.951V34.2901H773.44ZM776.469 34.9966C776.514 35.0098 776.556 35.0294 776.595 35.055C776.658 35.1018 776.706 35.1659 776.732 35.2396C776.746 35.2765 776.759 35.3174 776.771 35.3618L776.954 36.0403C776.958 36.051 776.958 36.0626 776.954 36.0733C776.951 36.0858 776.938 36.0922 776.916 36.0922H776.738C776.727 36.0922 776.716 36.0904 776.706 36.0868C776.695 36.0823 776.686 36.0718 776.683 36.0548L776.508 35.4027C776.495 35.3544 776.476 35.308 776.452 35.2645C776.432 35.2309 776.406 35.2018 776.374 35.1795C776.342 35.157 776.306 35.1418 776.267 35.1348C776.223 35.1262 776.178 35.1222 776.134 35.1228H775.719V36.0483C775.719 36.0683 775.715 36.0803 775.708 36.0852C775.701 36.0903 775.689 36.0922 775.672 36.0922H775.502C775.49 36.0929 775.478 36.0905 775.467 36.0852C775.459 36.0803 775.456 36.0678 775.456 36.0483V34.091C775.456 34.0716 775.459 34.0596 775.467 34.0551C775.478 34.0494 775.49 34.0467 775.502 34.0471H775.675C775.692 34.0471 775.704 34.0501 775.711 34.0551C775.718 34.0601 775.721 34.0716 775.719 34.091V34.8798H776.107C776.138 34.8798 776.172 34.8763 776.206 34.8699C776.245 34.862 776.282 34.8465 776.314 34.8242C776.347 34.802 776.375 34.7733 776.396 34.7402C776.423 34.7012 776.446 34.6489 776.464 34.585L776.595 34.0795C776.599 34.0621 776.607 34.0517 776.617 34.0471C776.627 34.044 776.637 34.0423 776.647 34.0421H776.808C776.832 34.0421 776.845 34.0486 776.848 34.0621C776.851 34.0736 776.851 34.0858 776.847 34.097L776.718 34.6199C776.699 34.6968 776.669 34.7702 776.627 34.8375C776.588 34.8989 776.534 34.9488 776.469 34.9822V34.9966ZM778.932 35.0615C778.932 35.4037 778.859 35.6667 778.712 35.8497C778.564 36.0329 778.346 36.1246 778.056 36.1246C777.767 36.1246 777.552 36.0338 777.408 35.8527C777.266 35.6716 777.194 35.4122 777.194 35.0725C777.194 34.9033 777.216 34.7531 777.26 34.6219C777.303 34.4902 777.364 34.3799 777.441 34.2901C777.518 34.2003 777.609 34.132 777.716 34.0856C777.825 34.0383 777.943 34.0145 778.061 34.0157C778.204 34.0157 778.329 34.0391 778.439 34.087C778.548 34.135 778.639 34.2038 778.712 34.2941C778.785 34.3849 778.84 34.4947 778.876 34.6234C778.914 34.7511 778.932 34.8973 778.932 35.0615ZM778.658 35.0725C778.658 34.9656 778.649 34.8629 778.633 34.7646C778.619 34.6726 778.588 34.5841 778.542 34.5031C778.499 34.428 778.437 34.3656 778.362 34.322C778.273 34.274 778.172 34.2507 778.071 34.2547C777.966 34.2547 777.874 34.2762 777.799 34.3196C777.723 34.3619 777.658 34.4218 777.61 34.4942C777.561 34.5685 777.524 34.6538 777.5 34.7511C777.475 34.8526 777.462 34.9569 777.463 35.0615C777.463 35.1817 777.473 35.2924 777.492 35.3927C777.512 35.4935 777.544 35.5799 777.59 35.6522C777.635 35.7244 777.697 35.7836 777.772 35.8238C777.848 35.8647 777.944 35.8847 778.058 35.8847C778.171 35.8847 778.267 35.8627 778.344 35.8173C778.42 35.7729 778.482 35.7125 778.528 35.6367C778.577 35.5565 778.611 35.4683 778.628 35.3763C778.648 35.279 778.658 35.1782 778.658 35.0725ZM780.983 34.5211H780.968C780.957 34.5433 780.948 34.5659 780.939 34.589C780.924 34.6294 780.907 34.6728 780.888 34.7192C780.87 34.7656 780.852 34.8095 780.837 34.8509L780.81 34.9208C780.804 34.9362 780.793 34.9656 780.775 35.0071C780.757 35.049 780.738 35.0974 780.715 35.1533L780.644 35.3299L780.57 35.5065L780.509 35.6527C780.491 35.6946 780.48 35.7225 780.474 35.736C780.464 35.7705 780.447 35.8021 780.422 35.8278C780.402 35.8448 780.369 35.8527 780.324 35.8527H780.228C780.183 35.8527 780.15 35.8448 780.129 35.8278C780.104 35.8024 780.085 35.7708 780.076 35.736C780.064 35.7069 780.052 35.6782 780.039 35.6497C780.018 35.6018 779.998 35.5535 779.978 35.505L779.904 35.3299C779.879 35.2716 779.855 35.2132 779.831 35.1547C779.811 35.1062 779.791 35.058 779.77 35.01C779.757 34.9816 779.745 34.9528 779.733 34.9238L779.583 34.55H779.566V36.0429C779.566 36.0643 779.562 36.0777 779.555 36.0837C779.546 36.0893 779.532 36.0922 779.511 36.0922H779.367C779.347 36.0922 779.334 36.0893 779.325 36.0837C779.316 36.0777 779.312 36.0643 779.312 36.0429V34.1908C779.312 34.146 779.322 34.111 779.341 34.0841C779.361 34.0576 779.398 34.0441 779.456 34.0441H779.533C779.568 34.0422 779.601 34.0499 779.631 34.0666C779.654 34.0816 779.675 34.1124 779.694 34.1614L780.097 35.1602C780.101 35.1687 780.112 35.1941 780.127 35.238C780.144 35.282 780.162 35.3294 780.183 35.3813C780.203 35.4326 780.222 35.48 780.238 35.5239C780.254 35.5679 780.265 35.5938 780.268 35.6018H780.28C780.282 35.5933 780.292 35.5684 780.31 35.5255C780.348 35.4335 780.384 35.341 780.42 35.248C780.436 35.2056 780.446 35.1797 780.449 35.1722L780.493 35.0625L780.568 34.8774L780.658 34.6538L780.748 34.4333C780.774 34.3649 780.798 34.3061 780.818 34.2567L780.855 34.1614C780.875 34.1124 780.896 34.0816 780.92 34.0666C780.949 34.0505 780.982 34.0428 781.015 34.0447H781.094C781.153 34.0447 781.191 34.0576 781.209 34.0846C781.23 34.1162 781.239 34.1534 781.237 34.1908V36.0429C781.237 36.0643 781.233 36.0777 781.225 36.0837C781.218 36.0893 781.204 36.0922 781.182 36.0922H781.038C781.018 36.0922 781.004 36.0893 780.996 36.0837C780.988 36.0777 780.983 36.0643 780.983 36.0429V34.5211ZM783.244 36.0483C783.244 36.0683 783.241 36.0803 783.234 36.0852C783.228 36.0903 783.215 36.0922 783.198 36.0922H783.025C783.013 36.093 783 36.0906 782.989 36.0852C782.98 36.0803 782.976 36.0678 782.976 36.0483V34.2837H781.947V36.0483C781.947 36.0683 781.944 36.0803 781.937 36.0852C781.93 36.0903 781.918 36.0922 781.9 36.0922H781.725C781.713 36.0931 781.701 36.0907 781.69 36.0852C781.682 36.0803 781.678 36.0678 781.678 36.0483V34.2287C781.678 34.1663 781.694 34.1205 781.726 34.0895C781.761 34.0589 781.805 34.0429 781.851 34.0447H783.072C783.126 34.0447 783.169 34.0596 783.199 34.0895C783.23 34.1205 783.244 34.1663 783.244 34.2293V36.0483ZM784.994 36.0922C784.98 36.0929 784.965 36.091 784.952 36.0868C784.942 36.0823 784.932 36.0698 784.924 36.0483L784.778 35.6193H783.955L783.808 36.0483C783.799 36.0777 783.779 36.0922 783.747 36.0922H783.548C783.529 36.0922 783.517 36.0872 783.512 36.0763C783.507 36.0638 783.506 36.0501 783.511 36.0373L784.171 34.1584C784.186 34.112 784.203 34.0816 784.223 34.0666C784.252 34.0493 784.286 34.0407 784.319 34.0417H784.407C784.46 34.0417 784.496 34.0501 784.514 34.0681C784.537 34.0939 784.555 34.1248 784.565 34.1584L785.223 36.0373C785.225 36.0431 785.227 36.0494 785.227 36.0559C785.227 36.0623 785.226 36.0688 785.224 36.0748C785.219 36.0868 785.207 36.0922 785.187 36.0922H784.994ZM784.507 34.7721L784.369 34.342H784.354L784.223 34.7576L784.025 35.3827H784.702L784.507 34.7721ZM786.791 34.0975C786.791 34.076 786.796 34.0621 786.804 34.0566C786.813 34.0501 786.827 34.0471 786.847 34.0471H787.004C787.026 34.0471 787.041 34.0501 787.048 34.0566C787.056 34.0616 787.06 34.076 787.06 34.0975V36.0429C787.06 36.0643 787.056 36.0777 787.048 36.0837C787.041 36.0893 787.026 36.0922 787.004 36.0922H786.847C786.832 36.0932 786.817 36.0903 786.804 36.0837C786.796 36.0777 786.791 36.0643 786.791 36.0429V35.1308H785.763V36.0429C785.763 36.0643 785.759 36.0777 785.751 36.0837C785.743 36.0893 785.728 36.0922 785.707 36.0922H785.544C785.53 36.0928 785.516 36.0899 785.503 36.0837C785.493 36.0777 785.488 36.0643 785.488 36.0429V34.097C785.488 34.076 785.493 34.0621 785.503 34.0566C785.515 34.0498 785.53 34.0464 785.544 34.0471H785.707C785.728 34.0471 785.743 34.0501 785.751 34.0566C785.759 34.0616 785.763 34.076 785.763 34.0975V34.8973H786.791V34.0975ZM788.816 34.4069L788.562 34.8449L787.884 35.9755C787.866 36.0087 787.843 36.0393 787.817 36.0663C787.797 36.0837 787.766 36.0922 787.723 36.0922H787.641C787.587 36.0922 787.549 36.0803 787.529 36.0558C787.508 36.0319 787.499 35.9949 787.499 35.946V34.0886C787.499 34.0686 787.502 34.0571 787.509 34.0521C787.52 34.0466 787.532 34.044 787.545 34.0447H787.717C787.735 34.0447 787.747 34.0471 787.754 34.0521C787.761 34.0571 787.764 34.069 787.764 34.0886V35.7215H787.772L788.01 35.3209L788.708 34.1614C788.726 34.1282 788.748 34.0978 788.775 34.0711C788.795 34.0536 788.826 34.0447 788.868 34.0447H788.95C789.006 34.0447 789.045 34.0571 789.065 34.0816C789.084 34.106 789.094 34.1419 789.094 34.1908V36.0483C789.094 36.0683 789.089 36.0803 789.082 36.0852C789.071 36.0907 789.059 36.0931 789.047 36.0922H788.874C788.857 36.0922 788.845 36.0903 788.838 36.0852C788.831 36.0803 788.828 36.0678 788.828 36.0483V34.4069H788.816ZM790.668 35.2131H790.25C790.153 35.2131 790.068 35.2316 789.998 35.27C789.927 35.3084 789.875 35.3843 789.844 35.4995L789.692 36.0573C789.688 36.0748 789.681 36.0852 789.671 36.0882C789.66 36.0909 789.65 36.0922 789.639 36.0922H789.45C789.434 36.0922 789.424 36.0887 789.419 36.0823C789.414 36.0748 789.412 36.0661 789.412 36.0573V36.0424L789.572 35.4521C789.594 35.3808 789.624 35.3189 789.663 35.2675C789.71 35.2098 789.773 35.1666 789.844 35.1428C789.741 35.1043 789.653 35.0337 789.593 34.9412C789.535 34.8464 789.506 34.7369 789.508 34.6259C789.508 34.5421 789.523 34.4648 789.552 34.3939C789.581 34.3225 789.623 34.2617 789.678 34.2093C789.732 34.1579 789.798 34.1175 789.873 34.0886C789.95 34.0591 790.034 34.0447 790.127 34.0447H790.793C790.85 34.0447 790.889 34.0566 790.91 34.0795C790.932 34.103 790.943 34.1394 790.943 34.1908V36.0518C790.943 36.0693 790.939 36.0803 790.931 36.0852C790.92 36.0907 790.908 36.0932 790.896 36.0922H790.718C790.7 36.0922 790.688 36.0903 790.68 36.0852C790.672 36.0803 790.668 36.0693 790.668 36.0518V35.2131ZM790.157 34.2901C790.094 34.2879 790.031 34.2993 789.972 34.3236C789.928 34.3427 789.888 34.3711 789.856 34.4069C789.827 34.4392 789.806 34.4777 789.795 34.5196C789.783 34.558 789.777 34.5978 789.777 34.6379C789.776 34.6829 789.784 34.7276 789.8 34.7696C789.816 34.8116 789.841 34.8499 789.872 34.8823C789.935 34.9492 790.037 34.9822 790.177 34.9822H790.668V34.2901H790.157Z" fill="#2D2D2D"/>
</g>
<g clip-path="url(#clip4_43_770)">
<path fill-rule="evenodd" clip-rule="evenodd" d="M878.917 19.6614C878.873 19.7896 877.863 23.5418 876.672 27.9999C875.482 32.458 874.47 36.213 874.425 36.3444C874.36 36.5314 874.815 36.5717 876.529 36.5307L878.715 36.4782L880.267 30.7018C881.121 27.5247 882.147 23.6885 882.549 22.1769L883.278 19.4285H881.138C879.593 19.4285 878.975 19.4933 878.917 19.6614ZM887.096 23.4496C884.294 25.6595 882.001 27.5434 882.001 27.6362C882.001 27.7291 883.448 29.7773 885.216 32.1882L888.431 36.5713H891.106C892.577 36.5713 893.78 36.5238 893.78 36.4657C893.78 36.4075 892.371 34.4389 890.649 32.0907C888.926 29.7425 887.517 27.7416 887.517 27.644C887.517 27.5465 889.662 25.7775 892.285 23.7129C894.907 21.6483 897.176 19.8397 897.326 19.6938C897.564 19.4639 897.239 19.4287 894.896 19.4301L892.191 19.4318L887.096 23.4496ZM901.267 19.9057C900.706 20.166 899.896 20.665 899.468 21.0146C898.022 22.1959 897.622 23.0795 896.303 28.0068C895.635 30.5003 895.09 32.7138 895.09 32.9255C895.094 34.3314 896.28 36.0423 897.494 36.3921C897.936 36.5197 900.913 36.5691 906.009 36.5333L913.845 36.4782L914.274 34.8943C914.511 34.0232 914.708 33.1638 914.713 32.9844C914.721 32.6791 914.245 32.6583 907.255 32.6583C900.009 32.6583 899.785 32.6475 899.673 32.2938C899.512 31.7877 901.674 23.7589 902.045 23.4865C902.076 23.4637 905.542 23.401 909.748 23.3467L917.394 23.2483L917.906 21.3384L918.417 19.4285L910.352 19.4303L902.288 19.4322L901.267 19.9057ZM920.819 19.7546C920.466 20.9259 919.957 22.9064 919.957 23.1049C919.957 23.2927 921.708 23.3415 928.449 23.3415C933.12 23.3415 937.074 23.2906 937.237 23.2284C937.4 23.1662 937.533 23.0311 937.533 22.9282C937.533 22.8254 936.936 21.9958 936.207 21.0848L934.882 19.4285H927.9C921.412 19.4285 920.91 19.4516 920.819 19.7546ZM918.677 27.6891C918.462 28.5431 918.233 29.3816 918.167 29.5524C918.056 29.8403 918.829 29.8632 928.667 29.8632H939.286L940.56 29.0965C941.26 28.6748 941.833 28.2665 941.833 28.1892C941.833 28.1119 941.489 27.6183 941.069 27.0926L940.305 26.1365H929.687H919.068L918.677 27.6891ZM917.393 32.8912C917.233 33.1005 916.396 36.0893 916.402 36.4316C916.403 36.5083 919.14 36.5713 922.483 36.5713H928.561L930.85 35.1533C933.644 33.4224 933.748 33.333 933.427 32.9471C933.217 32.6946 932.203 32.6583 925.379 32.6583C919.354 32.6583 917.531 32.7114 917.393 32.8912Z" fill="#2D2D2D"/>
</g>
<mask id="mask0_43_770" style="mask-type:luminance" maskUnits="userSpaceOnUse" x="1022" y="22" width="82" height="12">
<path d="M1103.77 22.2856H1022V33.7142H1103.77V22.2856Z" fill="white"/>
</mask>
<g mask="url(#mask0_43_770)">
<path d="M1028.77 22.5295V33.5337H1026.94V24.1107H1023.83V33.5337H1022V22.5295H1028.77Z" fill="#2D2D2D"/>
<path d="M1031.08 33.0985C1030.53 32.5937 1030.13 31.9459 1029.93 31.2274C1029.63 30.2212 1029.49 29.1744 1029.52 28.1253C1029.5 27.0495 1029.63 25.976 1029.93 24.9418C1030.13 24.2023 1030.53 23.5312 1031.08 22.9999C1031.57 22.5854 1032.18 22.3577 1032.82 22.3577C1033.45 22.3577 1034.07 22.5854 1034.55 22.9999C1035.1 23.5249 1035.5 24.1919 1035.7 24.9277C1035.99 25.9623 1036.13 27.0354 1036.11 28.1111C1036.13 29.1661 1035.99 30.2187 1035.7 31.2309C1035.5 31.9492 1035.1 32.5967 1034.55 33.0985C1034.06 33.4986 1033.45 33.717 1032.81 33.717C1032.18 33.717 1031.57 33.4986 1031.07 33.0985H1031.08ZM1031.53 30.3183C1031.61 30.7899 1031.78 31.2394 1032.05 31.6341C1032.13 31.7622 1032.25 31.8682 1032.38 31.9433C1032.51 32.0183 1032.66 32.0603 1032.82 32.0657C1033.27 32.0657 1033.62 31.7367 1033.87 31.0717C1034.18 30.1217 1034.32 29.124 1034.28 28.1253C1034.3 27.3598 1034.24 26.5949 1034.11 25.8403C1034.03 25.3494 1033.85 24.8806 1033.58 24.4643C1033.5 24.3296 1033.38 24.2172 1033.25 24.1369C1033.11 24.0567 1032.96 24.0112 1032.8 24.0045C1032.65 24.0131 1032.5 24.0596 1032.37 24.1398C1032.24 24.22 1032.13 24.3314 1032.05 24.4643C1031.78 24.8849 1031.61 25.3574 1031.53 25.8509C1031.4 26.6037 1031.34 27.3677 1031.35 28.1324C1031.34 28.8653 1031.4 29.5976 1031.53 30.3183Z" fill="#2D2D2D"/>
<path d="M1041.13 22.5295V26.7494H1040.16C1039.81 26.7642 1039.46 26.6976 1039.14 26.5548C1038.88 26.4202 1038.69 26.1942 1038.59 25.9217C1038.46 25.5444 1038.4 25.1462 1038.42 24.7473V22.5295H1036.59V24.7473C1036.53 25.707 1036.82 26.6554 1037.39 27.425C1037.93 28.0735 1038.73 28.3977 1039.8 28.3977H1041.13V33.5337H1042.96V22.5295H1041.13Z" fill="#2D2D2D"/>
<path d="M1049.86 24.1107H1047.7V33.5337H1045.88V24.1107H1043.73V22.5295H1049.86V24.1107Z" fill="#2D2D2D"/>
<path d="M1052.46 22.5297H1053.93C1054.53 22.506 1055.12 22.661 1055.64 22.9754C1056.09 23.2804 1056.44 23.714 1056.65 24.2205C1056.9 24.848 1057.06 25.5095 1057.12 26.1836L1057.98 33.5338H1056.15L1055.55 28.3979H1052.46V33.5338H1050.63V22.5297H1052.46ZM1052.46 26.8167H1055.37L1055.28 26.1836C1055.25 25.7774 1055.17 25.377 1055.04 24.9916C1054.94 24.7326 1054.76 24.5148 1054.53 24.3761C1054.22 24.2297 1053.88 24.1628 1053.54 24.1816H1052.46V26.8167Z" fill="#2D2D2D"/>
<path d="M1065.56 22.5297C1066.17 22.5151 1066.77 22.6732 1067.3 22.986C1067.81 23.3141 1068.21 23.7934 1068.44 24.3585C1068.74 25.0772 1068.88 25.8496 1068.85 26.6258C1068.87 27.3624 1068.74 28.0949 1068.47 28.7799C1068.27 29.3022 1067.94 29.769 1067.53 30.1417C1067.24 30.4129 1066.86 30.5743 1066.47 30.598C1066.26 30.6111 1066.06 30.5789 1065.87 30.5037C1065.68 30.4284 1065.51 30.3121 1065.37 30.1629V33.5339H1063.54V22.5297H1065.56ZM1065.48 28.2423C1065.52 28.4386 1065.62 28.6207 1065.75 28.7728C1065.79 28.8252 1065.85 28.8679 1065.91 28.8984C1065.97 28.9288 1066.03 28.9463 1066.1 28.9497C1066.26 28.9407 1066.41 28.8712 1066.52 28.7552C1066.69 28.5755 1066.81 28.3567 1066.88 28.1185C1066.98 27.7525 1067.02 27.3734 1067.01 26.9936C1067.01 25.9655 1066.89 25.2392 1066.64 24.8148C1066.53 24.619 1066.38 24.4563 1066.18 24.3446C1065.99 24.2329 1065.77 24.1765 1065.55 24.1816H1065.37V27.365C1065.36 27.6611 1065.4 27.9562 1065.48 28.2423Z" fill="#2D2D2D"/>
<path d="M1070.89 33.0987C1070.34 32.5948 1069.94 31.9467 1069.74 31.2275C1069.44 30.2215 1069.3 29.1747 1069.33 28.1254C1069.3 27.0494 1069.44 25.9759 1069.74 24.942C1069.94 24.2016 1070.34 23.5301 1070.89 23.0001C1071.37 22.5762 1071.98 22.3466 1072.62 22.3563C1073.26 22.3457 1073.88 22.5739 1074.36 22.9965C1074.91 23.5249 1075.31 24.1955 1075.51 24.9349C1075.8 25.9697 1075.94 27.0428 1075.92 28.1184C1075.94 29.1681 1075.8 30.2155 1075.51 31.224C1075.31 31.9416 1074.92 32.5888 1074.37 33.0916C1073.87 33.5053 1073.25 33.7253 1072.6 33.7106C1071.98 33.717 1071.37 33.5001 1070.89 33.0987ZM1071.34 30.3185C1071.41 30.7891 1071.59 31.238 1071.85 31.6343C1071.94 31.7621 1072.05 31.868 1072.19 31.943C1072.32 32.0181 1072.47 32.0602 1072.62 32.0658C1073.08 32.0658 1073.43 31.7369 1073.68 31.0719C1073.98 30.1207 1074.12 29.1231 1074.07 28.1254C1074.08 27.3598 1074.02 26.5947 1073.89 25.8404C1073.82 25.3526 1073.65 24.8842 1073.4 24.4645C1073.32 24.3257 1073.21 24.2099 1073.07 24.1293C1072.94 24.0486 1072.78 24.0061 1072.63 24.0061C1072.47 24.0061 1072.31 24.0486 1072.18 24.1293C1072.04 24.2099 1071.93 24.3257 1071.85 24.4645C1071.59 24.8864 1071.41 25.3583 1071.34 25.851C1071.21 26.6042 1071.15 27.368 1071.16 28.1325C1071.15 28.8653 1071.21 29.5974 1071.34 30.3185Z" fill="#2D2D2D"/>
<path d="M1077.18 25.0199C1077.63 24.1965 1078.34 23.5403 1079.19 23.1487C1080.18 22.7135 1081.26 22.5022 1082.35 22.5297V24.1816C1081.05 24.1816 1080.05 24.5117 1079.36 25.172C1078.65 25.8299 1078.32 26.8168 1078.32 28.1255C1078.32 29.4343 1078.67 30.3292 1079.35 30.9553C1080.04 31.5813 1081.04 31.8926 1082.35 31.8926V33.5444C1080.48 33.5444 1079.03 33.0917 1078.01 32.1862C1077 31.2807 1076.49 29.933 1076.49 28.1361C1076.45 27.0548 1076.69 25.9817 1077.18 25.0199Z" fill="#2D2D2D"/>
<path d="M1083.34 25.0199C1083.79 24.1965 1084.5 23.5403 1085.35 23.1487C1086.34 22.7135 1087.42 22.5022 1088.51 22.5297V24.1816C1087.21 24.1816 1086.21 24.5117 1085.52 25.172C1084.81 25.8299 1084.48 26.8168 1084.48 28.1255C1084.48 29.4343 1084.83 30.3292 1085.52 30.9553C1086.2 31.5813 1087.2 31.8926 1088.51 31.8926V33.5444C1086.64 33.5444 1085.19 33.0917 1084.17 32.1862C1083.16 31.2807 1082.66 29.9224 1082.66 28.1255C1082.62 27.0487 1082.85 25.9795 1083.34 25.0199Z" fill="#2D2D2D"/>
<path d="M1091.2 22.5296V26.4594L1094.31 23.8313L1096.13 22.2961V33.5443H1094.31V26.0455L1091.2 28.6736V33.5337H1089.37V22.5296H1091.2Z" fill="#2D2D2D"/>
<path d="M1098.83 22.5296V26.4594L1101.94 23.8313L1103.76 22.2961V33.5443H1101.94V26.0455L1098.82 28.6736V33.5337H1096.99V22.5296H1098.83Z" fill="#2D2D2D"/>
</g>
<defs>
<clipPath id="clip0_43_770">
<rect width="120" height="40" fill="white" transform="translate(161.167 8)"/>
</clipPath>
<clipPath id="clip1_43_770">
<rect width="120" height="40" fill="white" transform="translate(361.333 8)"/>
</clipPath>
<clipPath id="clip2_43_770">
<rect width="65" height="40" fill="white" transform="translate(561.5 8)"/>
</clipPath>
<clipPath id="clip3_43_770">
<rect width="84" height="40" fill="white" transform="translate(706.667 8)"/>
</clipPath>
<clipPath id="clip4_43_770">
<rect width="71" height="40" fill="white" transform="translate(870.833 8)"/>
</clipPath>
</defs>
</svg>
