<svg width="56" height="56" viewBox="0 0 56 56" fill="none" xmlns="http://www.w3.org/2000/svg">
<path d="M15.065 4.13852H13.6582V3.4351C13.6582 3.0365 13.963 2.73169 14.3616 2.73169C14.7602 2.73169 15.065 3.0365 15.065 3.4351V4.13852Z" fill="black"/>
<path d="M19.1627 4.13852H18.4593C18.0607 4.13852 17.7559 3.83371 17.7559 3.4351C17.7559 3.0365 18.0607 2.73169 18.4593 2.73169H19.1627V4.13852Z" fill="black"/>
<path d="M20.5289 2.73169H19.1221V4.13852H20.5289V2.73169Z" fill="black"/>
<path d="M21.8941 2.73169H20.4873V4.13852H21.8941V2.73169Z" fill="black"/>
<path d="M23.2603 2.73169H21.8535V4.13852H23.2603V2.73169Z" fill="black"/>
<path d="M23.9231 4.13852H23.2197V2.73169H23.9231C24.3217 2.73169 24.6266 3.0365 24.6266 3.4351C24.6266 3.83371 24.3217 4.13852 23.9231 4.13852Z" fill="black"/>
<path d="M34.1871 4.13852H32.7803V3.4351C32.7803 3.0365 33.0851 2.73169 33.4837 2.73169C33.8823 2.73169 34.1871 3.0365 34.1871 3.4351V4.13852Z" fill="black"/>
<path d="M38.9466 4.13852C39.3351 4.13852 39.65 3.82359 39.65 3.4351C39.65 3.04662 39.3351 2.73169 38.9466 2.73169C38.5581 2.73169 38.2432 3.04662 38.2432 3.4351C38.2432 3.82359 38.5581 4.13852 38.9466 4.13852Z" fill="black"/>
<path d="M41.679 4.13852C42.0675 4.13852 42.3824 3.82359 42.3824 3.4351C42.3824 3.04662 42.0675 2.73169 41.679 2.73169C41.2905 2.73169 40.9756 3.04662 40.9756 3.4351C40.9756 3.82359 41.2905 4.13852 41.679 4.13852Z" fill="black"/>
<path d="M15.065 4.09753H13.6582V5.50436H15.065V4.09753Z" fill="black"/>
<path d="M17.0931 5.50436C17.4815 5.50436 17.7965 5.18943 17.7965 4.80095C17.7965 4.41246 17.4815 4.09753 17.0931 4.09753C16.7046 4.09753 16.3896 4.41246 16.3896 4.80095C16.3896 5.18943 16.7046 5.50436 17.0931 5.50436Z" fill="black"/>
<path d="M20.5289 4.09753H19.1221V5.50436H20.5289V4.09753Z" fill="black"/>
<path d="M28.7232 5.50436H27.3164V4.80095C27.3164 4.40235 27.6212 4.09753 28.0198 4.09753C28.4184 4.09753 28.7232 4.40235 28.7232 4.80095V5.50436Z" fill="black"/>
<path d="M33.4837 5.50436C33.0851 5.50436 32.7803 5.19955 32.7803 4.80095V4.09753H34.1871V4.80095C34.1871 5.19955 33.8823 5.50436 33.4837 5.50436Z" fill="black"/>
<path d="M36.9185 5.50436H35.5117V4.80095C35.5117 4.40235 35.8165 4.09753 36.2151 4.09753H36.9185V5.50436Z" fill="black"/>
<path d="M37.5813 5.50436H36.8779V4.09753H37.5813C37.9799 4.09753 38.2848 4.40235 38.2848 4.80095C38.2848 5.19955 37.9799 5.50436 37.5813 5.50436Z" fill="black"/>
<path d="M40.3128 5.50436C40.7013 5.50436 41.0162 5.18943 41.0162 4.80095C41.0162 4.41246 40.7013 4.09753 40.3128 4.09753C39.9243 4.09753 39.6094 4.41246 39.6094 4.80095C39.6094 5.18943 39.9243 5.50436 40.3128 5.50436Z" fill="black"/>
<path d="M14.3616 6.87021C13.963 6.87021 13.6582 6.5654 13.6582 6.16679V5.46338H15.065V6.16679C15.065 6.5654 14.7602 6.87021 14.3616 6.87021Z" fill="black"/>
<path d="M19.8255 6.87021C19.4269 6.87021 19.1221 6.5654 19.1221 6.16679V5.46338H20.5289V6.16679C20.5289 6.5654 20.2241 6.87021 19.8255 6.87021Z" fill="black"/>
<path d="M24.6266 6.87021H23.2197V6.16679C23.2197 5.76819 23.5245 5.46338 23.9231 5.46338H24.6266V6.87021Z" fill="black"/>
<path d="M25.2884 6.87021H24.585V5.46338H25.2884C25.687 5.46338 25.9918 5.76819 25.9918 6.16679C25.9918 6.5654 25.687 6.87021 25.2884 6.87021Z" fill="black"/>
<path d="M28.7232 5.46338H27.3164V6.87021H28.7232V5.46338Z" fill="black"/>
<path d="M30.0894 5.46338H28.6826V6.87021H30.0894V5.46338Z" fill="black"/>
<path d="M31.4557 6.87021H30.0488V5.46338H30.7522C31.1508 5.46338 31.4557 5.76819 31.4557 6.16679V6.87021Z" fill="black"/>
<path d="M35.5533 6.87021H34.8499C34.4513 6.87021 34.1465 6.5654 34.1465 6.16679C34.1465 5.76819 34.4513 5.46338 34.8499 5.46338H35.5533V6.87021Z" fill="black"/>
<path d="M36.2151 6.87021H35.5117V5.46338H36.9185V6.16679C36.9185 6.5654 36.6137 6.87021 36.2151 6.87021Z" fill="black"/>
<path d="M39.65 6.87021H38.2432V6.16679C38.2432 5.76819 38.548 5.46338 38.9466 5.46338C39.3452 5.46338 39.65 5.76819 39.65 6.16679V6.87021Z" fill="black"/>
<path d="M17.0931 8.23605C17.4815 8.23605 17.7965 7.92112 17.7965 7.53264C17.7965 7.14415 17.4815 6.82922 17.0931 6.82922C16.7046 6.82922 16.3896 7.14415 16.3896 7.53264C16.3896 7.92112 16.7046 8.23605 17.0931 8.23605Z" fill="black"/>
<path d="M21.8941 8.23605H21.1907C20.7921 8.23605 20.4873 7.93124 20.4873 7.53264C20.4873 7.13404 20.7921 6.82922 21.1907 6.82922H21.8941V8.23605Z" fill="black"/>
<path d="M23.2603 6.82922H21.8535V8.23605H23.2603V6.82922Z" fill="black"/>
<path d="M24.6266 6.82922H23.2197V8.23605H24.6266V6.82922Z" fill="black"/>
<path d="M28.7232 6.82922H27.3164V8.23605H28.7232V6.82922Z" fill="black"/>
<path d="M30.0894 6.82922H28.6826V8.23605H30.0894V6.82922Z" fill="black"/>
<path d="M31.4557 6.82922H30.0488V8.23605H31.4557V6.82922Z" fill="black"/>
<path d="M32.1175 8.23605H31.4141V6.82922H32.1175C32.5161 6.82922 32.8209 7.13404 32.8209 7.53264C32.8209 7.93124 32.5161 8.23605 32.1175 8.23605Z" fill="black"/>
<path d="M38.2848 8.23605H37.5813C37.1827 8.23605 36.8779 7.93124 36.8779 7.53264C36.8779 7.13404 37.1827 6.82922 37.5813 6.82922H38.2848V8.23605Z" fill="black"/>
<path d="M39.65 6.82922H38.2432V8.23605H39.65V6.82922Z" fill="black"/>
<path d="M40.3128 8.23605H39.6094V6.82922H40.3128C40.7114 6.82922 41.0162 7.13404 41.0162 7.53264C41.0162 7.93124 40.7114 8.23605 40.3128 8.23605Z" fill="black"/>
<path d="M20.5289 9.6019H19.1221V8.89848C19.1221 8.49988 19.4269 8.19507 19.8255 8.19507C20.2241 8.19507 20.5289 8.49988 20.5289 8.89848V9.6019Z" fill="black"/>
<path d="M23.2603 9.6019H22.5569C22.1583 9.6019 21.8535 9.29708 21.8535 8.89848V8.19507H23.2603V9.6019Z" fill="black"/>
<path d="M24.6266 8.19507H23.2197V9.6019H24.6266V8.19507Z" fill="black"/>
<path d="M25.9918 8.19507H24.585V9.6019H25.9918V8.19507Z" fill="black"/>
<path d="M27.358 8.19507H25.9512V9.6019H27.358V8.19507Z" fill="black"/>
<path d="M28.0198 9.6019H27.3164V8.19507H28.7232V8.89848C28.7232 9.29708 28.4184 9.6019 28.0198 9.6019Z" fill="black"/>
<path d="M35.5533 9.6019H34.8499C34.4513 9.6019 34.1465 9.29708 34.1465 8.89848C34.1465 8.49988 34.4513 8.19507 34.8499 8.19507H35.5533V9.6019Z" fill="black"/>
<path d="M36.9185 9.6019H35.5117V8.19507H36.2151C36.6137 8.19507 36.9185 8.49988 36.9185 8.89848V9.6019Z" fill="black"/>
<path d="M15.065 10.9677H13.6582V10.2643C13.6582 9.86573 13.963 9.56091 14.3616 9.56091C14.7602 9.56091 15.065 9.86573 15.065 10.2643V10.9677Z" fill="black"/>
<path d="M17.7965 10.9677H16.3896V10.2643C16.3896 9.86573 16.6945 9.56091 17.0931 9.56091H17.7965V10.9677Z" fill="black"/>
<path d="M19.1627 9.56091H17.7559V10.9677H19.1627V9.56091Z" fill="black"/>
<path d="M20.5289 9.56091H19.1221V10.9677H20.5289V9.56091Z" fill="black"/>
<path d="M21.1907 10.9677H20.4873V9.56091H21.1907C21.5893 9.56091 21.8941 9.86573 21.8941 10.2643C21.8941 10.6629 21.5893 10.9677 21.1907 10.9677Z" fill="black"/>
<path d="M23.9231 10.9677C23.5245 10.9677 23.2197 10.6629 23.2197 10.2643V9.56091H24.6266V10.2643C24.6266 10.6629 24.3217 10.9677 23.9231 10.9677Z" fill="black"/>
<path d="M26.6546 10.9677C26.256 10.9677 25.9512 10.6629 25.9512 10.2643V9.56091H27.358V10.2643C27.358 10.6629 27.0532 10.9677 26.6546 10.9677Z" fill="black"/>
<path d="M29.386 10.9677C29.7745 10.9677 30.0894 10.6528 30.0894 10.2643C30.0894 9.87584 29.7745 9.56091 29.386 9.56091C28.9975 9.56091 28.6826 9.87584 28.6826 10.2643C28.6826 10.6528 28.9975 10.9677 29.386 10.9677Z" fill="black"/>
<path d="M32.8209 10.9677H32.1175C31.7189 10.9677 31.4141 10.6629 31.4141 10.2643C31.4141 9.86573 31.7189 9.56091 32.1175 9.56091H32.8209V10.9677Z" fill="black"/>
<path d="M34.1871 10.9677H32.7803V9.56091H33.4837C33.8823 9.56091 34.1871 9.86573 34.1871 10.2643V10.9677Z" fill="black"/>
<path d="M36.9185 9.56091H35.5117V10.9677H36.9185V9.56091Z" fill="black"/>
<path d="M39.65 10.9677H38.2432V10.2643C38.2432 9.86573 38.548 9.56091 38.9466 9.56091H39.65V10.9677Z" fill="black"/>
<path d="M41.0162 9.56091H39.6094V10.9677H41.0162V9.56091Z" fill="black"/>
<path d="M42.3824 10.9677H40.9756V9.56091H41.679C42.0776 9.56091 42.3824 9.86573 42.3824 10.2643V10.9677Z" fill="black"/>
<path d="M15.065 10.9268H13.6582V12.3336H15.065V10.9268Z" fill="black"/>
<path d="M17.7965 10.9268H16.3896V12.3336H17.7965V10.9268Z" fill="black"/>
<path d="M20.5289 10.9268H19.1221V12.3336H20.5289V10.9268Z" fill="black"/>
<path d="M23.2603 12.3336H21.8535V11.6302C21.8535 11.2316 22.1583 10.9268 22.5569 10.9268C22.9555 10.9268 23.2603 11.2316 23.2603 11.6302V12.3336Z" fill="black"/>
<path d="M25.2884 12.3336C25.6769 12.3336 25.9918 12.0187 25.9918 11.6302C25.9918 11.2417 25.6769 10.9268 25.2884 10.9268C24.8999 10.9268 24.585 11.2417 24.585 11.6302C24.585 12.0187 24.8999 12.3336 25.2884 12.3336Z" fill="black"/>
<path d="M28.7232 12.3336H27.3164V11.6302C27.3164 11.2316 27.6212 10.9268 28.0198 10.9268C28.4184 10.9268 28.7232 11.2316 28.7232 11.6302V12.3336Z" fill="black"/>
<path d="M31.4557 12.3336H30.0488V11.6302C30.0488 11.2316 30.3536 10.9268 30.7522 10.9268C31.1508 10.9268 31.4557 11.2316 31.4557 11.6302V12.3336Z" fill="black"/>
<path d="M33.4837 12.3336C33.0851 12.3336 32.7803 12.0288 32.7803 11.6302V10.9268H34.1871V11.6302C34.1871 12.0288 33.8823 12.3336 33.4837 12.3336Z" fill="black"/>
<path d="M36.2151 12.3336C35.8165 12.3336 35.5117 12.0288 35.5117 11.6302V10.9268H36.9185V11.6302C36.9185 12.0288 36.6137 12.3336 36.2151 12.3336Z" fill="black"/>
<path d="M38.9466 12.3336C38.548 12.3336 38.2432 12.0288 38.2432 11.6302V10.9268H39.65V11.6302C39.65 12.0288 39.3452 12.3336 38.9466 12.3336Z" fill="black"/>
<path d="M42.3824 10.9268H40.9756V12.3336H42.3824V10.9268Z" fill="black"/>
<path d="M15.065 12.2927H13.6582V13.6996H15.065V12.2927Z" fill="black"/>
<path d="M17.7965 12.2927H16.3896V13.6996H17.7965V12.2927Z" fill="black"/>
<path d="M19.1627 12.2927H17.7559V13.6996H19.1627V12.2927Z" fill="black"/>
<path d="M20.5289 12.2927H19.1221V13.6996H20.5289V12.2927Z" fill="black"/>
<path d="M21.8941 12.2927H20.4873V13.6996H21.8941V12.2927Z" fill="black"/>
<path d="M23.2603 12.2927H21.8535V13.6996H23.2603V12.2927Z" fill="black"/>
<path d="M23.9231 13.6996H23.2197V12.2927H23.9231C24.3217 12.2927 24.6266 12.5975 24.6266 12.9961C24.6266 13.3947 24.3217 13.6996 23.9231 13.6996Z" fill="black"/>
<path d="M27.358 13.6996H25.9512V12.9961C25.9512 12.5975 26.256 12.2927 26.6546 12.2927H27.358V13.6996Z" fill="black"/>
<path d="M28.0198 13.6996H27.3164V12.2927H28.7232V12.9961C28.7232 13.3947 28.4184 13.6996 28.0198 13.6996Z" fill="black"/>
<path d="M31.4557 12.2927H30.0488V13.6996H31.4557V12.2927Z" fill="black"/>
<path d="M34.8499 13.6996C35.2384 13.6996 35.5533 13.3846 35.5533 12.9961C35.5533 12.6077 35.2384 12.2927 34.8499 12.2927C34.4614 12.2927 34.1465 12.6077 34.1465 12.9961C34.1465 13.3846 34.4614 13.6996 34.8499 13.6996Z" fill="black"/>
<path d="M41.679 13.6996C41.2804 13.6996 40.9756 13.3947 40.9756 12.9961V12.2927H42.3824V12.9961C42.3824 13.3947 42.0776 13.6996 41.679 13.6996Z" fill="black"/>
<path d="M6.86972 15.0654H5.46289V14.362C5.46289 13.9634 5.7677 13.6586 6.16631 13.6586H6.86972V15.0654Z" fill="black"/>
<path d="M8.23593 13.6586H6.8291V15.0654H8.23593V13.6586Z" fill="black"/>
<path d="M9.60214 15.0654H8.19531V13.6586H8.89873C9.29733 13.6586 9.60214 13.9634 9.60214 14.362V15.0654Z" fill="black"/>
<path d="M11.6302 15.0654C12.0187 15.0654 12.3336 14.7505 12.3336 14.362C12.3336 13.9735 12.0187 13.6586 11.6302 13.6586C11.2417 13.6586 10.9268 13.9735 10.9268 14.362C10.9268 14.7505 11.2417 15.0654 11.6302 15.0654Z" fill="black"/>
<path d="M15.065 15.0654H14.3616C13.963 15.0654 13.6582 14.7606 13.6582 14.362V13.6586H15.065V15.0654Z" fill="black"/>
<path d="M16.4312 13.6586H15.0244V15.0654H16.4312V13.6586Z" fill="black"/>
<path d="M17.7965 13.6586H16.3896V15.0654H17.7965V13.6586Z" fill="black"/>
<path d="M25.9918 15.0654H25.2884C24.8898 15.0654 24.585 14.7606 24.585 14.362C24.585 13.9634 24.8898 13.6586 25.2884 13.6586H25.9918V15.0654Z" fill="black"/>
<path d="M26.6546 15.0654H25.9512V13.6586H27.358V14.362C27.358 14.7606 27.0532 15.0654 26.6546 15.0654Z" fill="black"/>
<path d="M31.4557 13.6586H30.0488V15.0654H31.4557V13.6586Z" fill="black"/>
<path d="M34.1871 15.0654H32.7803V14.362C32.7803 13.9634 33.0851 13.6586 33.4837 13.6586C33.8823 13.6586 34.1871 13.9634 34.1871 14.362V15.0654Z" fill="black"/>
<path d="M36.9185 15.0654H36.2151C35.8165 15.0654 35.5117 14.7606 35.5117 14.362C35.5117 13.9634 35.8165 13.6586 36.2151 13.6586H36.9185V15.0654Z" fill="black"/>
<path d="M38.2848 15.0654H36.8779V13.6586H37.5813C37.9799 13.6586 38.2848 13.9634 38.2848 14.362V15.0654Z" fill="black"/>
<path d="M43.7476 15.0654H42.3408V14.362C42.3408 13.9634 42.6456 13.6586 43.0442 13.6586H43.7476V15.0654Z" fill="black"/>
<path d="M45.1139 13.6586H43.707V15.0654H45.1139V13.6586Z" fill="black"/>
<path d="M46.4801 15.0654H45.0732V13.6586H45.7767C46.1753 13.6586 46.4801 13.9634 46.4801 14.362V15.0654Z" fill="black"/>
<path d="M50.5777 15.0654H49.8743C49.4757 15.0654 49.1709 14.7606 49.1709 14.362C49.1709 13.9634 49.4757 13.6586 49.8743 13.6586H50.5777V15.0654Z" fill="black"/>
<path d="M51.943 13.6586H50.5361V15.0654H51.943V13.6586Z" fill="black"/>
<path d="M52.6058 15.0654H51.9023V13.6586H52.6058C53.0044 13.6586 53.3092 13.9634 53.3092 14.362C53.3092 14.7606 53.0044 15.0654 52.6058 15.0654Z" fill="black"/>
<path d="M6.16631 16.4312C5.7677 16.4312 5.46289 16.1264 5.46289 15.7278V15.0244H6.86972V15.7278C6.86972 16.1264 6.56491 16.4312 6.16631 16.4312Z" fill="black"/>
<path d="M8.89873 16.4312C8.50013 16.4312 8.19531 16.1264 8.19531 15.7278V15.0244H9.60214V15.7278C9.60214 16.1264 9.29733 16.4312 8.89873 16.4312Z" fill="black"/>
<path d="M16.4312 15.0244H15.0244V16.4312H16.4312V15.0244Z" fill="black"/>
<path d="M17.7965 15.0244H16.3896V16.4312H17.7965V15.0244Z" fill="black"/>
<path d="M21.1907 16.4312C21.5792 16.4312 21.8941 16.1163 21.8941 15.7278C21.8941 15.3393 21.5792 15.0244 21.1907 15.0244C20.8022 15.0244 20.4873 15.3393 20.4873 15.7278C20.4873 16.1163 20.8022 16.4312 21.1907 16.4312Z" fill="black"/>
<path d="M28.7232 16.4312H27.3164V15.7278C27.3164 15.3292 27.6212 15.0244 28.0198 15.0244C28.4184 15.0244 28.7232 15.3292 28.7232 15.7278V16.4312Z" fill="black"/>
<path d="M31.4557 15.0244H30.0488V16.4312H31.4557V15.0244Z" fill="black"/>
<path d="M34.1871 15.0244H32.7803V16.4312H34.1871V15.0244Z" fill="black"/>
<path d="M38.2848 15.0244H36.8779V16.4312H38.2848V15.0244Z" fill="black"/>
<path d="M39.65 16.4312H38.2432V15.0244H38.9466C39.3452 15.0244 39.65 15.3292 39.65 15.7278V16.4312Z" fill="black"/>
<path d="M42.3824 16.4312H40.9756V15.7278C40.9756 15.3292 41.2804 15.0244 41.679 15.0244H42.3824V16.4312Z" fill="black"/>
<path d="M43.0442 16.4312H42.3408V15.0244H43.7476V15.7278C43.7476 16.1264 43.4428 16.4312 43.0442 16.4312Z" fill="black"/>
<path d="M45.7767 16.4312C45.3781 16.4312 45.0732 16.1264 45.0732 15.7278V15.0244H46.4801V15.7278C46.4801 16.1264 46.1753 16.4312 45.7767 16.4312Z" fill="black"/>
<path d="M51.943 15.0244H50.5361V16.4312H51.943V15.0244Z" fill="black"/>
<path d="M10.9674 17.7971H9.56055V17.0937C9.56055 16.6951 9.86536 16.3903 10.264 16.3903H10.9674V17.7971Z" fill="black"/>
<path d="M12.3336 16.3903H10.9268V17.7971H12.3336V16.3903Z" fill="black"/>
<path d="M13.6988 16.3903H12.292V17.7971H13.6988V16.3903Z" fill="black"/>
<path d="M15.065 16.3903H13.6582V17.7971H15.065V16.3903Z" fill="black"/>
<path d="M16.4312 16.3903H15.0244V17.7971H16.4312V16.3903Z" fill="black"/>
<path d="M17.7965 16.3903H16.3896V17.7971H17.7965V16.3903Z" fill="black"/>
<path d="M19.1627 16.3903H17.7559V17.7971H19.1627V16.3903Z" fill="black"/>
<path d="M19.8255 17.7971H19.1221V16.3903H19.8255C20.2241 16.3903 20.5289 16.6951 20.5289 17.0937C20.5289 17.4923 20.2241 17.7971 19.8255 17.7971Z" fill="black"/>
<path d="M23.2603 17.7971H21.8535V17.0937C21.8535 16.6951 22.1583 16.3903 22.5569 16.3903H23.2603V17.7971Z" fill="black"/>
<path d="M23.9231 17.7971H23.2197V16.3903H23.9231C24.3217 16.3903 24.6266 16.6951 24.6266 17.0937C24.6266 17.4923 24.3217 17.7971 23.9231 17.7971Z" fill="black"/>
<path d="M27.358 17.7971H26.6546C26.256 17.7971 25.9512 17.4923 25.9512 17.0937C25.9512 16.6951 26.256 16.3903 26.6546 16.3903H27.358V17.7971Z" fill="black"/>
<path d="M28.7232 16.3903H27.3164V17.7971H28.7232V16.3903Z" fill="black"/>
<path d="M31.4557 16.3903H30.0488V17.7971H31.4557V16.3903Z" fill="black"/>
<path d="M34.1871 16.3903H32.7803V17.7971H34.1871V16.3903Z" fill="black"/>
<path d="M35.5533 16.3903H34.1465V17.7971H35.5533V16.3903Z" fill="black"/>
<path d="M36.9185 16.3903H35.5117V17.7971H36.9185V16.3903Z" fill="black"/>
<path d="M38.2848 16.3903H36.8779V17.7971H38.2848V16.3903Z" fill="black"/>
<path d="M39.65 16.3903H38.2432V17.7971H39.65V16.3903Z" fill="black"/>
<path d="M41.0162 16.3903H39.6094V17.7971H41.0162V16.3903Z" fill="black"/>
<path d="M41.679 17.7971H40.9756V16.3903H42.3824V17.0937C42.3824 17.4923 42.0776 17.7971 41.679 17.7971Z" fill="black"/>
<path d="M45.1139 17.7971H43.707V17.0937C43.707 16.6951 44.0118 16.3903 44.4104 16.3903C44.809 16.3903 45.1139 16.6951 45.1139 17.0937V17.7971Z" fill="black"/>
<path d="M51.943 16.3903H50.5361V17.7971H51.943V16.3903Z" fill="black"/>
<path d="M53.3092 17.7971H51.9023V16.3903H52.6058C53.0044 16.3903 53.3092 16.6951 53.3092 17.0937V17.7971Z" fill="black"/>
<path d="M6.86972 19.1629H5.46289V18.4595C5.46289 18.0609 5.7677 17.7561 6.16631 17.7561H6.86972V19.1629Z" fill="black"/>
<path d="M8.23593 17.7561H6.8291V19.1629H8.23593V17.7561Z" fill="black"/>
<path d="M9.60214 17.7561H8.19531V19.1629H9.60214V17.7561Z" fill="black"/>
<path d="M10.264 19.1629H9.56055V17.7561H10.9674V18.4595C10.9674 18.8581 10.6626 19.1629 10.264 19.1629Z" fill="black"/>
<path d="M13.6988 19.1629H12.9954C12.5968 19.1629 12.292 18.8581 12.292 18.4595V17.7561H13.6988V19.1629Z" fill="black"/>
<path d="M15.065 17.7561H13.6582V19.1629H15.065V17.7561Z" fill="black"/>
<path d="M19.1627 17.7561H17.7559V19.1629H19.1627V17.7561Z" fill="black"/>
<path d="M22.5569 19.1629C22.1583 19.1629 21.8535 18.8581 21.8535 18.4595V17.7561H23.2603V18.4595C23.2603 18.8581 22.9555 19.1629 22.5569 19.1629Z" fill="black"/>
<path d="M28.0198 19.1629C27.6212 19.1629 27.3164 18.8581 27.3164 18.4595V17.7561H28.7232V18.4595C28.7232 18.8581 28.4184 19.1629 28.0198 19.1629Z" fill="black"/>
<path d="M31.4557 17.7561H30.0488V19.1629H31.4557V17.7561Z" fill="black"/>
<path d="M32.8209 17.7561H31.4141V19.1629H32.8209V17.7561Z" fill="black"/>
<path d="M34.1871 17.7561H32.7803V19.1629H34.1871V17.7561Z" fill="black"/>
<path d="M35.5533 17.7561H34.1465V19.1629H35.5533V17.7561Z" fill="black"/>
<path d="M39.65 17.7561H38.2432V19.1629H39.65V17.7561Z" fill="black"/>
<path d="M40.3128 19.1629H39.6094V17.7561H41.0162V18.4595C41.0162 18.8581 40.7114 19.1629 40.3128 19.1629Z" fill="black"/>
<path d="M45.1139 17.7561H43.707V19.1629H45.1139V17.7561Z" fill="black"/>
<path d="M47.8453 19.1629H46.4385V18.4595C46.4385 18.0609 46.7433 17.7561 47.1419 17.7561H47.8453V19.1629Z" fill="black"/>
<path d="M49.2115 19.1629H47.8047V17.7561H48.5081C48.9067 17.7561 49.2115 18.0609 49.2115 18.4595V19.1629Z" fill="black"/>
<path d="M51.943 17.7561H50.5361V19.1629H51.943V17.7561Z" fill="black"/>
<path d="M53.3092 17.7561H51.9023V19.1629H53.3092V17.7561Z" fill="black"/>
<path d="M6.86972 20.5288H6.16631C5.7677 20.5288 5.46289 20.224 5.46289 19.8254V19.1219H6.86972V20.5288Z" fill="black"/>
<path d="M8.23593 19.1219H6.8291V20.5288H8.23593V19.1219Z" fill="black"/>
<path d="M11.6302 20.5288C12.0187 20.5288 12.3336 20.2138 12.3336 19.8254C12.3336 19.4369 12.0187 19.1219 11.6302 19.1219C11.2417 19.1219 10.9268 19.4369 10.9268 19.8254C10.9268 20.2138 11.2417 20.5288 11.6302 20.5288Z" fill="black"/>
<path d="M14.3616 20.5288C13.963 20.5288 13.6582 20.224 13.6582 19.8254V19.1219H15.065V19.8254C15.065 20.224 14.7602 20.5288 14.3616 20.5288Z" fill="black"/>
<path d="M18.4593 20.5288C18.0607 20.5288 17.7559 20.224 17.7559 19.8254V19.1219H19.1627V19.8254C19.1627 20.224 18.8579 20.5288 18.4593 20.5288Z" fill="black"/>
<path d="M24.6266 20.5288H23.2197V19.8254C23.2197 19.4268 23.5245 19.1219 23.9231 19.1219C24.3217 19.1219 24.6266 19.4268 24.6266 19.8254V20.5288Z" fill="black"/>
<path d="M30.7522 20.5288C30.3536 20.5288 30.0488 20.224 30.0488 19.8254V19.1219H31.4557V19.8254C31.4557 20.224 31.1508 20.5288 30.7522 20.5288Z" fill="black"/>
<path d="M35.5533 20.5288H34.8499C34.4513 20.5288 34.1465 20.224 34.1465 19.8254V19.1219H35.5533V20.5288Z" fill="black"/>
<path d="M36.9185 19.1219H35.5117V20.5288H36.9185V19.1219Z" fill="black"/>
<path d="M38.2848 19.1219H36.8779V20.5288H38.2848V19.1219Z" fill="black"/>
<path d="M38.9466 20.5288H38.2432V19.1219H39.65V19.8254C39.65 20.224 39.3452 20.5288 38.9466 20.5288Z" fill="black"/>
<path d="M42.3824 20.5288H40.9756V19.8254C40.9756 19.4268 41.2804 19.1219 41.679 19.1219H42.3824V20.5288Z" fill="black"/>
<path d="M43.7476 19.1219H42.3408V20.5288H43.7476V19.1219Z" fill="black"/>
<path d="M44.4104 20.5288H43.707V19.1219H45.1139V19.8254C45.1139 20.224 44.809 20.5288 44.4104 20.5288Z" fill="black"/>
<path d="M47.8453 20.5288H47.1419C46.7433 20.5288 46.4385 20.224 46.4385 19.8254V19.1219H47.8453V20.5288Z" fill="black"/>
<path d="M49.2115 19.1219H47.8047V20.5288H49.2115V19.1219Z" fill="black"/>
<path d="M50.5777 19.1219H49.1709V20.5288H50.5777V19.1219Z" fill="black"/>
<path d="M51.943 19.1219H50.5361V20.5288H51.943V19.1219Z" fill="black"/>
<path d="M52.6058 20.5288H51.9023V19.1219H53.3092V19.8254C53.3092 20.224 53.0044 20.5288 52.6058 20.5288Z" fill="black"/>
<path d="M5.50449 21.8946H4.09766V21.1912C4.09766 20.7926 4.40247 20.4878 4.80107 20.4878C5.19967 20.4878 5.50449 20.7926 5.50449 21.1912V21.8946Z" fill="black"/>
<path d="M8.23593 20.4878H6.8291V21.8946H8.23593V20.4878Z" fill="black"/>
<path d="M9.60214 20.4878H8.19531V21.8946H9.60214V20.4878Z" fill="black"/>
<path d="M10.9674 21.8946H9.56055V20.4878H10.264C10.6626 20.4878 10.9674 20.7926 10.9674 21.1912V21.8946Z" fill="black"/>
<path d="M12.9954 21.8946C13.3839 21.8946 13.6988 21.5797 13.6988 21.1912C13.6988 20.8027 13.3839 20.4878 12.9954 20.4878C12.6069 20.4878 12.292 20.8027 12.292 21.1912C12.292 21.5797 12.6069 21.8946 12.9954 21.8946Z" fill="black"/>
<path d="M16.4312 21.8946H15.7278C15.3292 21.8946 15.0244 21.5898 15.0244 21.1912C15.0244 20.7926 15.3292 20.4878 15.7278 20.4878H16.4312V21.8946Z" fill="black"/>
<path d="M17.0931 21.8946H16.3896V20.4878H17.0931C17.4917 20.4878 17.7965 20.7926 17.7965 21.1912C17.7965 21.5898 17.4917 21.8946 17.0931 21.8946Z" fill="black"/>
<path d="M24.6266 21.8946H23.9231C23.5245 21.8946 23.2197 21.5898 23.2197 21.1912V20.4878H24.6266V21.8946Z" fill="black"/>
<path d="M25.9918 20.4878H24.585V21.8946H25.9918V20.4878Z" fill="black"/>
<path d="M27.358 20.4878H25.9512V21.8946H27.358V20.4878Z" fill="black"/>
<path d="M28.7232 20.4878H27.3164V21.8946H28.7232V20.4878Z" fill="black"/>
<path d="M30.0894 21.8946H28.6826V20.4878H29.386C29.7846 20.4878 30.0894 20.7926 30.0894 21.1912V21.8946Z" fill="black"/>
<path d="M32.8209 21.8946H32.1175C31.7189 21.8946 31.4141 21.5898 31.4141 21.1912C31.4141 20.7926 31.7189 20.4878 32.1175 20.4878H32.8209V21.8946Z" fill="black"/>
<path d="M33.4837 21.8946H32.7803V20.4878H33.4837C33.8823 20.4878 34.1871 20.7926 34.1871 21.1912C34.1871 21.5898 33.8823 21.8946 33.4837 21.8946Z" fill="black"/>
<path d="M42.3824 20.4878H40.9756V21.8946H42.3824V20.4878Z" fill="black"/>
<path d="M43.0442 21.8946H42.3408V20.4878H43.7476V21.1912C43.7476 21.5898 43.4428 21.8946 43.0442 21.8946Z" fill="black"/>
<path d="M46.4801 21.8946H45.0732V21.1912C45.0732 20.7926 45.3781 20.4878 45.7767 20.4878C46.1753 20.4878 46.4801 20.7926 46.4801 21.1912V21.8946Z" fill="black"/>
<path d="M49.2115 20.4878H47.8047V21.8946H49.2115V20.4878Z" fill="black"/>
<path d="M49.8743 21.8946H49.1709V20.4878H50.5777V21.1912C50.5777 21.5898 50.2729 21.8946 49.8743 21.8946Z" fill="black"/>
<path d="M5.50449 21.8536H4.09766V23.2605H5.50449V21.8536Z" fill="black"/>
<path d="M8.23593 21.8536H6.8291V23.2605H8.23593V21.8536Z" fill="black"/>
<path d="M10.9674 23.2605H10.264C9.86536 23.2605 9.56055 22.9557 9.56055 22.5571V21.8536H10.9674V23.2605Z" fill="black"/>
<path d="M11.6302 23.2605H10.9268V21.8536H11.6302C12.0288 21.8536 12.3336 22.1585 12.3336 22.5571C12.3336 22.9557 12.0288 23.2605 11.6302 23.2605Z" fill="black"/>
<path d="M15.065 23.2605H13.6582V22.5571C13.6582 22.1585 13.963 21.8536 14.3616 21.8536C14.7602 21.8536 15.065 22.1585 15.065 22.5571V23.2605Z" fill="black"/>
<path d="M19.1627 23.2605H17.7559V22.5571C17.7559 22.1585 18.0607 21.8536 18.4593 21.8536C18.8579 21.8536 19.1627 22.1585 19.1627 22.5571V23.2605Z" fill="black"/>
<path d="M21.1907 23.2605C21.5792 23.2605 21.8941 22.9455 21.8941 22.5571C21.8941 22.1686 21.5792 21.8536 21.1907 21.8536C20.8022 21.8536 20.4873 22.1686 20.4873 22.5571C20.4873 22.9455 20.8022 23.2605 21.1907 23.2605Z" fill="black"/>
<path d="M25.2884 23.2605C24.8898 23.2605 24.585 22.9557 24.585 22.5571V21.8536H25.9918V22.5571C25.9918 22.9557 25.687 23.2605 25.2884 23.2605Z" fill="black"/>
<path d="M30.0894 21.8536H28.6826V23.2605H30.0894V21.8536Z" fill="black"/>
<path d="M35.5533 23.2605H34.1465V22.5571C34.1465 22.1585 34.4513 21.8536 34.8499 21.8536C35.2485 21.8536 35.5533 22.1585 35.5533 22.5571V23.2605Z" fill="black"/>
<path d="M39.65 23.2605H38.2432V22.5571C38.2432 22.1585 38.548 21.8536 38.9466 21.8536H39.65V23.2605Z" fill="black"/>
<path d="M41.0162 21.8536H39.6094V23.2605H41.0162V21.8536Z" fill="black"/>
<path d="M42.3824 21.8536H40.9756V23.2605H42.3824V21.8536Z" fill="black"/>
<path d="M45.1139 23.2605H44.4104C44.0118 23.2605 43.707 22.9557 43.707 22.5571C43.707 22.1585 44.0118 21.8536 44.4104 21.8536H45.1139V23.2605Z" fill="black"/>
<path d="M45.7767 23.2605H45.0732V21.8536H46.4801V22.5571C46.4801 22.9557 46.1753 23.2605 45.7767 23.2605Z" fill="black"/>
<path d="M48.5081 23.2605C48.1095 23.2605 47.8047 22.9557 47.8047 22.5571V21.8536H49.2115V22.5571C49.2115 22.9557 48.9067 23.2605 48.5081 23.2605Z" fill="black"/>
<path d="M53.3092 23.2605H51.9023V22.5571C51.9023 22.1585 52.2072 21.8536 52.6058 21.8536C53.0044 21.8536 53.3092 22.1585 53.3092 22.5571V23.2605Z" fill="black"/>
<path d="M4.13827 24.6263H2.73145V23.9229C2.73145 23.5243 3.03626 23.2195 3.43486 23.2195H4.13827V24.6263Z" fill="black"/>
<path d="M5.50449 23.2195H4.09766V24.6263H5.50449V23.2195Z" fill="black"/>
<path d="M7.53252 24.6263C7.13391 24.6263 6.8291 24.3215 6.8291 23.9229V23.2195H8.23593V23.9229C8.23593 24.3215 7.93112 24.6263 7.53252 24.6263Z" fill="black"/>
<path d="M15.065 24.6263H14.3616C13.963 24.6263 13.6582 24.3215 13.6582 23.9229V23.2195H15.065V24.6263Z" fill="black"/>
<path d="M16.4312 23.2195H15.0244V24.6263H16.4312V23.2195Z" fill="black"/>
<path d="M17.7965 23.2195H16.3896V24.6263H17.7965V23.2195Z" fill="black"/>
<path d="M19.1627 23.2195H17.7559V24.6263H19.1627V23.2195Z" fill="black"/>
<path d="M19.8255 24.6263H19.1221V23.2195H19.8255C20.2241 23.2195 20.5289 23.5243 20.5289 23.9229C20.5289 24.3215 20.2241 24.6263 19.8255 24.6263Z" fill="black"/>
<path d="M23.9231 24.6263C24.3116 24.6263 24.6266 24.3114 24.6266 23.9229C24.6266 23.5344 24.3116 23.2195 23.9231 23.2195C23.5347 23.2195 23.2197 23.5344 23.2197 23.9229C23.2197 24.3114 23.5347 24.6263 23.9231 24.6263Z" fill="black"/>
<path d="M30.0894 23.2195H28.6826V24.6263H30.0894V23.2195Z" fill="black"/>
<path d="M30.7522 24.6263H30.0488V23.2195H30.7522C31.1508 23.2195 31.4557 23.5243 31.4557 23.9229C31.4557 24.3215 31.1508 24.6263 30.7522 24.6263Z" fill="black"/>
<path d="M35.5533 24.6263H34.8499C34.4513 24.6263 34.1465 24.3215 34.1465 23.9229V23.2195H35.5533V24.6263Z" fill="black"/>
<path d="M36.9185 24.6263H35.5117V23.2195H36.2151C36.6137 23.2195 36.9185 23.5243 36.9185 23.9229V24.6263Z" fill="black"/>
<path d="M39.65 24.6263H38.9466C38.548 24.6263 38.2432 24.3215 38.2432 23.9229V23.2195H39.65V24.6263Z" fill="black"/>
<path d="M41.0162 23.2195H39.6094V24.6263H41.0162V23.2195Z" fill="black"/>
<path d="M42.3824 23.2195H40.9756V24.6263H42.3824V23.2195Z" fill="black"/>
<path d="M47.8453 24.6263H46.4385V23.9229C46.4385 23.5243 46.7433 23.2195 47.1419 23.2195C47.5405 23.2195 47.8453 23.5243 47.8453 23.9229V24.6263Z" fill="black"/>
<path d="M53.3092 23.2195H51.9023V24.6263H53.3092V23.2195Z" fill="black"/>
<path d="M4.13827 25.9922H3.43486C3.03626 25.9922 2.73145 25.6873 2.73145 25.2887V24.5853H4.13827V25.9922Z" fill="black"/>
<path d="M5.50449 24.5853H4.09766V25.9922H5.50449V24.5853Z" fill="black"/>
<path d="M8.89873 25.9922C9.28721 25.9922 9.60214 25.6772 9.60214 25.2887C9.60214 24.9003 9.28721 24.5853 8.89873 24.5853C8.51024 24.5853 8.19531 24.9003 8.19531 25.2887C8.19531 25.6772 8.51024 25.9922 8.89873 25.9922Z" fill="black"/>
<path d="M11.6302 25.9922C12.0187 25.9922 12.3336 25.6772 12.3336 25.2887C12.3336 24.9003 12.0187 24.5853 11.6302 24.5853C11.2417 24.5853 10.9268 24.9003 10.9268 25.2887C10.9268 25.6772 11.2417 25.9922 11.6302 25.9922Z" fill="black"/>
<path d="M16.4312 25.9922H15.7278C15.3292 25.9922 15.0244 25.6873 15.0244 25.2887V24.5853H16.4312V25.9922Z" fill="black"/>
<path d="M17.7965 24.5853H16.3896V25.9922H17.7965V24.5853Z" fill="black"/>
<path d="M21.1907 25.9922C21.5792 25.9922 21.8941 25.6772 21.8941 25.2887C21.8941 24.9003 21.5792 24.5853 21.1907 24.5853C20.8022 24.5853 20.4873 24.9003 20.4873 25.2887C20.4873 25.6772 20.8022 25.9922 21.1907 25.9922Z" fill="black"/>
<path d="M25.9918 25.9922H25.2884C24.8898 25.9922 24.585 25.6873 24.585 25.2887C24.585 24.8901 24.8898 24.5853 25.2884 24.5853H25.9918V25.9922Z" fill="black"/>
<path d="M27.358 25.9922H25.9512V24.5853H26.6546C27.0532 24.5853 27.358 24.8901 27.358 25.2887V25.9922Z" fill="black"/>
<path d="M29.386 25.9922C28.9874 25.9922 28.6826 25.6873 28.6826 25.2887V24.5853H30.0894V25.2887C30.0894 25.6873 29.7846 25.9922 29.386 25.9922Z" fill="black"/>
<path d="M33.4837 25.9922C33.8722 25.9922 34.1871 25.6772 34.1871 25.2887C34.1871 24.9003 33.8722 24.5853 33.4837 24.5853C33.0952 24.5853 32.7803 24.9003 32.7803 25.2887C32.7803 25.6772 33.0952 25.9922 33.4837 25.9922Z" fill="black"/>
<path d="M36.9185 24.5853H35.5117V25.9922H36.9185V24.5853Z" fill="black"/>
<path d="M38.2848 25.9922H36.8779V24.5853H37.5813C37.9799 24.5853 38.2848 24.8901 38.2848 25.2887V25.9922Z" fill="black"/>
<path d="M42.3824 24.5853H40.9756V25.9922H42.3824V24.5853Z" fill="black"/>
<path d="M43.7476 24.5853H42.3408V25.9922H43.7476V24.5853Z" fill="black"/>
<path d="M44.4104 25.9922H43.707V24.5853H44.4104C44.809 24.5853 45.1139 24.8901 45.1139 25.2887C45.1139 25.6873 44.809 25.9922 44.4104 25.9922Z" fill="black"/>
<path d="M47.1419 25.9922C46.7433 25.9922 46.4385 25.6873 46.4385 25.2887V24.5853H47.8453V25.2887C47.8453 25.6873 47.5405 25.9922 47.1419 25.9922Z" fill="black"/>
<path d="M50.5777 25.9922H49.1709V25.2887C49.1709 24.8901 49.4757 24.5853 49.8743 24.5853C50.2729 24.5853 50.5777 24.8901 50.5777 25.2887V25.9922Z" fill="black"/>
<path d="M52.6058 25.9922C52.2072 25.9922 51.9023 25.6873 51.9023 25.2887V24.5853H53.3092V25.2887C53.3092 25.6873 53.0044 25.9922 52.6058 25.9922Z" fill="black"/>
<path d="M5.50449 25.9512H4.09766V27.358H5.50449V25.9512Z" fill="black"/>
<path d="M15.065 27.358H13.6582V26.6546C13.6582 26.256 13.963 25.9512 14.3616 25.9512C14.7602 25.9512 15.065 26.256 15.065 26.6546V27.358Z" fill="black"/>
<path d="M17.0931 27.358C16.6945 27.358 16.3896 27.0532 16.3896 26.6546V25.9512H17.7965V26.6546C17.7965 27.0532 17.4917 27.358 17.0931 27.358Z" fill="black"/>
<path d="M20.5289 27.358H19.1221V26.6546C19.1221 26.256 19.4269 25.9512 19.8255 25.9512C20.2241 25.9512 20.5289 26.256 20.5289 26.6546V27.358Z" fill="black"/>
<path d="M23.2603 27.358H21.8535V26.6546C21.8535 26.256 22.1583 25.9512 22.5569 25.9512H23.2603V27.358Z" fill="black"/>
<path d="M24.6266 27.358H23.2197V25.9512H23.9231C24.3217 25.9512 24.6266 26.256 24.6266 26.6546V27.358Z" fill="black"/>
<path d="M26.6546 27.358C26.256 27.358 25.9512 27.0532 25.9512 26.6546V25.9512H27.358V26.6546C27.358 27.0532 27.0532 27.358 26.6546 27.358Z" fill="black"/>
<path d="M30.7522 27.358C31.1407 27.358 31.4557 27.0431 31.4557 26.6546C31.4557 26.2661 31.1407 25.9512 30.7522 25.9512C30.3638 25.9512 30.0488 26.2661 30.0488 26.6546C30.0488 27.0431 30.3638 27.358 30.7522 27.358Z" fill="black"/>
<path d="M36.9185 27.358H36.2151C35.8165 27.358 35.5117 27.0532 35.5117 26.6546V25.9512H36.9185V27.358Z" fill="black"/>
<path d="M37.5813 27.358H36.8779V25.9512H38.2848V26.6546C38.2848 27.0532 37.9799 27.358 37.5813 27.358Z" fill="black"/>
<path d="M41.679 27.358C41.2804 27.358 40.9756 27.0532 40.9756 26.6546V25.9512H42.3824V26.6546C42.3824 27.0532 42.0776 27.358 41.679 27.358Z" fill="black"/>
<path d="M46.4801 27.358H45.0732V26.6546C45.0732 26.256 45.3781 25.9512 45.7767 25.9512C46.1753 25.9512 46.4801 26.256 46.4801 26.6546V27.358Z" fill="black"/>
<path d="M49.8743 27.358C49.4757 27.358 49.1709 27.0532 49.1709 26.6546V25.9512H50.5777V26.6546C50.5777 27.0532 50.2729 27.358 49.8743 27.358Z" fill="black"/>
<path d="M4.13827 28.7238H2.73145V28.0204C2.73145 27.6218 3.03626 27.317 3.43486 27.317H4.13827V28.7238Z" fill="black"/>
<path d="M4.80107 28.7238H4.09766V27.317H5.50449V28.0204C5.50449 28.419 5.19967 28.7238 4.80107 28.7238Z" fill="black"/>
<path d="M8.23593 28.7238H6.8291V28.0204C6.8291 27.6218 7.13391 27.317 7.53252 27.317H8.23593V28.7238Z" fill="black"/>
<path d="M9.60214 28.7238H8.19531V27.317H8.89873C9.29733 27.317 9.60214 27.6218 9.60214 28.0204V28.7238Z" fill="black"/>
<path d="M11.6302 28.7238C12.0187 28.7238 12.3336 28.4089 12.3336 28.0204C12.3336 27.6319 12.0187 27.317 11.6302 27.317C11.2417 27.317 10.9268 27.6319 10.9268 28.0204C10.9268 28.4089 11.2417 28.7238 11.6302 28.7238Z" fill="black"/>
<path d="M15.065 28.7238H14.3616C13.963 28.7238 13.6582 28.419 13.6582 28.0204V27.317H15.065V28.7238Z" fill="black"/>
<path d="M15.7278 28.7238H15.0244V27.317H15.7278C16.1264 27.317 16.4312 27.6218 16.4312 28.0204C16.4312 28.419 16.1264 28.7238 15.7278 28.7238Z" fill="black"/>
<path d="M20.5289 27.317H19.1221V28.7238H20.5289V27.317Z" fill="black"/>
<path d="M21.8941 27.317H20.4873V28.7238H21.8941V27.317Z" fill="black"/>
<path d="M23.2603 27.317H21.8535V28.7238H23.2603V27.317Z" fill="black"/>
<path d="M24.6266 27.317H23.2197V28.7238H24.6266V27.317Z" fill="black"/>
<path d="M25.2884 28.7238H24.585V27.317H25.2884C25.687 27.317 25.9918 27.6218 25.9918 28.0204C25.9918 28.419 25.687 28.7238 25.2884 28.7238Z" fill="black"/>
<path d="M34.1871 28.7238H33.4837C33.0851 28.7238 32.7803 28.419 32.7803 28.0204C32.7803 27.6218 33.0851 27.317 33.4837 27.317H34.1871V28.7238Z" fill="black"/>
<path d="M34.8499 28.7238H34.1465V27.317H34.8499C35.2485 27.317 35.5533 27.6218 35.5533 28.0204C35.5533 28.419 35.2485 28.7238 34.8499 28.7238Z" fill="black"/>
<path d="M40.3128 28.7238C40.7013 28.7238 41.0162 28.4089 41.0162 28.0204C41.0162 27.6319 40.7013 27.317 40.3128 27.317C39.9243 27.317 39.6094 27.6319 39.6094 28.0204C39.6094 28.4089 39.9243 28.7238 40.3128 28.7238Z" fill="black"/>
<path d="M45.1139 28.7238H44.4104C44.0118 28.7238 43.707 28.419 43.707 28.0204C43.707 27.6218 44.0118 27.317 44.4104 27.317H45.1139V28.7238Z" fill="black"/>
<path d="M46.4801 27.317H45.0732V28.7238H46.4801V27.317Z" fill="black"/>
<path d="M47.8453 28.7238H46.4385V27.317H47.1419C47.5405 27.317 47.8453 27.6218 47.8453 28.0204V28.7238Z" fill="black"/>
<path d="M51.943 28.7238H50.5361V28.0204C50.5361 27.6218 50.8409 27.317 51.2395 27.317H51.943V28.7238Z" fill="black"/>
<path d="M52.6058 28.7238H51.9023V27.317H52.6058C53.0044 27.317 53.3092 27.6218 53.3092 28.0204C53.3092 28.419 53.0044 28.7238 52.6058 28.7238Z" fill="black"/>
<path d="M3.43486 30.0897C3.03626 30.0897 2.73145 29.7849 2.73145 29.3863V28.6829H4.13827V29.3863C4.13827 29.7849 3.83346 30.0897 3.43486 30.0897Z" fill="black"/>
<path d="M8.23593 28.6829H6.8291V30.0897H8.23593V28.6829Z" fill="black"/>
<path d="M9.60214 28.6829H8.19531V30.0897H9.60214V28.6829Z" fill="black"/>
<path d="M10.264 30.0897H9.56055V28.6829H10.264C10.6626 28.6829 10.9674 28.9877 10.9674 29.3863C10.9674 29.7849 10.6626 30.0897 10.264 30.0897Z" fill="black"/>
<path d="M17.7965 30.0897H16.3896V29.3863C16.3896 28.9877 16.6945 28.6829 17.0931 28.6829C17.4917 28.6829 17.7965 28.9877 17.7965 29.3863V30.0897Z" fill="black"/>
<path d="M20.5289 30.0897H19.8255C19.4269 30.0897 19.1221 29.7849 19.1221 29.3863V28.6829H20.5289V30.0897Z" fill="black"/>
<path d="M21.8941 28.6829H20.4873V30.0897H21.8941V28.6829Z" fill="black"/>
<path d="M23.2603 28.6829H21.8535V30.0897H23.2603V28.6829Z" fill="black"/>
<path d="M24.6266 28.6829H23.2197V30.0897H24.6266V28.6829Z" fill="black"/>
<path d="M28.7232 30.0897H27.3164V29.3863C27.3164 28.9877 27.6212 28.6829 28.0198 28.6829C28.4184 28.6829 28.7232 28.9877 28.7232 29.3863V30.0897Z" fill="black"/>
<path d="M36.2151 30.0897C36.6036 30.0897 36.9185 29.7748 36.9185 29.3863C36.9185 28.9978 36.6036 28.6829 36.2151 28.6829C35.8266 28.6829 35.5117 28.9978 35.5117 29.3863C35.5117 29.7748 35.8266 30.0897 36.2151 30.0897Z" fill="black"/>
<path d="M39.65 30.0897H38.2432V29.3863C38.2432 28.9877 38.548 28.6829 38.9466 28.6829C39.3452 28.6829 39.65 28.9877 39.65 29.3863V30.0897Z" fill="black"/>
<path d="M42.3824 30.0897H41.679C41.2804 30.0897 40.9756 29.7849 40.9756 29.3863C40.9756 28.9877 41.2804 28.6829 41.679 28.6829H42.3824V30.0897Z" fill="black"/>
<path d="M43.7476 30.0897H42.3408V28.6829H43.0442C43.4428 28.6829 43.7476 28.9877 43.7476 29.3863V30.0897Z" fill="black"/>
<path d="M46.4801 28.6829H45.0732V30.0897H46.4801V28.6829Z" fill="black"/>
<path d="M47.8453 28.6829H46.4385V30.0897H47.8453V28.6829Z" fill="black"/>
<path d="M51.2395 30.0897C50.8409 30.0897 50.5361 29.7849 50.5361 29.3863V28.6829H51.943V29.3863C51.943 29.7849 51.6381 30.0897 51.2395 30.0897Z" fill="black"/>
<path d="M6.86972 31.4557H5.46289V30.7522C5.46289 30.3536 5.7677 30.0488 6.16631 30.0488H6.86972V31.4557Z" fill="black"/>
<path d="M7.53252 31.4557H6.8291V30.0488H8.23593V30.7522C8.23593 31.1508 7.93112 31.4557 7.53252 31.4557Z" fill="black"/>
<path d="M12.3336 31.4557H11.6302C11.2316 31.4557 10.9268 31.1508 10.9268 30.7522C10.9268 30.3536 11.2316 30.0488 11.6302 30.0488H12.3336V31.4557Z" fill="black"/>
<path d="M13.6988 30.0488H12.292V31.4557H13.6988V30.0488Z" fill="black"/>
<path d="M14.3616 31.4557H13.6582V30.0488H14.3616C14.7602 30.0488 15.065 30.3536 15.065 30.7522C15.065 31.1508 14.7602 31.4557 14.3616 31.4557Z" fill="black"/>
<path d="M17.0931 31.4557C16.6945 31.4557 16.3896 31.1508 16.3896 30.7522V30.0488H17.7965V30.7522C17.7965 31.1508 17.4917 31.4557 17.0931 31.4557Z" fill="black"/>
<path d="M23.2603 30.0488H21.8535V31.4557H23.2603V30.0488Z" fill="black"/>
<path d="M24.6266 30.0488H23.2197V31.4557H24.6266V30.0488Z" fill="black"/>
<path d="M28.0198 31.4557C27.6212 31.4557 27.3164 31.1508 27.3164 30.7522V30.0488H28.7232V30.7522C28.7232 31.1508 28.4184 31.4557 28.0198 31.4557Z" fill="black"/>
<path d="M31.4557 31.4557H30.0488V30.7522C30.0488 30.3536 30.3536 30.0488 30.7522 30.0488H31.4557V31.4557Z" fill="black"/>
<path d="M32.8209 30.0488H31.4141V31.4557H32.8209V30.0488Z" fill="black"/>
<path d="M34.1871 30.0488H32.7803V31.4557H34.1871V30.0488Z" fill="black"/>
<path d="M35.5533 31.4557H34.1465V30.0488H34.8499C35.2485 30.0488 35.5533 30.3536 35.5533 30.7522V31.4557Z" fill="black"/>
<path d="M38.2848 31.4557H36.8779V30.7522C36.8779 30.3536 37.1827 30.0488 37.5813 30.0488H38.2848V31.4557Z" fill="black"/>
<path d="M38.9466 31.4557H38.2432V30.0488H39.65V30.7522C39.65 31.1508 39.3452 31.4557 38.9466 31.4557Z" fill="black"/>
<path d="M43.7476 31.4557H43.0442C42.6456 31.4557 42.3408 31.1508 42.3408 30.7522V30.0488H43.7476V31.4557Z" fill="black"/>
<path d="M45.1139 30.0488H43.707V31.4557H45.1139V30.0488Z" fill="black"/>
<path d="M46.4801 30.0488H45.0732V31.4557H46.4801V30.0488Z" fill="black"/>
<path d="M47.8453 30.0488H46.4385V31.4557H47.8453V30.0488Z" fill="black"/>
<path d="M49.2115 30.0488H47.8047V31.4557H49.2115V30.0488Z" fill="black"/>
<path d="M49.8743 31.4557H49.1709V30.0488H49.8743C50.2729 30.0488 50.5777 30.3536 50.5777 30.7522C50.5777 31.1508 50.2729 31.4557 49.8743 31.4557Z" fill="black"/>
<path d="M4.13827 32.8214H2.73145V32.118C2.73145 31.7194 3.03626 31.4146 3.43486 31.4146C3.83346 31.4146 4.13827 31.7194 4.13827 32.118V32.8214Z" fill="black"/>
<path d="M6.16631 32.8214C5.7677 32.8214 5.46289 32.5166 5.46289 32.118V31.4146H6.86972V32.118C6.86972 32.5166 6.56491 32.8214 6.16631 32.8214Z" fill="black"/>
<path d="M9.60214 32.8214H8.89873C8.50013 32.8214 8.19531 32.5166 8.19531 32.118C8.19531 31.7194 8.50013 31.4146 8.89873 31.4146H9.60214V32.8214Z" fill="black"/>
<path d="M10.9674 32.8214H9.56055V31.4146H10.264C10.6626 31.4146 10.9674 31.7194 10.9674 32.118V32.8214Z" fill="black"/>
<path d="M12.9954 32.8214C12.5968 32.8214 12.292 32.5166 12.292 32.118V31.4146H13.6988V32.118C13.6988 32.5166 13.394 32.8214 12.9954 32.8214Z" fill="black"/>
<path d="M16.4312 32.8214H15.0244V32.118C15.0244 31.7194 15.3292 31.4146 15.7278 31.4146C16.1264 31.4146 16.4312 31.7194 16.4312 32.118V32.8214Z" fill="black"/>
<path d="M19.1627 32.8214H17.7559V32.118C17.7559 31.7194 18.0607 31.4146 18.4593 31.4146C18.8579 31.4146 19.1627 31.7194 19.1627 32.118V32.8214Z" fill="black"/>
<path d="M23.2603 31.4146H21.8535V32.8214H23.2603V31.4146Z" fill="black"/>
<path d="M24.6266 31.4146H23.2197V32.8214H24.6266V31.4146Z" fill="black"/>
<path d="M25.9918 31.4146H24.585V32.8214H25.9918V31.4146Z" fill="black"/>
<path d="M26.6546 32.8214H25.9512V31.4146H26.6546C27.0532 31.4146 27.358 31.7194 27.358 32.118C27.358 32.5166 27.0532 32.8214 26.6546 32.8214Z" fill="black"/>
<path d="M31.4557 32.8214H30.7522C30.3536 32.8214 30.0488 32.5166 30.0488 32.118V31.4146H31.4557V32.8214Z" fill="black"/>
<path d="M32.1175 32.8214H31.4141V31.4146H32.8209V32.118C32.8209 32.5166 32.5161 32.8214 32.1175 32.8214Z" fill="black"/>
<path d="M34.8499 32.8214C34.4513 32.8214 34.1465 32.5166 34.1465 32.118V31.4146H35.5533V32.118C35.5533 32.5166 35.2485 32.8214 34.8499 32.8214Z" fill="black"/>
<path d="M37.5813 32.8214C37.1827 32.8214 36.8779 32.5166 36.8779 32.118V31.4146H38.2848V32.118C38.2848 32.5166 37.9799 32.8214 37.5813 32.8214Z" fill="black"/>
<path d="M45.7767 32.8214C45.3781 32.8214 45.0732 32.5166 45.0732 32.118V31.4146H46.4801V32.118C46.4801 32.5166 46.1753 32.8214 45.7767 32.8214Z" fill="black"/>
<path d="M49.2115 31.4146H47.8047V32.8214H49.2115V31.4146Z" fill="black"/>
<path d="M4.13827 32.7805H2.73145V34.1873H4.13827V32.7805Z" fill="black"/>
<path d="M5.50449 34.1873H4.09766V32.7805H4.80107C5.19967 32.7805 5.50449 33.0853 5.50449 33.4839V34.1873Z" fill="black"/>
<path d="M8.23593 34.1873H6.8291V33.4839C6.8291 33.0853 7.13391 32.7805 7.53252 32.7805C7.93112 32.7805 8.23593 33.0853 8.23593 33.4839V34.1873Z" fill="black"/>
<path d="M10.9674 34.1873H10.264C9.86536 34.1873 9.56055 33.8825 9.56055 33.4839V32.7805H10.9674V34.1873Z" fill="black"/>
<path d="M11.6302 34.1873H10.9268V32.7805H11.6302C12.0288 32.7805 12.3336 33.0853 12.3336 33.4839C12.3336 33.8825 12.0288 34.1873 11.6302 34.1873Z" fill="black"/>
<path d="M15.7278 34.1873C15.3292 34.1873 15.0244 33.8825 15.0244 33.4839V32.7805H16.4312V33.4839C16.4312 33.8825 16.1264 34.1873 15.7278 34.1873Z" fill="black"/>
<path d="M19.1627 34.1873H18.4593C18.0607 34.1873 17.7559 33.8825 17.7559 33.4839V32.7805H19.1627V34.1873Z" fill="black"/>
<path d="M20.5289 32.7805H19.1221V34.1873H20.5289V32.7805Z" fill="black"/>
<path d="M21.8941 32.7805H20.4873V34.1873H21.8941V32.7805Z" fill="black"/>
<path d="M23.2603 32.7805H21.8535V34.1873H23.2603V32.7805Z" fill="black"/>
<path d="M24.6266 32.7805H23.2197V34.1873H24.6266V32.7805Z" fill="black"/>
<path d="M25.9918 32.7805H24.585V34.1873H25.9918V32.7805Z" fill="black"/>
<path d="M28.7232 34.1873H28.0198C27.6212 34.1873 27.3164 33.8825 27.3164 33.4839C27.3164 33.0853 27.6212 32.7805 28.0198 32.7805H28.7232V34.1873Z" fill="black"/>
<path d="M29.386 34.1873H28.6826V32.7805H29.386C29.7846 32.7805 30.0894 33.0853 30.0894 33.4839C30.0894 33.8825 29.7846 34.1873 29.386 34.1873Z" fill="black"/>
<path d="M36.9185 34.1873H35.5117V33.4839C35.5117 33.0853 35.8165 32.7805 36.2151 32.7805C36.6137 32.7805 36.9185 33.0853 36.9185 33.4839V34.1873Z" fill="black"/>
<path d="M39.65 34.1873H38.2432V33.4839C38.2432 33.0853 38.548 32.7805 38.9466 32.7805H39.65V34.1873Z" fill="black"/>
<path d="M40.3128 34.1873H39.6094V32.7805H40.3128C40.7114 32.7805 41.0162 33.0853 41.0162 33.4839C41.0162 33.8825 40.7114 34.1873 40.3128 34.1873Z" fill="black"/>
<path d="M45.1139 34.1873H43.707V33.4839C43.707 33.0853 44.0118 32.7805 44.4104 32.7805C44.809 32.7805 45.1139 33.0853 45.1139 33.4839V34.1873Z" fill="black"/>
<path d="M49.2115 34.1873H48.5081C48.1095 34.1873 47.8047 33.8825 47.8047 33.4839V32.7805H49.2115V34.1873Z" fill="black"/>
<path d="M50.5777 32.7805H49.1709V34.1873H50.5777V32.7805Z" fill="black"/>
<path d="M51.943 32.7805H50.5361V34.1873H51.943V32.7805Z" fill="black"/>
<path d="M53.3092 34.1873H51.9023V32.7805H52.6058C53.0044 32.7805 53.3092 33.0853 53.3092 33.4839V34.1873Z" fill="black"/>
<path d="M4.13827 35.5532H3.43486C3.03626 35.5532 2.73145 35.2484 2.73145 34.8498V34.1464H4.13827V35.5532Z" fill="black"/>
<path d="M5.50449 34.1464H4.09766V35.5532H5.50449V34.1464Z" fill="black"/>
<path d="M6.86972 34.1464H5.46289V35.5532H6.86972V34.1464Z" fill="black"/>
<path d="M7.53252 35.5532H6.8291V34.1464H8.23593V34.8498C8.23593 35.2484 7.93112 35.5532 7.53252 35.5532Z" fill="black"/>
<path d="M17.0931 35.5532C17.4815 35.5532 17.7965 35.2383 17.7965 34.8498C17.7965 34.4613 17.4815 34.1464 17.0931 34.1464C16.7046 34.1464 16.3896 34.4613 16.3896 34.8498C16.3896 35.2383 16.7046 35.5532 17.0931 35.5532Z" fill="black"/>
<path d="M20.5289 34.1464H19.1221V35.5532H20.5289V34.1464Z" fill="black"/>
<path d="M21.8941 34.1464H20.4873V35.5532H21.8941V34.1464Z" fill="black"/>
<path d="M25.9918 35.5532H25.2884C24.8898 35.5532 24.585 35.2484 24.585 34.8498V34.1464H25.9918V35.5532Z" fill="black"/>
<path d="M26.6546 35.5532H25.9512V34.1464H26.6546C27.0532 34.1464 27.358 34.4512 27.358 34.8498C27.358 35.2484 27.0532 35.5532 26.6546 35.5532Z" fill="black"/>
<path d="M36.9185 34.1464H35.5117V35.5532H36.9185V34.1464Z" fill="black"/>
<path d="M38.9466 35.5532C38.548 35.5532 38.2432 35.2484 38.2432 34.8498V34.1464H39.65V34.8498C39.65 35.2484 39.3452 35.5532 38.9466 35.5532Z" fill="black"/>
<path d="M45.1139 34.1464H43.707V35.5532H45.1139V34.1464Z" fill="black"/>
<path d="M45.7767 35.5532H45.0732V34.1464H45.7767C46.1753 34.1464 46.4801 34.4512 46.4801 34.8498C46.4801 35.2484 46.1753 35.5532 45.7767 35.5532Z" fill="black"/>
<path d="M52.6058 35.5532C52.2072 35.5532 51.9023 35.2484 51.9023 34.8498V34.1464H53.3092V34.8498C53.3092 35.2484 53.0044 35.5532 52.6058 35.5532Z" fill="black"/>
<path d="M5.50449 35.5122H4.09766V36.919H5.50449V35.5122Z" fill="black"/>
<path d="M6.86972 35.5122H5.46289V36.919H6.86972V35.5122Z" fill="black"/>
<path d="M8.89873 36.919C9.28721 36.919 9.60214 36.6041 9.60214 36.2156C9.60214 35.8271 9.28721 35.5122 8.89873 35.5122C8.51024 35.5122 8.19531 35.8271 8.19531 36.2156C8.19531 36.6041 8.51024 36.919 8.89873 36.919Z" fill="black"/>
<path d="M12.3336 36.919H11.6302C11.2316 36.919 10.9268 36.6142 10.9268 36.2156C10.9268 35.817 11.2316 35.5122 11.6302 35.5122H12.3336V36.919Z" fill="black"/>
<path d="M13.6988 35.5122H12.292V36.919H13.6988V35.5122Z" fill="black"/>
<path d="M15.065 36.919H13.6582V35.5122H14.3616C14.7602 35.5122 15.065 35.817 15.065 36.2156V36.919Z" fill="black"/>
<path d="M20.5289 35.5122H19.1221V36.919H20.5289V35.5122Z" fill="black"/>
<path d="M21.1907 36.919H20.4873V35.5122H21.8941V36.2156C21.8941 36.6142 21.5893 36.919 21.1907 36.919Z" fill="black"/>
<path d="M23.9231 36.919C24.3116 36.919 24.6266 36.6041 24.6266 36.2156C24.6266 35.8271 24.3116 35.5122 23.9231 35.5122C23.5347 35.5122 23.2197 35.8271 23.2197 36.2156C23.2197 36.6041 23.5347 36.919 23.9231 36.919Z" fill="black"/>
<path d="M30.0894 36.919H28.6826V36.2156C28.6826 35.817 28.9874 35.5122 29.386 35.5122H30.0894V36.919Z" fill="black"/>
<path d="M31.4557 36.919H30.0488V35.5122H30.7522C31.1508 35.5122 31.4557 35.817 31.4557 36.2156V36.919Z" fill="black"/>
<path d="M36.9185 36.919H36.2151C35.8165 36.919 35.5117 36.6142 35.5117 36.2156V35.5122H36.9185V36.919Z" fill="black"/>
<path d="M38.2848 36.919H36.8779V35.5122H37.5813C37.9799 35.5122 38.2848 35.817 38.2848 36.2156V36.919Z" fill="black"/>
<path d="M44.4104 36.919C44.0118 36.919 43.707 36.6142 43.707 36.2156V35.5122H45.1139V36.2156C45.1139 36.6142 44.809 36.919 44.4104 36.919Z" fill="black"/>
<path d="M47.1419 36.919C47.5304 36.919 47.8453 36.6041 47.8453 36.2156C47.8453 35.8271 47.5304 35.5122 47.1419 35.5122C46.7534 35.5122 46.4385 35.8271 46.4385 36.2156C46.4385 36.6041 46.7534 36.919 47.1419 36.919Z" fill="black"/>
<path d="M50.5777 36.919H49.1709V36.2156C49.1709 35.817 49.4757 35.5122 49.8743 35.5122H50.5777V36.919Z" fill="black"/>
<path d="M51.2395 36.919H50.5361V35.5122H51.2395C51.6381 35.5122 51.943 35.817 51.943 36.2156C51.943 36.6142 51.6381 36.919 51.2395 36.919Z" fill="black"/>
<path d="M4.13827 38.2849H2.73145V37.5815C2.73145 37.1829 3.03626 36.8781 3.43486 36.8781H4.13827V38.2849Z" fill="black"/>
<path d="M5.50449 36.8781H4.09766V38.2849H5.50449V36.8781Z" fill="black"/>
<path d="M6.86972 36.8781H5.46289V38.2849H6.86972V36.8781Z" fill="black"/>
<path d="M14.3616 38.2849C13.963 38.2849 13.6582 37.9801 13.6582 37.5815V36.8781H15.065V37.5815C15.065 37.9801 14.7602 38.2849 14.3616 38.2849Z" fill="black"/>
<path d="M19.1627 38.2849H18.4593C18.0607 38.2849 17.7559 37.9801 17.7559 37.5815C17.7559 37.1829 18.0607 36.8781 18.4593 36.8781H19.1627V38.2849Z" fill="black"/>
<path d="M20.5289 36.8781H19.1221V38.2849H20.5289V36.8781Z" fill="black"/>
<path d="M25.9918 38.2849H24.585V37.5815C24.585 37.1829 24.8898 36.8781 25.2884 36.8781H25.9918V38.2849Z" fill="black"/>
<path d="M26.6546 38.2849H25.9512V36.8781H26.6546C27.0532 36.8781 27.358 37.1829 27.358 37.5815C27.358 37.9801 27.0532 38.2849 26.6546 38.2849Z" fill="black"/>
<path d="M30.0894 38.2849H29.386C28.9874 38.2849 28.6826 37.9801 28.6826 37.5815V36.8781H30.0894V38.2849Z" fill="black"/>
<path d="M30.7522 38.2849H30.0488V36.8781H31.4557V37.5815C31.4557 37.9801 31.1508 38.2849 30.7522 38.2849Z" fill="black"/>
<path d="M34.1871 38.2849H32.7803V37.5815C32.7803 37.1829 33.0851 36.8781 33.4837 36.8781C33.8823 36.8781 34.1871 37.1829 34.1871 37.5815V38.2849Z" fill="black"/>
<path d="M38.2848 38.2849H37.5813C37.1827 38.2849 36.8779 37.9801 36.8779 37.5815V36.8781H38.2848V38.2849Z" fill="black"/>
<path d="M38.9466 38.2849H38.2432V36.8781H38.9466C39.3452 36.8781 39.65 37.1829 39.65 37.5815C39.65 37.9801 39.3452 38.2849 38.9466 38.2849Z" fill="black"/>
<path d="M42.3824 38.2849H40.9756V37.5815C40.9756 37.1829 41.2804 36.8781 41.679 36.8781H42.3824V38.2849Z" fill="black"/>
<path d="M43.0442 38.2849H42.3408V36.8781H43.0442C43.4428 36.8781 43.7476 37.1829 43.7476 37.5815C43.7476 37.9801 43.4428 38.2849 43.0442 38.2849Z" fill="black"/>
<path d="M45.7767 38.2849C46.1651 38.2849 46.4801 37.97 46.4801 37.5815C46.4801 37.193 46.1651 36.8781 45.7767 36.8781C45.3882 36.8781 45.0732 37.193 45.0732 37.5815C45.0732 37.97 45.3882 38.2849 45.7767 38.2849Z" fill="black"/>
<path d="M50.5777 36.8781H49.1709V38.2849H50.5777V36.8781Z" fill="black"/>
<path d="M4.13827 38.2439H2.73145V39.6507H4.13827V38.2439Z" fill="black"/>
<path d="M6.16631 39.6507C5.7677 39.6507 5.46289 39.3459 5.46289 38.9473V38.2439H6.86972V38.9473C6.86972 39.3459 6.56491 39.6507 6.16631 39.6507Z" fill="black"/>
<path d="M10.9674 39.6507H10.264C9.86536 39.6507 9.56055 39.3459 9.56055 38.9473C9.56055 38.5487 9.86536 38.2439 10.264 38.2439H10.9674V39.6507Z" fill="black"/>
<path d="M11.6302 39.6507H10.9268V38.2439H11.6302C12.0288 38.2439 12.3336 38.5487 12.3336 38.9473C12.3336 39.3459 12.0288 39.6507 11.6302 39.6507Z" fill="black"/>
<path d="M16.4312 39.6507H15.0244V38.9473C15.0244 38.5487 15.3292 38.2439 15.7278 38.2439C16.1264 38.2439 16.4312 38.5487 16.4312 38.9473V39.6507Z" fill="black"/>
<path d="M20.5289 38.2439H19.1221V39.6507H20.5289V38.2439Z" fill="black"/>
<path d="M24.6266 39.6507H23.9231C23.5245 39.6507 23.2197 39.3459 23.2197 38.9473C23.2197 38.5487 23.5245 38.2439 23.9231 38.2439H24.6266V39.6507Z" fill="black"/>
<path d="M25.9918 38.2439H24.585V39.6507H25.9918V38.2439Z" fill="black"/>
<path d="M28.7232 39.6507H27.3164V38.9473C27.3164 38.5487 27.6212 38.2439 28.0198 38.2439C28.4184 38.2439 28.7232 38.5487 28.7232 38.9473V39.6507Z" fill="black"/>
<path d="M32.8209 39.6507H31.4141V38.9473C31.4141 38.5487 31.7189 38.2439 32.1175 38.2439H32.8209V39.6507Z" fill="black"/>
<path d="M34.1871 38.2439H32.7803V39.6507H34.1871V38.2439Z" fill="black"/>
<path d="M35.5533 38.2439H34.1465V39.6507H35.5533V38.2439Z" fill="black"/>
<path d="M36.2151 39.6507H35.5117V38.2439H36.2151C36.6137 38.2439 36.9185 38.5487 36.9185 38.9473C36.9185 39.3459 36.6137 39.6507 36.2151 39.6507Z" fill="black"/>
<path d="M41.0162 39.6507H40.3128C39.9142 39.6507 39.6094 39.3459 39.6094 38.9473C39.6094 38.5487 39.9142 38.2439 40.3128 38.2439H41.0162V39.6507Z" fill="black"/>
<path d="M42.3824 38.2439H40.9756V39.6507H42.3824V38.2439Z" fill="black"/>
<path d="M44.4104 39.6507C44.7989 39.6507 45.1139 39.3358 45.1139 38.9473C45.1139 38.5588 44.7989 38.2439 44.4104 38.2439C44.022 38.2439 43.707 38.5588 43.707 38.9473C43.707 39.3358 44.022 39.6507 44.4104 39.6507Z" fill="black"/>
<path d="M49.2115 39.6507H48.5081C48.1095 39.6507 47.8047 39.3459 47.8047 38.9473C47.8047 38.5487 48.1095 38.2439 48.5081 38.2439H49.2115V39.6507Z" fill="black"/>
<path d="M50.5777 38.2439H49.1709V39.6507H50.5777V38.2439Z" fill="black"/>
<path d="M51.943 38.2439H50.5361V39.6507H51.943V38.2439Z" fill="black"/>
<path d="M52.6058 39.6507H51.9023V38.2439H52.6058C53.0044 38.2439 53.3092 38.5487 53.3092 38.9473C53.3092 39.3459 53.0044 39.6507 52.6058 39.6507Z" fill="black"/>
<path d="M4.13827 39.6097H2.73145V41.0166H4.13827V39.6097Z" fill="black"/>
<path d="M13.6988 41.0166H12.292V40.3132C12.292 39.9146 12.5968 39.6097 12.9954 39.6097H13.6988V41.0166Z" fill="black"/>
<path d="M15.065 39.6097H13.6582V41.0166H15.065V39.6097Z" fill="black"/>
<path d="M16.4312 39.6097H15.0244V41.0166H16.4312V39.6097Z" fill="black"/>
<path d="M17.7965 39.6097H16.3896V41.0166H17.7965V39.6097Z" fill="black"/>
<path d="M19.1627 39.6097H17.7559V41.0166H19.1627V39.6097Z" fill="black"/>
<path d="M19.8255 41.0166H19.1221V39.6097H20.5289V40.3132C20.5289 40.7118 20.2241 41.0166 19.8255 41.0166Z" fill="black"/>
<path d="M23.2603 41.0166H21.8535V40.3132C21.8535 39.9146 22.1583 39.6097 22.5569 39.6097C22.9555 39.6097 23.2603 39.9146 23.2603 40.3132V41.0166Z" fill="black"/>
<path d="M25.9918 41.0166H25.2884C24.8898 41.0166 24.585 40.7118 24.585 40.3132V39.6097H25.9918V41.0166Z" fill="black"/>
<path d="M27.358 39.6097H25.9512V41.0166H27.358V39.6097Z" fill="black"/>
<path d="M28.7232 39.6097H27.3164V41.0166H28.7232V39.6097Z" fill="black"/>
<path d="M30.0894 39.6097H28.6826V41.0166H30.0894V39.6097Z" fill="black"/>
<path d="M31.4557 39.6097H30.0488V41.0166H31.4557V39.6097Z" fill="black"/>
<path d="M32.1175 41.0166H31.4141V39.6097H32.8209V40.3132C32.8209 40.7118 32.5161 41.0166 32.1175 41.0166Z" fill="black"/>
<path d="M35.5533 39.6097H34.1465V41.0166H35.5533V39.6097Z" fill="black"/>
<path d="M39.65 41.0166H38.2432V40.3132C38.2432 39.9146 38.548 39.6097 38.9466 39.6097C39.3452 39.6097 39.65 39.9146 39.65 40.3132V41.0166Z" fill="black"/>
<path d="M42.3824 39.6097H40.9756V41.0166H42.3824V39.6097Z" fill="black"/>
<path d="M43.7476 41.0166H42.3408V39.6097H43.0442C43.4428 39.6097 43.7476 39.9146 43.7476 40.3132V41.0166Z" fill="black"/>
<path d="M51.2395 41.0166C50.8409 41.0166 50.5361 40.7118 50.5361 40.3132V39.6097H51.943V40.3132C51.943 40.7118 51.6381 41.0166 51.2395 41.0166Z" fill="black"/>
<path d="M3.43486 42.3824C3.03626 42.3824 2.73145 42.0776 2.73145 41.679V40.9756H4.13827V41.679C4.13827 42.0776 3.83346 42.3824 3.43486 42.3824Z" fill="black"/>
<path d="M6.16631 42.3824C6.55479 42.3824 6.86972 42.0675 6.86972 41.679C6.86972 41.2905 6.55479 40.9756 6.16631 40.9756C5.77782 40.9756 5.46289 41.2905 5.46289 41.679C5.46289 42.0675 5.77782 42.3824 6.16631 42.3824Z" fill="black"/>
<path d="M9.60214 42.3824H8.89873C8.50013 42.3824 8.19531 42.0776 8.19531 41.679C8.19531 41.2804 8.50013 40.9756 8.89873 40.9756H9.60214V42.3824Z" fill="black"/>
<path d="M10.9674 40.9756H9.56055V42.3824H10.9674V40.9756Z" fill="black"/>
<path d="M12.3336 40.9756H10.9268V42.3824H12.3336V40.9756Z" fill="black"/>
<path d="M12.9954 42.3824H12.292V40.9756H13.6988V41.679C13.6988 42.0776 13.394 42.3824 12.9954 42.3824Z" fill="black"/>
<path d="M17.7965 40.9756H16.3896V42.3824H17.7965V40.9756Z" fill="black"/>
<path d="M21.8941 42.3824H20.4873V41.679C20.4873 41.2804 20.7921 40.9756 21.1907 40.9756H21.8941V42.3824Z" fill="black"/>
<path d="M23.2603 40.9756H21.8535V42.3824H23.2603V40.9756Z" fill="black"/>
<path d="M24.6266 42.3824H23.2197V40.9756H23.9231C24.3217 40.9756 24.6266 41.2804 24.6266 41.679V42.3824Z" fill="black"/>
<path d="M27.358 42.3824H26.6546C26.256 42.3824 25.9512 42.0776 25.9512 41.679V40.9756H27.358V42.3824Z" fill="black"/>
<path d="M28.7232 40.9756H27.3164V42.3824H28.7232V40.9756Z" fill="black"/>
<path d="M34.1871 42.3824H32.7803V41.679C32.7803 41.2804 33.0851 40.9756 33.4837 40.9756H34.1871V42.3824Z" fill="black"/>
<path d="M35.5533 40.9756H34.1465V42.3824H35.5533V40.9756Z" fill="black"/>
<path d="M36.9185 40.9756H35.5117V42.3824H36.9185V40.9756Z" fill="black"/>
<path d="M38.2848 40.9756H36.8779V42.3824H38.2848V40.9756Z" fill="black"/>
<path d="M38.9466 42.3824H38.2432V40.9756H39.65V41.679C39.65 42.0776 39.3452 42.3824 38.9466 42.3824Z" fill="black"/>
<path d="M42.3824 40.9756H40.9756V42.3824H42.3824V40.9756Z" fill="black"/>
<path d="M43.7476 40.9756H42.3408V42.3824H43.7476V40.9756Z" fill="black"/>
<path d="M45.1139 40.9756H43.707V42.3824H45.1139V40.9756Z" fill="black"/>
<path d="M46.4801 40.9756H45.0732V42.3824H46.4801V40.9756Z" fill="black"/>
<path d="M47.8453 42.3824H46.4385V40.9756H47.1419C47.5405 40.9756 47.8453 41.2804 47.8453 41.679V42.3824Z" fill="black"/>
<path d="M49.8743 42.3824C50.2628 42.3824 50.5777 42.0675 50.5777 41.679C50.5777 41.2905 50.2628 40.9756 49.8743 40.9756C49.4858 40.9756 49.1709 41.2905 49.1709 41.679C49.1709 42.0675 49.4858 42.3824 49.8743 42.3824Z" fill="black"/>
<path d="M52.6058 42.3824C52.9942 42.3824 53.3092 42.0675 53.3092 41.679C53.3092 41.2905 52.9942 40.9756 52.6058 40.9756C52.2173 40.9756 51.9023 41.2905 51.9023 41.679C51.9023 42.0675 52.2173 42.3824 52.6058 42.3824Z" fill="black"/>
<path d="M15.065 43.7483H14.3616C13.963 43.7483 13.6582 43.4434 13.6582 43.0448C13.6582 42.6462 13.963 42.3414 14.3616 42.3414H15.065V43.7483Z" fill="black"/>
<path d="M16.4312 42.3414H15.0244V43.7483H16.4312V42.3414Z" fill="black"/>
<path d="M17.0931 43.7483H16.3896V42.3414H17.7965V43.0448C17.7965 43.4434 17.4917 43.7483 17.0931 43.7483Z" fill="black"/>
<path d="M20.5289 43.7483H19.8255C19.4269 43.7483 19.1221 43.4434 19.1221 43.0448C19.1221 42.6462 19.4269 42.3414 19.8255 42.3414H20.5289V43.7483Z" fill="black"/>
<path d="M21.8941 42.3414H20.4873V43.7483H21.8941V42.3414Z" fill="black"/>
<path d="M23.2603 42.3414H21.8535V43.7483H23.2603V42.3414Z" fill="black"/>
<path d="M24.6266 42.3414H23.2197V43.7483H24.6266V42.3414Z" fill="black"/>
<path d="M25.2884 43.7483H24.585V42.3414H25.2884C25.687 42.3414 25.9918 42.6462 25.9918 43.0448C25.9918 43.4434 25.687 43.7483 25.2884 43.7483Z" fill="black"/>
<path d="M28.7232 42.3414H27.3164V43.7483H28.7232V42.3414Z" fill="black"/>
<path d="M30.0894 42.3414H28.6826V43.7483H30.0894V42.3414Z" fill="black"/>
<path d="M31.4557 42.3414H30.0488V43.7483H31.4557V42.3414Z" fill="black"/>
<path d="M32.8209 42.3414H31.4141V43.7483H32.8209V42.3414Z" fill="black"/>
<path d="M34.1871 42.3414H32.7803V43.7483H34.1871V42.3414Z" fill="black"/>
<path d="M34.8499 43.7483H34.1465V42.3414H35.5533V43.0448C35.5533 43.4434 35.2485 43.7483 34.8499 43.7483Z" fill="black"/>
<path d="M38.2848 42.3414H36.8779V43.7483H38.2848V42.3414Z" fill="black"/>
<path d="M41.0162 43.7483H40.3128C39.9142 43.7483 39.6094 43.4434 39.6094 43.0448C39.6094 42.6462 39.9142 42.3414 40.3128 42.3414H41.0162V43.7483Z" fill="black"/>
<path d="M42.3824 42.3414H40.9756V43.7483H42.3824V42.3414Z" fill="black"/>
<path d="M47.8453 42.3414H46.4385V43.7483H47.8453V42.3414Z" fill="black"/>
<path d="M51.943 43.7483H50.5361V43.0448C50.5361 42.6462 50.8409 42.3414 51.2395 42.3414C51.6381 42.3414 51.943 42.6462 51.943 43.0448V43.7483Z" fill="black"/>
<path d="M21.8941 45.1141H21.1907C20.7921 45.1141 20.4873 44.8093 20.4873 44.4107V43.7073H21.8941V45.1141Z" fill="black"/>
<path d="M22.5569 45.1141H21.8535V43.7073H23.2603V44.4107C23.2603 44.8093 22.9555 45.1141 22.5569 45.1141Z" fill="black"/>
<path d="M28.7232 45.1141H28.0198C27.6212 45.1141 27.3164 44.8093 27.3164 44.4107V43.7073H28.7232V45.1141Z" fill="black"/>
<path d="M29.386 45.1141H28.6826V43.7073H30.0894V44.4107C30.0894 44.8093 29.7846 45.1141 29.386 45.1141Z" fill="black"/>
<path d="M32.1175 45.1141C31.7189 45.1141 31.4141 44.8093 31.4141 44.4107V43.7073H32.8209V44.4107C32.8209 44.8093 32.5161 45.1141 32.1175 45.1141Z" fill="black"/>
<path d="M38.2848 45.1141H37.5813C37.1827 45.1141 36.8779 44.8093 36.8779 44.4107V43.7073H38.2848V45.1141Z" fill="black"/>
<path d="M39.65 45.1141H38.2432V43.7073H38.9466C39.3452 43.7073 39.65 44.0121 39.65 44.4107V45.1141Z" fill="black"/>
<path d="M42.3824 43.7073H40.9756V45.1141H42.3824V43.7073Z" fill="black"/>
<path d="M44.4104 45.1141C44.7989 45.1141 45.1139 44.7992 45.1139 44.4107C45.1139 44.0222 44.7989 43.7073 44.4104 43.7073C44.022 43.7073 43.707 44.0222 43.707 44.4107C43.707 44.7992 44.022 45.1141 44.4104 45.1141Z" fill="black"/>
<path d="M47.8453 43.7073H46.4385V45.1141H47.8453V43.7073Z" fill="black"/>
<path d="M48.5081 45.1141H47.8047V43.7073H48.5081C48.9067 43.7073 49.2115 44.0121 49.2115 44.4107C49.2115 44.8093 48.9067 45.1141 48.5081 45.1141Z" fill="black"/>
<path d="M51.943 43.7073H50.5361V45.1141H51.943V43.7073Z" fill="black"/>
<path d="M52.6058 45.1141H51.9023V43.7073H52.6058C53.0044 43.7073 53.3092 44.0121 53.3092 44.4107C53.3092 44.8093 53.0044 45.1141 52.6058 45.1141Z" fill="black"/>
<path d="M15.7278 46.4799C16.1163 46.4799 16.4312 46.165 16.4312 45.7765C16.4312 45.388 16.1163 45.0731 15.7278 45.0731C15.3393 45.0731 15.0244 45.388 15.0244 45.7765C15.0244 46.165 15.3393 46.4799 15.7278 46.4799Z" fill="black"/>
<path d="M20.5289 46.4799H19.1221V45.7765C19.1221 45.3779 19.4269 45.0731 19.8255 45.0731C20.2241 45.0731 20.5289 45.3779 20.5289 45.7765V46.4799Z" fill="black"/>
<path d="M23.9231 46.4799C24.3116 46.4799 24.6266 46.165 24.6266 45.7765C24.6266 45.388 24.3116 45.0731 23.9231 45.0731C23.5347 45.0731 23.2197 45.388 23.2197 45.7765C23.2197 46.165 23.5347 46.4799 23.9231 46.4799Z" fill="black"/>
<path d="M27.358 46.4799H25.9512V45.7765C25.9512 45.3779 26.256 45.0731 26.6546 45.0731C27.0532 45.0731 27.358 45.3779 27.358 45.7765V46.4799Z" fill="black"/>
<path d="M34.8499 46.4799C35.2384 46.4799 35.5533 46.165 35.5533 45.7765C35.5533 45.388 35.2384 45.0731 34.8499 45.0731C34.4614 45.0731 34.1465 45.388 34.1465 45.7765C34.1465 46.165 34.4614 46.4799 34.8499 46.4799Z" fill="black"/>
<path d="M39.65 45.0731H38.2432V46.4799H39.65V45.0731Z" fill="black"/>
<path d="M41.0162 45.0731H39.6094V46.4799H41.0162V45.0731Z" fill="black"/>
<path d="M42.3824 45.0731H40.9756V46.4799H42.3824V45.0731Z" fill="black"/>
<path d="M47.8453 45.0731H46.4385V46.4799H47.8453V45.0731Z" fill="black"/>
<path d="M51.943 45.0731H50.5361V46.4799H51.943V45.0731Z" fill="black"/>
<path d="M15.065 47.8458H13.6582V47.1424C13.6582 46.7438 13.963 46.439 14.3616 46.439C14.7602 46.439 15.065 46.7438 15.065 47.1424V47.8458Z" fill="black"/>
<path d="M17.0931 47.8458C17.4815 47.8458 17.7965 47.5309 17.7965 47.1424C17.7965 46.7539 17.4815 46.439 17.0931 46.439C16.7046 46.439 16.3896 46.7539 16.3896 47.1424C16.3896 47.5309 16.7046 47.8458 17.0931 47.8458Z" fill="black"/>
<path d="M19.8255 47.8458C19.4269 47.8458 19.1221 47.541 19.1221 47.1424V46.439H20.5289V47.1424C20.5289 47.541 20.2241 47.8458 19.8255 47.8458Z" fill="black"/>
<path d="M22.5569 47.8458C22.9454 47.8458 23.2603 47.5309 23.2603 47.1424C23.2603 46.7539 22.9454 46.439 22.5569 46.439C22.1684 46.439 21.8535 46.7539 21.8535 47.1424C21.8535 47.5309 22.1684 47.8458 22.5569 47.8458Z" fill="black"/>
<path d="M25.9918 47.8458H25.2884C24.8898 47.8458 24.585 47.541 24.585 47.1424C24.585 46.7438 24.8898 46.439 25.2884 46.439H25.9918V47.8458Z" fill="black"/>
<path d="M27.358 46.439H25.9512V47.8458H27.358V46.439Z" fill="black"/>
<path d="M28.0198 47.8458H27.3164V46.439H28.0198C28.4184 46.439 28.7232 46.7438 28.7232 47.1424C28.7232 47.541 28.4184 47.8458 28.0198 47.8458Z" fill="black"/>
<path d="M31.4557 47.8458H30.0488V47.1424C30.0488 46.7438 30.3536 46.439 30.7522 46.439H31.4557V47.8458Z" fill="black"/>
<path d="M32.1175 47.8458H31.4141V46.439H32.1175C32.5161 46.439 32.8209 46.7438 32.8209 47.1424C32.8209 47.541 32.5161 47.8458 32.1175 47.8458Z" fill="black"/>
<path d="M36.9185 47.8458H35.5117V47.1424C35.5117 46.7438 35.8165 46.439 36.2151 46.439H36.9185V47.8458Z" fill="black"/>
<path d="M38.2848 46.439H36.8779V47.8458H38.2848V46.439Z" fill="black"/>
<path d="M39.65 46.439H38.2432V47.8458H39.65V46.439Z" fill="black"/>
<path d="M41.0162 46.439H39.6094V47.8458H41.0162V46.439Z" fill="black"/>
<path d="M42.3824 46.439H40.9756V47.8458H42.3824V46.439Z" fill="black"/>
<path d="M43.7476 46.439H42.3408V47.8458H43.7476V46.439Z" fill="black"/>
<path d="M45.1139 46.439H43.707V47.8458H45.1139V46.439Z" fill="black"/>
<path d="M46.4801 46.439H45.0732V47.8458H46.4801V46.439Z" fill="black"/>
<path d="M47.8453 46.439H46.4385V47.8458H47.8453V46.439Z" fill="black"/>
<path d="M50.5777 47.8458H49.8743C49.4757 47.8458 49.1709 47.541 49.1709 47.1424C49.1709 46.7438 49.4757 46.439 49.8743 46.439H50.5777V47.8458Z" fill="black"/>
<path d="M51.943 46.439H50.5361V47.8458H51.943V46.439Z" fill="black"/>
<path d="M52.6058 47.8458H51.9023V46.439H52.6058C53.0044 46.439 53.3092 46.7438 53.3092 47.1424C53.3092 47.541 53.0044 47.8458 52.6058 47.8458Z" fill="black"/>
<path d="M15.065 47.8048H13.6582V49.2116H15.065V47.8048Z" fill="black"/>
<path d="M24.6266 49.2116H23.2197V48.5082C23.2197 48.1096 23.5245 47.8048 23.9231 47.8048C24.3217 47.8048 24.6266 48.1096 24.6266 48.5082V49.2116Z" fill="black"/>
<path d="M27.358 47.8048H25.9512V49.2116H27.358V47.8048Z" fill="black"/>
<path d="M30.0894 49.2116H29.386C28.9874 49.2116 28.6826 48.9068 28.6826 48.5082C28.6826 48.1096 28.9874 47.8048 29.386 47.8048H30.0894V49.2116Z" fill="black"/>
<path d="M31.4557 47.8048H30.0488V49.2116H31.4557V47.8048Z" fill="black"/>
<path d="M33.4837 49.2116C33.8722 49.2116 34.1871 48.8967 34.1871 48.5082C34.1871 48.1197 33.8722 47.8048 33.4837 47.8048C33.0952 47.8048 32.7803 48.1197 32.7803 48.5082C32.7803 48.8967 33.0952 49.2116 33.4837 49.2116Z" fill="black"/>
<path d="M36.9185 47.8048H35.5117V49.2116H36.9185V47.8048Z" fill="black"/>
<path d="M38.2848 47.8048H36.8779V49.2116H38.2848V47.8048Z" fill="black"/>
<path d="M39.65 47.8048H38.2432V49.2116H39.65V47.8048Z" fill="black"/>
<path d="M44.4104 49.2116C44.0118 49.2116 43.707 48.9068 43.707 48.5082V47.8048H45.1139V48.5082C45.1139 48.9068 44.809 49.2116 44.4104 49.2116Z" fill="black"/>
<path d="M47.1419 49.2116C46.7433 49.2116 46.4385 48.9068 46.4385 48.5082V47.8048H47.8453V48.5082C47.8453 48.9068 47.5405 49.2116 47.1419 49.2116Z" fill="black"/>
<path d="M14.3616 50.5775C13.963 50.5775 13.6582 50.2727 13.6582 49.8741V49.1707H15.065V49.8741C15.065 50.2727 14.7602 50.5775 14.3616 50.5775Z" fill="black"/>
<path d="M17.0931 50.5775C17.4815 50.5775 17.7965 50.2626 17.7965 49.8741C17.7965 49.4856 17.4815 49.1707 17.0931 49.1707C16.7046 49.1707 16.3896 49.4856 16.3896 49.8741C16.3896 50.2626 16.7046 50.5775 17.0931 50.5775Z" fill="black"/>
<path d="M20.5289 50.5775H19.8255C19.4269 50.5775 19.1221 50.2727 19.1221 49.8741C19.1221 49.4755 19.4269 49.1707 19.8255 49.1707H20.5289V50.5775Z" fill="black"/>
<path d="M21.8941 50.5775H20.4873V49.1707H21.1907C21.5893 49.1707 21.8941 49.4755 21.8941 49.8741V50.5775Z" fill="black"/>
<path d="M24.6266 49.1707H23.2197V50.5775H24.6266V49.1707Z" fill="black"/>
<path d="M25.9918 49.1707H24.585V50.5775H25.9918V49.1707Z" fill="black"/>
<path d="M27.358 49.1707H25.9512V50.5775H27.358V49.1707Z" fill="black"/>
<path d="M31.4557 49.1707H30.0488V50.5775H31.4557V49.1707Z" fill="black"/>
<path d="M32.8209 50.5775H31.4141V49.1707H32.1175C32.5161 49.1707 32.8209 49.4755 32.8209 49.8741V50.5775Z" fill="black"/>
<path d="M36.9185 49.1707H35.5117V50.5775H36.9185V49.1707Z" fill="black"/>
<path d="M38.2848 49.1707H36.8779V50.5775H38.2848V49.1707Z" fill="black"/>
<path d="M38.9466 50.5775H38.2432V49.1707H39.65V49.8741C39.65 50.2727 39.3452 50.5775 38.9466 50.5775Z" fill="black"/>
<path d="M43.7476 50.5775H42.3408V49.8741C42.3408 49.4755 42.6456 49.1707 43.0442 49.1707C43.4428 49.1707 43.7476 49.4755 43.7476 49.8741V50.5775Z" fill="black"/>
<path d="M45.7767 50.5775C46.1651 50.5775 46.4801 50.2626 46.4801 49.8741C46.4801 49.4856 46.1651 49.1707 45.7767 49.1707C45.3882 49.1707 45.0732 49.4856 45.0732 49.8741C45.0732 50.2626 45.3882 50.5775 45.7767 50.5775Z" fill="black"/>
<path d="M49.8743 50.5775C50.2628 50.5775 50.5777 50.2626 50.5777 49.8741C50.5777 49.4856 50.2628 49.1707 49.8743 49.1707C49.4858 49.1707 49.1709 49.4856 49.1709 49.8741C49.1709 50.2626 49.4858 50.5775 49.8743 50.5775Z" fill="black"/>
<path d="M53.3092 50.5775H51.9023V49.8741C51.9023 49.4755 52.2072 49.1707 52.6058 49.1707C53.0044 49.1707 53.3092 49.4755 53.3092 49.8741V50.5775Z" fill="black"/>
<path d="M15.7278 51.9435C16.1163 51.9435 16.4312 51.6285 16.4312 51.24C16.4312 50.8516 16.1163 50.5366 15.7278 50.5366C15.3393 50.5366 15.0244 50.8516 15.0244 51.24C15.0244 51.6285 15.3393 51.9435 15.7278 51.9435Z" fill="black"/>
<path d="M18.4593 51.9435C18.8478 51.9435 19.1627 51.6285 19.1627 51.24C19.1627 50.8516 18.8478 50.5366 18.4593 50.5366C18.0708 50.5366 17.7559 50.8516 17.7559 51.24C17.7559 51.6285 18.0708 51.9435 18.4593 51.9435Z" fill="black"/>
<path d="M21.8941 50.5366H20.4873V51.9435H21.8941V50.5366Z" fill="black"/>
<path d="M24.6266 51.9435H23.9231C23.5245 51.9435 23.2197 51.6386 23.2197 51.24V50.5366H24.6266V51.9435Z" fill="black"/>
<path d="M25.9918 50.5366H24.585V51.9435H25.9918V50.5366Z" fill="black"/>
<path d="M27.358 50.5366H25.9512V51.9435H27.358V50.5366Z" fill="black"/>
<path d="M28.0198 51.9435H27.3164V50.5366H28.0198C28.4184 50.5366 28.7232 50.8414 28.7232 51.24C28.7232 51.6386 28.4184 51.9435 28.0198 51.9435Z" fill="black"/>
<path d="M31.4557 50.5366H30.0488V51.9435H31.4557V50.5366Z" fill="black"/>
<path d="M32.1175 51.9435H31.4141V50.5366H32.8209V51.24C32.8209 51.6386 32.5161 51.9435 32.1175 51.9435Z" fill="black"/>
<path d="M36.9185 50.5366H35.5117V51.9435H36.9185V50.5366Z" fill="black"/>
<path d="M41.0162 51.9435H39.6094V51.24C39.6094 50.8414 39.9142 50.5366 40.3128 50.5366H41.0162V51.9435Z" fill="black"/>
<path d="M42.3824 50.5366H40.9756V51.9435H42.3824V50.5366Z" fill="black"/>
<path d="M43.7476 50.5366H42.3408V51.9435H43.7476V50.5366Z" fill="black"/>
<path d="M47.1419 51.9435C47.5304 51.9435 47.8453 51.6285 47.8453 51.24C47.8453 50.8516 47.5304 50.5366 47.1419 50.5366C46.7534 50.5366 46.4385 50.8516 46.4385 51.24C46.4385 51.6285 46.7534 51.9435 47.1419 51.9435Z" fill="black"/>
<path d="M53.3092 50.5366H51.9023V51.9435H53.3092V50.5366Z" fill="black"/>
<path d="M21.1907 53.3093C20.7921 53.3093 20.4873 53.0045 20.4873 52.6059V51.9025H21.8941V52.6059C21.8941 53.0045 21.5893 53.3093 21.1907 53.3093Z" fill="black"/>
<path d="M25.2884 53.3093C24.8898 53.3093 24.585 53.0045 24.585 52.6059V51.9025H25.9918V52.6059C25.9918 53.0045 25.687 53.3093 25.2884 53.3093Z" fill="black"/>
<path d="M30.7522 53.3093C30.3536 53.3093 30.0488 53.0045 30.0488 52.6059V51.9025H31.4557V52.6059C31.4557 53.0045 31.1508 53.3093 30.7522 53.3093Z" fill="black"/>
<path d="M35.5533 53.3093H34.8499C34.4513 53.3093 34.1465 53.0045 34.1465 52.6059C34.1465 52.2073 34.4513 51.9025 34.8499 51.9025H35.5533V53.3093Z" fill="black"/>
<path d="M36.9185 51.9025H35.5117V53.3093H36.9185V51.9025Z" fill="black"/>
<path d="M38.2848 51.9025H36.8779V53.3093H38.2848V51.9025Z" fill="black"/>
<path d="M39.65 51.9025H38.2432V53.3093H39.65V51.9025Z" fill="black"/>
<path d="M40.3128 53.3093H39.6094V51.9025H41.0162V52.6059C41.0162 53.0045 40.7114 53.3093 40.3128 53.3093Z" fill="black"/>
<path d="M43.0442 53.3093C42.6456 53.3093 42.3408 53.0045 42.3408 52.6059V51.9025H43.7476V52.6059C43.7476 53.0045 43.4428 53.3093 43.0442 53.3093Z" fill="black"/>
<path d="M45.7767 53.3093C46.1651 53.3093 46.4801 52.9944 46.4801 52.6059C46.4801 52.2174 46.1651 51.9025 45.7767 51.9025C45.3882 51.9025 45.0732 52.2174 45.0732 52.6059C45.0732 52.9944 45.3882 53.3093 45.7767 53.3093Z" fill="black"/>
<path d="M49.2115 53.3093H48.5081C48.1095 53.3093 47.8047 53.0045 47.8047 52.6059C47.8047 52.2073 48.1095 51.9025 48.5081 51.9025H49.2115V53.3093Z" fill="black"/>
<path d="M50.5777 51.9025H49.1709V53.3093H50.5777V51.9025Z" fill="black"/>
<path d="M51.943 51.9025H50.5361V53.3093H51.943V51.9025Z" fill="black"/>
<path d="M52.6058 53.3093H51.9023V51.9025H53.3092V52.6059C53.3092 53.0045 53.0044 53.3093 52.6058 53.3093Z" fill="black"/>
<path d="M5.80462 12.2927H9.28754C10.9266 12.2927 12.2924 10.9268 12.2924 9.28779V5.80486C12.2924 4.09754 10.9266 2.73169 9.21925 2.73169H5.73632C4.0973 2.73169 2.73145 4.09754 2.73145 5.73657V9.2195C2.73145 10.9268 4.0973 12.2927 5.80462 12.2927ZM10.9266 6.00974V9.01462C10.9266 10.039 10.0388 10.9268 9.01437 10.9268H6.00949C4.91681 10.9268 4.0973 10.1073 4.0973 9.01462V6.00974C4.0973 4.98535 4.9851 4.09754 6.00949 4.09754H9.01437C10.1071 4.09754 10.9266 4.91706 10.9266 6.00974Z" fill="black"/>
<path d="M46.7802 12.2927H50.2631C51.9022 12.2927 53.268 10.9268 53.268 9.28779V5.80486C53.268 4.09754 51.9022 2.73169 50.1948 2.73169H46.7119C45.0729 2.73169 43.707 4.09754 43.707 5.73657V9.2195C43.707 10.9268 45.0729 12.2927 46.7802 12.2927ZM51.9022 6.00974V9.01462C51.9022 10.039 51.0143 10.9268 49.99 10.9268H46.9851C45.8924 10.9268 45.0729 10.1073 45.0729 9.01462V6.00974C45.0729 4.98535 45.9607 4.09754 46.9851 4.09754H49.99C51.0826 4.09754 51.9022 4.91706 51.9022 6.00974Z" fill="black"/>
<path d="M5.80462 53.2683H9.28754C10.9266 53.2683 12.2924 51.9024 12.2924 50.2634V46.7804C12.2924 45.0731 10.9266 43.7073 9.21925 43.7073H5.73632C4.0973 43.7073 2.73145 45.0731 2.73145 46.7122V50.1951C2.73145 51.9024 4.0973 53.2683 5.80462 53.2683ZM10.9266 46.9853V49.9902C10.9266 51.0146 10.0388 51.9024 9.01437 51.9024H6.00949C4.91681 51.9024 4.0973 51.0829 4.0973 49.9902V46.9853C4.0973 45.9609 4.9851 45.0731 6.00949 45.0731H9.01437C10.1071 45.0731 10.9266 45.8926 10.9266 46.9853Z" fill="black"/>
<path d="M9.56045 5.46338H5.46289V9.56094H9.56045V5.46338Z" fill="black"/>
<path d="M50.536 5.46338H46.4385V9.56094H50.536V5.46338Z" fill="black"/>
<path d="M9.56045 46.439H5.46289V50.5365H9.56045V46.439Z" fill="black"/>
</svg>
