<svg width="162" height="32" viewBox="0 0 162 32" fill="none" xmlns="http://www.w3.org/2000/svg">
<path d="M156 0H104C100.686 0 98 2.68629 98 6V26C98 29.3137 100.686 32 104 32H156C159.314 32 162 29.3137 162 26V6C162 2.68629 159.314 0 156 0Z" fill="white"/>
<path d="M105.525 25.4998V6.38379H109.386V14.2948H117.648V6.38379H121.536V25.4998H117.648V17.8588H109.386V25.4998H105.525Z" fill="#0077FE"/>
<path d="M131.438 25.689C129.35 25.689 127.739 25.158 126.605 24.096C125.489 23.016 124.931 21.396 124.931 19.236V11.271H128.711V18.966C128.711 19.614 128.801 20.19 128.981 20.694C129.179 21.18 129.476 21.567 129.872 21.855C130.286 22.143 130.817 22.287 131.465 22.287C132.167 22.287 132.707 22.134 133.085 21.828C133.463 21.522 133.724 21.117 133.868 20.613C134.012 20.091 134.084 19.542 134.084 18.966V11.271H137.837V19.236C137.837 21.486 137.27 23.124 136.136 24.15C135.02 25.176 133.454 25.689 131.438 25.689Z" fill="#0077FE"/>
<path d="M149.085 25.6888C148.617 25.6888 148.122 25.6438 147.6 25.5538C147.096 25.4638 146.592 25.2928 146.088 25.0408C145.602 24.7708 145.143 24.3928 144.711 23.9068L144.684 25.4998H140.985V6.38379H144.765V12.9448C145.305 12.2968 145.971 11.8198 146.763 11.5138C147.573 11.1898 148.41 11.0278 149.274 11.0278C150.678 11.0278 151.83 11.3518 152.73 11.9998C153.63 12.6298 154.296 13.4938 154.728 14.5918C155.178 15.6898 155.403 16.9498 155.403 18.3718C155.403 19.7578 155.178 21.0088 154.728 22.1248C154.278 23.2228 153.585 24.0958 152.649 24.7438C151.731 25.3738 150.543 25.6888 149.085 25.6888ZM148.275 22.3138C149.157 22.3138 149.841 22.1158 150.327 21.7198C150.813 21.3238 151.155 20.8198 151.353 20.2078C151.551 19.5958 151.65 18.9568 151.65 18.2908C151.65 17.6248 151.542 17.0038 151.326 16.4278C151.11 15.8338 150.75 15.3658 150.246 15.0238C149.76 14.6638 149.103 14.4838 148.275 14.4838C147.519 14.4838 146.871 14.6728 146.331 15.0508C145.809 15.4108 145.413 15.8878 145.143 16.4818C144.873 17.0758 144.738 17.7148 144.738 18.3988C144.738 19.0828 144.855 19.7308 145.089 20.3428C145.341 20.9368 145.728 21.4138 146.25 21.7738C146.772 22.1338 147.447 22.3138 148.275 22.3138Z" fill="#0077FE"/>
<path d="M3.02502 25.4998V6.38379H10.477C11.935 6.38379 13.204 6.60879 14.284 7.05879C15.382 7.49079 16.228 8.19279 16.822 9.16479C17.416 10.1188 17.713 11.3968 17.713 12.9988C17.713 14.4928 17.38 15.7438 16.714 16.7518C16.066 17.7598 15.175 18.5158 14.041 19.0198C12.907 19.5058 11.62 19.7488 10.18 19.7488H6.88602V25.4998H3.02502ZM6.88602 16.2928H10.126C11.278 16.2928 12.187 16.0228 12.853 15.4828C13.537 14.9248 13.879 14.0878 13.879 12.9718C13.879 11.9818 13.591 11.2348 13.015 10.7308C12.457 10.2268 11.557 9.97479 10.315 9.97479H6.88602V16.2928Z" fill="white"/>
<path d="M26.627 25.6888C25.187 25.6888 23.927 25.4008 22.847 24.8248C21.767 24.2308 20.93 23.3938 20.336 22.3138C19.742 21.2158 19.445 19.9198 19.445 18.4258C19.445 16.8958 19.742 15.5818 20.336 14.4838C20.948 13.3678 21.794 12.5128 22.874 11.9188C23.954 11.3248 25.196 11.0278 26.6 11.0278C28.04 11.0278 29.291 11.3338 30.353 11.9458C31.415 12.5578 32.243 13.4128 32.837 14.5108C33.431 15.6088 33.728 16.9228 33.728 18.4528C33.728 19.9468 33.431 21.2428 32.837 22.3408C32.261 23.4208 31.442 24.2488 30.38 24.8248C29.336 25.4008 28.085 25.6888 26.627 25.6888ZM26.573 22.2328C27.401 22.2328 28.067 22.0528 28.571 21.6928C29.075 21.3328 29.435 20.8648 29.651 20.2888C29.885 19.6948 30.002 19.0738 30.002 18.4258C30.002 17.7778 29.885 17.1568 29.651 16.5628C29.435 15.9688 29.075 15.4828 28.571 15.1048C28.085 14.7088 27.419 14.5108 26.573 14.5108C25.763 14.5108 25.106 14.7088 24.602 15.1048C24.098 15.4828 23.729 15.9688 23.495 16.5628C23.279 17.1568 23.171 17.7778 23.171 18.4258C23.171 19.0918 23.279 19.7128 23.495 20.2888C23.729 20.8648 24.098 21.3328 24.602 21.6928C25.106 22.0528 25.763 22.2328 26.573 22.2328Z" fill="white"/>
<path d="M42.357 25.6888C40.899 25.6888 39.648 25.3918 38.604 24.7978C37.578 24.2038 36.795 23.3668 36.255 22.2868C35.715 21.1888 35.445 19.9018 35.445 18.4258C35.445 16.9318 35.724 15.6358 36.282 14.5378C36.84 13.4218 37.641 12.5578 38.685 11.9458C39.747 11.3338 41.025 11.0278 42.519 11.0278C43.671 11.0278 44.697 11.2348 45.597 11.6488C46.497 12.0628 47.217 12.6568 47.757 13.4308C48.315 14.2048 48.639 15.1588 48.729 16.2928H45.03C44.868 15.6628 44.553 15.2038 44.085 14.9158C43.635 14.6278 43.095 14.4838 42.465 14.4838C41.655 14.4838 41.007 14.6818 40.521 15.0778C40.053 15.4738 39.711 15.9778 39.495 16.5898C39.297 17.2018 39.198 17.8138 39.198 18.4258C39.198 19.0918 39.306 19.7218 39.522 20.3158C39.738 20.8918 40.08 21.3688 40.548 21.7468C41.034 22.1068 41.664 22.2868 42.438 22.2868C43.086 22.2868 43.653 22.1428 44.139 21.8548C44.625 21.5488 44.94 21.0808 45.084 20.4508H48.864C48.774 21.6208 48.423 22.5928 47.811 23.3668C47.199 24.1408 46.416 24.7258 45.462 25.1218C44.526 25.4998 43.491 25.6888 42.357 25.6888Z" fill="white"/>
<path d="M51.485 25.4998V6.38379H55.265V12.9178C55.679 12.4318 56.138 12.0538 56.642 11.7838C57.164 11.5138 57.686 11.3248 58.208 11.2168C58.748 11.0908 59.243 11.0278 59.693 11.0278C61.025 11.0278 62.069 11.3248 62.825 11.9188C63.581 12.5128 64.121 13.3138 64.445 14.3218C64.769 15.3298 64.931 16.4368 64.931 17.6428V25.4998H61.151V18.1828C61.151 17.7508 61.106 17.3188 61.016 16.8868C60.944 16.4548 60.809 16.0588 60.611 15.6988C60.413 15.3208 60.134 15.0238 59.774 14.8078C59.414 14.5738 58.937 14.4568 58.343 14.4568C57.785 14.4568 57.308 14.5738 56.912 14.8078C56.516 15.0418 56.192 15.3568 55.94 15.7528C55.706 16.1308 55.535 16.5538 55.427 17.0218C55.319 17.4898 55.265 17.9578 55.265 18.4258V25.4998H51.485Z" fill="white"/>
<path d="M73.79 25.689C72.188 25.689 71 25.239 70.226 24.339C69.47 23.439 69.092 22.206 69.092 20.64V14.646H66.959V11.271H69.092V7.43701H72.872V11.271H77.192V14.646H72.872V19.857C72.872 20.325 72.926 20.73 73.034 21.072C73.16 21.414 73.358 21.684 73.628 21.882C73.916 22.062 74.303 22.152 74.789 22.152C75.221 22.152 75.581 22.089 75.869 21.963C76.175 21.819 76.427 21.666 76.625 21.504L77.813 24.42C77.435 24.726 77.012 24.978 76.544 25.176C76.094 25.356 75.635 25.482 75.167 25.554C74.699 25.644 74.24 25.689 73.79 25.689Z" fill="white"/>
<path d="M83.494 25.6892C82.846 25.6892 82.216 25.6082 81.604 25.4462C81.01 25.2662 80.479 24.9962 80.011 24.6362C79.543 24.2762 79.174 23.8262 78.904 23.2862C78.634 22.7462 78.499 22.1162 78.499 21.3962C78.499 20.4242 78.697 19.6502 79.093 19.0742C79.489 18.4802 80.02 18.0302 80.686 17.7242C81.352 17.4182 82.117 17.2112 82.981 17.1032C83.863 16.9952 84.772 16.9412 85.708 16.9412H87.76C87.76 16.4192 87.661 15.9602 87.463 15.5642C87.283 15.1502 87.004 14.8352 86.626 14.6192C86.248 14.3852 85.762 14.2682 85.168 14.2682C84.79 14.2682 84.421 14.3222 84.061 14.4302C83.719 14.5202 83.431 14.6552 83.197 14.8352C82.963 15.0152 82.81 15.2492 82.738 15.5372H78.904C79.012 14.7452 79.264 14.0702 79.66 13.5122C80.056 12.9362 80.551 12.4682 81.145 12.1082C81.739 11.7482 82.387 11.4872 83.089 11.3252C83.809 11.1452 84.547 11.0552 85.303 11.0552C87.373 11.0552 88.903 11.6492 89.893 12.8372C90.883 14.0072 91.378 15.6722 91.378 17.8322V25.5002H87.976L87.922 23.6642C87.472 24.2942 86.959 24.7532 86.383 25.0412C85.825 25.3292 85.285 25.5092 84.763 25.5812C84.241 25.6532 83.818 25.6892 83.494 25.6892ZM84.358 22.6922C84.988 22.6922 85.564 22.5662 86.086 22.3142C86.608 22.0622 87.022 21.7202 87.328 21.2882C87.634 20.8562 87.787 20.3702 87.787 19.8302V19.4792H85.195C84.817 19.4792 84.448 19.4972 84.088 19.5332C83.746 19.5692 83.431 19.6412 83.143 19.7492C82.873 19.8392 82.657 19.9922 82.495 20.2082C82.333 20.4242 82.252 20.7122 82.252 21.0722C82.252 21.4322 82.342 21.7382 82.522 21.9902C82.72 22.2242 82.981 22.4042 83.305 22.5302C83.629 22.6382 83.98 22.6922 84.358 22.6922Z" fill="white"/>
</svg>
